<?xml version="1.0" encoding="utf-8"?>
<!-- Generator: Adobe Illustrator 22.1.0, SVG Export Plug-In . SVG Version: 6.00 Build 0)  -->
<svg version="1.1" id="图层_1" xmlns="http://www.w3.org/2000/svg" xmlns:xlink="http://www.w3.org/1999/xlink" x="0px" y="0px"
	 viewBox="0 0 126 40" style="enable-background:new 0 0 126 40;" xml:space="preserve">
<style type="text/css">
	.st0{fill:#FFFFFF;}
	.st1{fill:#B9C1D4;}
</style>
<path id="Fill-1" class="st0" d="M124.8,12.1l-6.7,0c-0.3,0-0.5,0.2-0.5,0.5V18c0,0.3,0.2,0.5,0.5,0.5l6.5,0c0.6,0,1,0.4,1,1l0,1.5
	c0,0.6-0.4,1-1,1l-6.5,0c-0.3,0-0.5,0.2-0.5,0.5l0,6.6c0,1,0.7,1.7,1.7,1.7l5.5,0c0.6,0,1,0.4,1,1l0,1.5c0,0.6-0.4,1-1,1
	c0,0,0,0,0,0l-5.5,0c-2.8,0-5.1-2.3-5.1-5.2l0-16.6c0-0.3-0.2-0.5-0.5-0.5c0,0,0,0,0,0l-13.5,0c-0.3,0-0.5,0.2-0.5,0.5l0,5.4
	c0,0.3,0.2,0.5,0.5,0.5c0,0,0,0,0,0l8.8,0c0.6,0,1,0.4,1,1l0,14c0,0.6-0.4,1-1,1l-1.4,0c-0.6,0-1-0.4-1-1c0,0,0,0,0,0l0-10.8
	c0-0.3-0.2-0.5-0.5-0.5c0,0,0,0,0,0l-5.8,0c-0.3,0-0.5,0.2-0.5,0.5l0,10.8c0,0.6-0.4,1-1,1c0,0,0,0,0,0l-1.4,0c-0.6,0-1-0.4-1-1
	l0-21.5c0-1.9,1.4-3.3,3.2-3.3l11.5,0c0.3,0,0.5-0.2,0.5-0.5l0-1.3c0-0.6,0.4-1,1-1l1.4,0c0.6,0,1,0.4,1,1c0,0,0,0,0,0l0,1.3
	c0,0.3,0.2,0.5,0.5,0.5l6.3,0c0.3,0,0.5-0.2,0.5-0.5V6.7c0-0.6,0.4-1,1-1l1.4,0c0.6,0,1,0.4,1,1l0,4.4
	C125.8,11.6,125.4,12.1,124.8,12.1C124.8,12.1,124.8,12.1,124.8,12.1L124.8,12.1z"/>
<path id="Fill-4" class="st0" d="M82.1,7.5c4.1,0,7.3,3.2,7.3,7.2v5.3c0,0.6-0.4,1-1,1h-2.5l-15.9,0c-0.6,0-1-0.4-1-1l0-1.5
	c0-0.6,0.4-1,1-1c0,0,0,0,0,0l15.4,0c0.3,0,0.5-0.2,0.5-0.5l0-1.4c0-2.5-2-4.5-4.4-4.5H68.2c-2.5,0-4.4,2-4.4,4.5l0,9.9
	c0,2.5,2,4.5,4.4,4.5c0,0,18.9,0,19.1,0l0,2.7c0,0.6-0.4,1-1,1l-19,0c-4-0.1-7.3-3.4-7.3-7.4V14.8c0-4,3.3-7.3,7.2-7.3H82.1z"/>
<path id="Fill-1_1_" class="st1" d="M0,19.9c0,11.7,9.7,19.9,20,19.9c11.6,0,20-9.4,20-19.9c0-2-0.2-4.2-1.2-7
	c2.2,11.6-7,19.6-16,19.6c-6.3,0-12-3.4-14.7-9.3C5.4,17.7,5.9,11,10,6c2.1-2.4,5.5-5.4,11.4-6C10.9-0.5,0,7.2,0,19.9"/>
<path id="Clip-5" class="st0" d="M21.7,0.1c-0.1,0-0.2,0-0.3,0C21.5,0.1,21.6,0.1,21.7,0.1z M28.7,5.2c0-2.5-3.5-4.8-7-5.1
	c2.5,0.2,6.3,1.2,8.5,2.8c1.8,1.4,3,3.7,3,6c0,10.4-18.9,9.6-18.9,21.1c0,6.4,6.2,10.8,12.3,8.7c-2,0.8-4.4,1.1-6.6,1.1
	C8.2,39.9,0.7,29.8,0.7,23.8C0.7,9.2,28.7,13.9,28.7,5.2z"/>
</svg>
