<?xml version="1.0" encoding="UTF-8"?>
<svg width="12px" height="12px" viewBox="0 0 12 12" version="1.1" xmlns="http://www.w3.org/2000/svg" xmlns:xlink="http://www.w3.org/1999/xlink">
    <!-- Generator: Sketch 53.2 (72643) - https://sketchapp.com -->
    <title>play</title>
    <desc>Created with Sketch.</desc>
    <g id="组件" stroke="none" stroke-width="1" fill="none" fill-rule="evenodd">
        <g id="play_button" transform="translate(-63.000000, -7.000000)" fill="#111111" fill-rule="nonzero">
            <g id="play">
                <path d="M69,18 C71.7614237,18 74,15.7614237 74,13 C74,10.2385763 71.7614237,8 69,8 C66.2385763,8 64,10.2385763 64,13 C64,15.7614237 66.2385763,18 69,18 Z M69,19 C65.6862915,19 63,16.3137085 63,13 C63,9.6862915 65.6862915,7 69,7 C72.3137085,7 75,9.6862915 75,13 C75,16.3137085 72.3137085,19 69,19 Z M68.2143907,10.8829202 L71.0282797,12.5712535 C71.2650698,12.7133276 71.3418524,13.0204577 71.1997783,13.2572479 C71.1575534,13.3276227 71.0986545,13.3865216 71.0282797,13.4287465 L68.2143907,15.1170798 C67.9776006,15.2591539 67.6704705,15.1823714 67.5283964,14.9455813 C67.4817718,14.8678736 67.4571429,14.7789554 67.4571429,14.6883334 L67.4571429,11.3116666 C67.4571429,11.0355242 67.6810005,10.8116666 67.9571429,10.8116666 C68.0477648,10.8116666 68.136683,10.8362955 68.2143907,10.8829202 Z"></path>
            </g>
        </g>
    </g>
</svg>