<?xml version="1.0" encoding="utf-8"?>
<!-- Generator: Adobe Illustrator 22.1.0, SVG Export Plug-In . SVG Version: 6.00 Build 0)  -->
<svg version="1.1" id="图层_1" xmlns="http://www.w3.org/2000/svg" xmlns:xlink="http://www.w3.org/1999/xlink" x="0px" y="0px"
	 viewBox="0 0 100 100" style="enable-background:new 0 0 100 100;" xml:space="preserve">
<style type="text/css">
	.st0{fill:#FFFFFF;}
	.st1{fill:#0F5AFF;}
	.st2{fill:#E7EEFF;}
</style>
<rect id="Rectangle-Copy" x="15.7" y="25.7" class="st0" width="60" height="45.7"/>
<path id="Combined-Shape" class="st1" d="M61.4,71.4H15.7V25.7h60v11.4h-2.3v-2.9H18v34.9h43.4V71.4z"/>
<path id="Rectangle" class="st0" d="M19.6,28.6h0.9c0.6,0,1,0.4,1,1v0.9c0,0.6-0.4,1-1,1h-0.9c-0.6,0-1-0.4-1-1v-0.9
	C18.6,29,19,28.6,19.6,28.6z"/>
<path id="Rectangle_1_" class="st0" d="M25.3,28.6h0.9c0.6,0,1,0.4,1,1v0.9c0,0.6-0.4,1-1,1h-0.9c-0.6,0-1-0.4-1-1v-0.9
	C24.3,29,24.7,28.6,25.3,28.6z"/>
<path id="Rectangle_2_" class="st0" d="M31,28.6h0.9c0.6,0,1,0.4,1,1v0.9c0,0.6-0.4,1-1,1H31c-0.6,0-1-0.4-1-1v-0.9
	C30,29,30.4,28.6,31,28.6z"/>
<rect id="Rectangle-Copy-4" x="30" y="42.9" class="st2" width="31.4" height="5.7"/>
<rect id="Rectangle-Copy-4_1_" x="30" y="54.3" class="st2" width="31.4" height="5.7"/>
<rect id="Rectangle-Copy_1_" x="64.3" y="40" class="st0" width="20" height="34.3"/>
<polygon id="Rectangle-Copy-9" class="st2" points="76.4,40 84.3,40 84.3,74.3 72.9,74.3 "/>
<path id="Rectangle-Copy-7" class="st1" d="M66.6,72H82V42.3H66.6V72z M64.3,40h20v34.3h-20V40z"/>
<rect id="Rectangle_3_" x="71.4" y="67.1" class="st1" width="5.7" height="2.9"/>
</svg>
