<?xml version="1.0" encoding="UTF-8"?>
<svg width="100px" height="100px" viewBox="0 0 100 100" version="1.1" xmlns="http://www.w3.org/2000/svg" xmlns:xlink="http://www.w3.org/1999/xlink">
    <!-- Generator: Sketch 52.6 (67491) - http://www.bohemiancoding.com/sketch -->
    <title>猎头服务icon</title>
    <desc>Created with Sketch.</desc>
    <g id="页面" stroke="none" stroke-width="1" fill="none" fill-rule="evenodd">
        <g id="深色" transform="translate(-260.000000, -2034.000000)" fill-rule="nonzero">
            <g id="分组-17" transform="translate(160.000000, 1998.000000)">
                <g id="分组-15">
                    <g id="猎头服务icon" transform="translate(100.000000, 36.000000)">
                        <polygon id="Path" fill="#FFFFFF" points="26.6666667 26.3135493 26.6666667 73.6864507 50 77.7444217 73.3333333 73.6864507 73.3333333 26.3135493 50 22.2555783"></polygon>
                        <polygon id="Rectangle-Copy-14" fill="#0F5AFF" opacity="0.1" points="73.3333333 25.6666667 73.3333333 74.3333333 50 77.7777778 50 22.2222222"></polygon>
                        <path d="M26.6666667,26.3135493 L26.6666667,73.6864507 L50,77.7444217 L73.3333333,73.6864507 L73.3333333,26.3135493 L50,22.2555783 L26.6666667,26.3135493 Z M24.4444444,24.4444444 L50,20 L75.5555556,24.4444444 L75.5555556,75.5555556 L50,80 L24.4444444,75.5555556 L24.4444444,24.4444444 Z" id="Rectangle" fill="#0F5AFF"></path>
                        <path d="M49.9999971,46.0317057 C46.4934284,46.0317057 43.6507928,43.1890783 43.6507928,39.6825195 C43.6507928,36.1759608 46.4934284,33.3333333 49.9999971,33.3333333 C53.5065658,33.3333333 56.3492013,36.1759608 56.3492013,39.6825195 C56.3492013,43.1890783 53.5065658,46.0317057 49.9999971,46.0317057 Z M54.6864569,47.9891223 C57.1694377,49.154123 58.8888889,51.6766446 58.8888889,54.6007656 L58.8888585,61.3117293 C58.8888582,61.6795538 58.6869257,62.0176843 58.3630904,62.1921136 C55.5753926,63.6936675 52.7876949,64.4444444 49.9999971,64.4444444 C47.2123099,64.4444444 44.4246228,63.6936732 41.6369357,62.1921308 L41.6369158,62.1921677 C41.3130578,62.0177268 41.1111111,61.679573 41.1111111,61.311723 L41.1111111,54.6007715 C41.1111111,51.6766509 42.8305604,49.1541292 45.3135394,47.9891261 L49.1317545,54.6709836 C49.2203436,54.826014 49.3488266,54.954497 49.5038571,55.0430861 C49.9833742,55.3170966 50.594229,55.1505007 50.8682396,54.6709836 L54.6864569,47.9891223 Z" id="Shape" fill="#0F5AFF"></path>
                        <path d="M31.1111111,62.53 L35.5555556,63.3333333 L35.5555556,70 L31.1111111,69.2 L31.1111111,62.53 Z M31.1111111,30 L35.5555556,29.2 L35.5555556,35.87 L31.1111111,36.6666667 L31.1111111,30 Z" id="Shape" fill="#0F5AFF" opacity="0.2"></path>
                        <rect id="矩形" fill="#FFFFFF" opacity="0" x="0" y="0" width="100" height="100"></rect>
                    </g>
                </g>
            </g>
        </g>
    </g>
</svg>