<?xml version="1.0" encoding="UTF-8"?>
<svg width="320px" height="36px" viewBox="0 0 320 36" version="1.1" xmlns="http://www.w3.org/2000/svg" xmlns:xlink="http://www.w3.org/1999/xlink">
    <!-- Generator: Sketch 52.6 (67491) - http://www.bohemiancoding.com/sketch -->
    <title>更对、更快、更省</title>
    <desc>Created with Sketch.</desc>
    <g id="组件" stroke="none" stroke-width="1" fill="none" fill-rule="evenodd">
        <g id="更对、更快、更省">
            <g>
                <path d="M2.592,3.028 L33.444,3.028 L33.444,5.44 L19.296,5.44 L19.296,8.572 L30.456,8.572 L30.456,22.828 L18.864,22.828 C18.432,25.204 17.748,27.112 16.74,28.552 C21.78,30.676 27.756,31.864 34.668,32.08 L34.02,34.564 C26.784,34.276 20.484,32.872 15.12,30.424 C12.6,32.584 8.46,33.952 2.736,34.6 L1.62,32.224 C6.624,31.828 10.296,30.82 12.6,29.164 C10.512,28.012 8.568,26.68 6.804,25.168 L8.784,23.8 C10.476,25.204 12.348,26.428 14.364,27.472 C15.228,26.248 15.876,24.7 16.236,22.828 L5.688,22.828 L5.688,8.572 L16.704,8.572 L16.704,5.44 L2.592,5.44 L2.592,3.028 Z M27.9,20.56 L27.9,16.744 L19.296,16.744 L19.296,18.004 L19.188,20.56 L27.9,20.56 Z M16.596,20.56 C16.668,19.732 16.704,18.868 16.704,18.004 L16.704,16.744 L8.244,16.744 L8.244,20.56 L16.596,20.56 Z M8.244,14.584 L16.704,14.584 L16.704,10.804 L8.244,10.804 L8.244,14.584 Z M19.296,10.804 L19.296,14.584 L27.9,14.584 L27.9,10.804 L19.296,10.804 Z M57.172,8.572 L67.612,8.572 L67.612,1.516 L70.204,1.516 L70.204,8.572 L74.2,8.572 L74.2,11.056 L70.204,11.056 L70.204,30.856 C70.204,33.268 68.944,34.492 66.496,34.492 L60.844,34.492 L60.304,31.936 C62.176,32.044 63.94,32.116 65.596,32.116 C66.928,32.116 67.612,31.468 67.612,30.208 L67.612,11.056 L57.172,11.056 L57.172,8.572 Z M44.284,10.912 C46.552,13.36 48.64,15.844 50.584,18.292 C51.916,15.052 52.708,11.524 52.96,7.708 L43.096,7.708 L43.096,5.188 L55.3,5.188 L55.3,7.096 C55.12,11.992 54.112,16.456 52.24,20.452 C53.752,22.468 55.156,24.52 56.416,26.536 L54.544,28.408 C53.464,26.608 52.276,24.808 50.98,22.972 C49,26.428 46.336,29.524 43.024,32.26 L41.512,29.992 C44.896,27.4 47.524,24.34 49.396,20.812 C47.38,18.112 45.076,15.34 42.556,12.532 L44.284,10.912 Z M59.116,15.304 C61.528,18.256 63.4,20.884 64.696,23.188 L62.644,24.628 C61.204,22.144 59.368,19.516 57.136,16.744 L59.116,15.304 Z M86.228,25.96 C87.596,26.932 89,28.12 90.368,29.56 C91.556,30.784 92.6,32.044 93.464,33.268 L91.664,34.78 C90.8,33.556 89.756,32.332 88.604,31.108 C87.272,29.668 85.94,28.48 84.608,27.472 L86.228,25.96 Z M122.592,3.028 L153.444,3.028 L153.444,5.44 L139.296,5.44 L139.296,8.572 L150.456,8.572 L150.456,22.828 L138.864,22.828 C138.432,25.204 137.748,27.112 136.74,28.552 C141.78,30.676 147.756,31.864 154.668,32.08 L154.02,34.564 C146.784,34.276 140.484,32.872 135.12,30.424 C132.6,32.584 128.46,33.952 122.736,34.6 L121.62,32.224 C126.624,31.828 130.296,30.82 132.6,29.164 C130.512,28.012 128.568,26.68 126.804,25.168 L128.784,23.8 C130.476,25.204 132.348,26.428 134.364,27.472 C135.228,26.248 135.876,24.7 136.236,22.828 L125.688,22.828 L125.688,8.572 L136.704,8.572 L136.704,5.44 L122.592,5.44 L122.592,3.028 Z M147.9,20.56 L147.9,16.744 L139.296,16.744 L139.296,18.004 L139.188,20.56 L147.9,20.56 Z M136.596,20.56 C136.668,19.732 136.704,18.868 136.704,18.004 L136.704,16.744 L128.244,16.744 L128.244,20.56 L136.596,20.56 Z M128.244,14.584 L136.704,14.584 L136.704,10.804 L128.244,10.804 L128.244,14.584 Z M139.296,10.804 L139.296,14.584 L147.9,14.584 L147.9,10.804 L139.296,10.804 Z M174.472,7.096 L180.88,7.096 L180.88,1.66 L183.4,1.66 L183.4,7.096 L191.068,7.096 L191.068,17.968 L193.876,17.968 L193.876,20.488 L184.048,20.488 C186.28,25.384 189.844,29.344 194.704,32.368 L192.94,34.384 C188.044,31.036 184.444,26.824 182.176,21.712 C180.556,27.472 177.352,31.684 172.564,34.42 L170.98,32.296 C175.588,29.848 178.612,25.924 179.98,20.488 L172.996,20.488 L172.996,17.968 L180.484,17.968 C180.736,16.312 180.88,14.512 180.88,12.64 L180.88,9.508 L174.472,9.508 L174.472,7.096 Z M183.4,9.508 L183.4,12.1 C183.4,14.188 183.256,16.132 182.968,17.968 L188.548,17.968 L188.548,9.508 L183.4,9.508 Z M162.736,8.536 L164.788,8.68 C164.68,12.28 164.248,15.736 163.492,18.976 L161.368,18.364 C162.16,15.268 162.628,11.992 162.736,8.536 Z M171.808,7.744 C172.816,10.048 173.68,12.676 174.472,15.664 L172.348,16.168 C171.7,13.468 170.872,10.876 169.864,8.356 L171.808,7.744 Z M166.588,1.696 L169.144,1.696 L169.144,34.456 L166.588,34.456 L166.588,1.696 Z M206.228,25.96 C207.596,26.932 209,28.12 210.368,29.56 C211.556,30.784 212.6,32.044 213.464,33.268 L211.664,34.78 C210.8,33.556 209.756,32.332 208.604,31.108 C207.272,29.668 205.94,28.48 204.608,27.472 L206.228,25.96 Z M242.592,3.028 L273.444,3.028 L273.444,5.44 L259.296,5.44 L259.296,8.572 L270.456,8.572 L270.456,22.828 L258.864,22.828 C258.432,25.204 257.748,27.112 256.74,28.552 C261.78,30.676 267.756,31.864 274.668,32.08 L274.02,34.564 C266.784,34.276 260.484,32.872 255.12,30.424 C252.6,32.584 248.46,33.952 242.736,34.6 L241.62,32.224 C246.624,31.828 250.296,30.82 252.6,29.164 C250.512,28.012 248.568,26.68 246.804,25.168 L248.784,23.8 C250.476,25.204 252.348,26.428 254.364,27.472 C255.228,26.248 255.876,24.7 256.236,22.828 L245.688,22.828 L245.688,8.572 L256.704,8.572 L256.704,5.44 L242.592,5.44 L242.592,3.028 Z M267.9,20.56 L267.9,16.744 L259.296,16.744 L259.296,18.004 L259.188,20.56 L267.9,20.56 Z M256.596,20.56 C256.668,19.732 256.704,18.868 256.704,18.004 L256.704,16.744 L248.244,16.744 L248.244,20.56 L256.596,20.56 Z M248.244,14.584 L256.704,14.584 L256.704,10.804 L248.244,10.804 L248.244,14.584 Z M259.296,10.804 L259.296,14.584 L267.9,14.584 L267.9,10.804 L259.296,10.804 Z M296.272,1.516 L298.828,1.516 L298.828,10.732 L296.272,10.732 L296.272,1.516 Z M288.064,17.356 C286.372,17.716 284.644,18.076 282.844,18.4 L281.764,16.06 C292.888,14.26 301.348,11.344 307.18,7.348 C305.884,6.304 304.516,5.26 303.04,4.216 L304.768,2.56 C308.548,5.188 311.716,7.816 314.308,10.408 L312.508,12.244 C311.5,11.128 310.312,10.012 309.016,8.896 C305.416,11.452 300.952,13.576 295.66,15.304 L309.988,15.304 L309.988,34.492 L307.468,34.492 L307.468,32.872 L290.584,32.872 L290.584,34.564 L288.064,34.564 L288.064,17.356 Z M290.584,30.568 L307.468,30.568 L307.468,27.472 L290.584,27.472 L290.584,30.568 Z M290.584,25.384 L307.468,25.384 L307.468,22.504 L290.584,22.504 L290.584,25.384 Z M290.584,20.416 L307.468,20.416 L307.468,17.5 L290.584,17.5 L290.584,20.416 Z M290.548,3.568 L292.384,5.188 C290.224,7.852 287.56,10.192 284.392,12.208 L282.88,10.264 C285.94,8.32 288.496,6.088 290.548,3.568 Z" stroke="#111111" fill="#111111"></path>
                <rect id="矩形" fill="#FFFFFF" fill-rule="nonzero" opacity="0" x="0" y="0" width="320" height="36"></rect>
            </g>
        </g>
    </g>
</svg>