<?xml version="1.0" encoding="UTF-8"?>
<svg width="26px" height="26px" viewBox="0 0 26 26" version="1.1" xmlns="http://www.w3.org/2000/svg" xmlns:xlink="http://www.w3.org/1999/xlink">
    <!-- Generator: Sketch 52.6 (67491) - http://www.bohemiancoding.com/sketch -->
    <title>Bot</title>
    <desc>Created with Sketch.</desc>
    <g id="页面" stroke="none" stroke-width="1" fill="none" fill-rule="evenodd">
        <g id="1-首页" transform="translate(-628.000000, -1482.000000)">
            <g id="Bot" transform="translate(628.000000, 1482.000000)">
                <path d="M3.46666667,0 L13,0 C20.1797017,-1.31888981e-15 26,5.82029826 26,13 C26,20.1797017 20.1797017,26 13,26 C5.82029826,26 8.79259876e-16,20.1797017 0,13 L0,3.46666667 C-2.344693e-16,1.55207953 1.55207953,3.5170395e-16 3.46666667,0 Z" id="路径" fill="#0077FF"></path>
                <path d="M8.06,8.32 L17.94,8.32 C20.5246926,8.32 22.62,10.4153074 22.62,13 C22.62,15.5846926 20.5246926,17.68 17.94,17.68 L8.06,17.68 C5.47530738,17.68 3.38,15.5846926 3.38,13 C3.38,10.4153074 5.47530738,8.32 8.06,8.32 Z" id="路径" fill="#FFFFFF"></path>
                <path d="M8.84,11.18 C9.41437614,11.18 9.88,11.6456239 9.88,12.22 L9.88,13.78 C9.88,14.3543761 9.41437614,14.82 8.84,14.82 C8.26562386,14.82 7.8,14.3543761 7.8,13.78 L7.8,12.22 C7.8,11.6456239 8.26562386,11.18 8.84,11.18 Z" id="路径" fill="#0075FF"></path>
                <path d="M17.16,11.18 C17.7343761,11.18 18.2,11.6456239 18.2,12.22 L18.2,13.78 C18.2,14.3543761 17.7343761,14.82 17.16,14.82 C16.5856239,14.82 16.12,14.3543761 16.12,13.78 L16.12,12.22 C16.12,11.6456239 16.5856239,11.18 17.16,11.18 Z" id="路径" fill="#0075FF"></path>
                <rect id="矩形" fill="#FFFFFF" opacity="0" x="0" y="0" width="26" height="26"></rect>
            </g>
        </g>
    </g>
</svg>