<?xml version="1.0" encoding="UTF-8"?>
<svg width="536px" height="36px" viewBox="0 0 536 36" version="1.1" xmlns="http://www.w3.org/2000/svg" xmlns:xlink="http://www.w3.org/1999/xlink">
    <!-- Generator: Sketch 52.6 (67491) - http://www.bohemiancoding.com/sketch -->
    <title>BOT待命slogan</title>
    <desc>Created with Sketch.</desc>
    <g id="页面" stroke="none" stroke-width="1" fill="none" fill-rule="evenodd">
        <g id="1-首页" transform="translate(-452.000000, -1302.000000)" fill-rule="nonzero">
            <g id="BOT待命slogan" transform="translate(452.000000, 1302.000000)">
                <path d="M10.704,6.624 L3.36,6.624 L3.36,3.356 L10.704,3.356 L10.704,1.16 L14.26,1.16 L14.26,3.356 L20.38,3.356 L20.38,6.624 L14.26,6.624 L14.26,8.216 L19.516,8.216 L19.516,11.34 L14.1832068,11.34 C14.1301173,11.9048371 14.0626527,12.4151233 13.9758165,12.896 L20.38,12.896 L20.38,16.164 L13.0466367,16.164 C12.7481287,16.8397906 12.3883649,17.4886126 11.9620811,18.1265416 C10.5141568,20.0317052 8.21857668,21.5181874 5.13411388,22.5463416 L4.76418452,22.6696514 L2.8776619,19.7123998 L3.48588612,19.5096584 C6.15320808,18.620551 8.00330729,17.4844616 9.01738475,16.164 L2.604,16.164 L2.604,12.896 L10.3295829,12.896 C10.436363,12.3614494 10.5201156,11.8429184 10.5792057,11.34 L4.26,11.34 L4.26,8.216 L10.704,8.216 L10.704,6.624 Z M17.4,21.968 L17.4,18.692 L20.992,18.692 L20.992,21.968 L32.08,21.968 L32.08,29.668 C32.08,31.8194686 30.8456251,32.976 28.592,32.976 L25.1485986,32.976 L24.2274905,29.547431 L24.8964961,29.5641562 L27.764,29.636 C28.3334064,29.636 28.524,29.4778479 28.524,29.092 L28.524,25.38 L20.992,25.38 L20.992,35.424 L17.4,35.424 L17.4,25.38 L10.012,25.38 L10.012,33.228 L6.42,33.228 L6.42,21.968 L17.4,21.968 Z M25.168,5.94 L25.168,20.628 L21.576,20.628 L21.576,2.528 L34.312,2.528 L34.312,4.828 L34.2642158,5.04130934 C33.4258851,6.8185704 32.4272797,8.54762832 31.2897811,10.1972927 C33.4312827,11.9037621 34.5279954,13.4695576 34.5279143,14.9532577 C34.4876866,17.1255521 33.3206434,18.5133873 31.1699867,18.9908079 C30.1591832,19.2629473 28.8426912,19.404 27.26,19.404 L26.9158743,19.404 L25.5705433,15.8854421 L26.3692679,15.9580534 C28.1206081,16.1172661 27.907659,16.1 28.3310729,16.1000797 C30.118644,16.0681588 30.864,15.6622059 30.864,14.944 C30.864,14.1904549 29.6888237,12.7257425 27.3283233,10.6776612 L26.9581082,10.3564452 L27.2718894,9.9799078 C28.3460704,8.6908906 29.2694453,7.34316373 30.0346686,5.94 L25.168,5.94 Z M46.916,31.5 L42.964,31.5 L42.964,4.796 L46.916,4.796 L46.916,15.956 L60.784,15.956 L60.784,4.796 L64.736,4.796 L64.736,31.5 L60.784,31.5 L60.784,19.512 L46.916,19.512 L46.916,31.5 Z M76.836,31.5 L72.884,31.5 L72.884,4.796 L84.472,4.796 C87.1494917,4.796 89.2685672,5.41091029 90.8345991,6.67137756 C92.4836787,8.00634678 93.324,9.96058228 93.324,12.46 C93.324,13.9981419 92.8988999,15.3603946 92.036,16.576 C91.3873533,17.4408622 90.5824065,18.088278 89.6084827,18.5328534 C91.434894,19.3533685 92.491549,20.9242985 92.7455186,23.2102481 L93.1419466,27.1747321 C93.2759889,28.6491971 93.7031943,29.821918 94.4009706,30.6858314 L95.0585683,31.5 L90.5404081,31.5 L90.3919749,31.2773501 C89.7513674,30.3164389 89.3771538,29.1074412 89.2662288,27.6271573 L88.9422523,24.2074045 C88.810132,22.8201418 88.3309946,21.8458958 87.52,21.284 C86.7714031,20.7225523 85.6651188,20.448 84.112,20.448 L76.836,20.448 L76.836,31.5 Z M76.836,16.892 L84.112,16.892 C85.8525312,16.892 87.2222492,16.4692475 88.1294717,15.6920345 C88.9310973,14.954539 89.336,13.9303733 89.336,12.568 C89.336,11.1378276 88.9317344,10.0786517 88.1810289,9.42169314 C87.3515664,8.71984025 85.9888854,8.352 84.112,8.352 L76.836,8.352 L76.836,16.892 Z M102.469553,34.6295534 L102.079231,35.0198754 L99.6466975,32.0521842 L99.9569377,31.7320427 C103.292146,28.290392 105.502727,23.9753368 106.55711,18.808989 C107.414313,14.3801061 107.844,8.72256355 107.844,1.84 L107.844,1.34 L111.472,1.34 L111.472,1.84 C111.472,7.33581544 111.193495,12.1394374 110.635767,16.2520368 C113.314501,19.1209138 115.635691,22.0634609 117.617585,25.0730047 L117.83964,25.4101988 L115.149771,28.1498807 L114.821878,27.5760695 C113.577653,25.3986741 111.945159,23.0786833 109.887612,20.5412674 C108.667962,26.2141996 106.205051,30.8940559 102.469553,34.6295534 Z M116.108808,34.8502356 L115.718577,35.2301974 L113.28473,32.2609042 L113.608246,31.9406565 C117.111536,28.4727535 119.434452,24.1272209 120.560969,18.917722 C121.426861,14.4078691 121.884488,8.69201049 121.920007,1.80142271 L121.922571,1.304 L125.512,1.304 L125.512,1.804 C125.512,5.28919465 125.377543,8.63208615 125.120164,11.7465374 C126.825588,20.1565127 129.86604,26.802588 134.205404,31.6754799 L134.492794,31.9982047 L131.953261,35.0261087 L131.571452,34.5546915 C128.366267,30.5972687 125.839007,25.8236654 123.988331,20.2365532 C122.738018,26.0850624 120.104235,30.9599514 116.108808,34.8502356 Z M145.314524,7.136 L156.944,7.136 L156.944,7.636 C156.944,8.9083514 156.917397,10.0784887 156.863718,11.168 L159.032,11.168 L159.032,13.896 L156.636579,13.896 C156.568204,14.4461178 156.486555,14.9960896 156.391358,15.56 L157.952,15.56 L157.952,18 L155.945033,18 L157.251246,18.9330093 L156.532564,19.3106217 C155.297414,19.959599 154.007101,20.5585662 152.659811,21.1110619 L158.154021,20.9279216 C159.769377,20.1185593 161.200146,19.3594695 162.567931,18.5778784 L162.833562,18.4260893 L165.645556,20.2647009 L164.936069,20.6701216 C161.452489,22.6607392 157.77504,24.3048988 153.908923,25.5966269 C157.36721,25.4466905 160.918076,25.2506895 164.591067,25.0095843 C164.482625,24.9293139 164.370453,24.8469575 164.253965,24.7620412 C164.037077,24.6039354 163.808413,24.439192 163.525806,24.2370539 C163.373523,24.128132 162.847297,23.7528065 162.777381,23.7028667 L162.170114,23.269105 L164.907735,21.551382 L165.175063,21.7238517 C168.511183,23.8761867 171.103832,25.8047537 172.946528,27.5000345 L173.403585,27.9205263 L170.499426,29.9585325 L170.202447,29.6615534 C169.503749,28.9628559 168.722238,28.2660993 167.761601,27.477808 C166.609526,27.5407012 163.667472,27.702989 163.122258,27.7327564 C161.50312,27.8211576 160.221542,27.8888593 159.032,27.9479831 L159.032,32.26 C159.032,34.1361007 157.857981,35.172 155.796,35.172 L151.831663,35.172 L151.130431,32.0434264 L151.795189,32.0849737 C153.649753,32.2008839 154.196593,32.228 155.04,32.228 C155.447858,32.228 155.584,32.0918576 155.584,31.684 L155.584,28.1051442 C151.415603,28.3076394 147.58993,28.4428818 144.069802,28.5119039 L143.67154,28.519713 L142.870898,25.3171447 L143.551189,25.3529737 L143.546279,25.3526911 C144.533693,25.4046602 144.992196,25.4229219 145.556294,25.4239532 C147.709336,24.9703948 149.940707,24.3144883 152.284668,23.4526811 L145.421386,23.6646744 L144.811166,20.78 L145.428,20.78 C146.247601,20.78 146.903356,20.692566 147.271591,20.5586651 C149.055562,19.903329 150.806353,19.1387485 152.582996,18.2263491 C152.607832,18.1547274 152.632959,18.0803861 152.659578,18 L142.055482,18 L142.164273,17.4094188 C142.352483,16.3877083 142.492482,15.5486993 142.754664,13.896 L140.32,13.896 L140.32,11.168 L143.144584,11.168 C143.169499,10.9441319 143.187119,10.7855326 143.202464,10.6466963 C143.24278,10.281932 143.275641,9.97940056 143.306266,9.68947533 C143.330685,9.45831036 143.353431,9.23734387 143.374711,9.02394783 L142.094599,10.1534588 L140.103553,7.73191607 L140.517807,7.41765436 C142.571253,5.8598677 144.278715,3.8179543 145.597808,1.31862069 L145.777891,0.97741046 L148.943895,1.7161448 L148.642459,2.28887322 C148.475797,2.60553156 148.295398,2.92720651 148.073889,3.30693551 C148.04731,3.35250019 148.00723,3.42067734 147.96047,3.5 L158.528,3.5 L158.528,6.372 L145.986486,6.372 C145.781349,6.61610721 145.577922,6.84735745 145.314524,7.136 Z M145.564105,15.56 L153.292667,15.56 C153.406482,14.9303257 153.50106,14.3112474 153.579058,13.68 L145.8933,13.68 C145.803329,14.2499228 145.698704,14.8437508 145.564105,15.56 Z M153.906934,9.54 L146.415521,9.54 L146.202633,11.456 L153.78453,11.456 C153.843218,10.67117 153.880722,10.0969352 153.906934,9.54 Z M165.551172,11.9214489 C166.60785,10.6594397 167.394328,9.22181584 167.909613,7.596 L162.799187,7.596 C163.325601,9.20095618 164.246061,10.6521051 165.551172,11.9214489 Z M160.623814,9.92670573 C160.067187,10.6245252 159.549988,11.2131186 159.029553,11.7335534 L158.640728,12.1223783 L156.638027,9.69805587 L156.948299,9.37670274 C158.95589,7.29741267 160.596206,4.63410356 161.845072,1.37317637 L161.999888,0.968934367 L165.232857,1.69895959 L165.006008,2.2471759 C164.663303,3.07538165 164.338147,3.81600016 164.010954,4.508 L173.396,4.508 L173.396,7.596 L171.123992,7.596 C170.471357,10.0497621 169.444723,12.156361 168.055407,13.8995095 C169.664243,14.9361085 171.626191,15.8561799 173.886162,16.631027 L174.461395,16.8282497 L172.757921,19.7706143 L172.363147,19.6251716 C169.788555,18.6766375 167.569282,17.5198431 165.746134,16.1898625 C163.953614,17.6120449 161.76248,18.6481758 159.160345,19.3162915 L158.810295,19.4061693 L157.012448,16.6036432 L157.694001,16.4381231 C159.928873,15.8953687 161.775058,15.0955295 163.291455,14.015132 C162.157335,12.7703939 161.268166,11.4042613 160.623814,9.92670573 Z M148.555029,8.88371787 C149.94227,9.28528755 151.202531,9.80043067 152.364416,10.4375938 L152.834512,10.6953881 L151.648128,12.5408734 L151.242056,12.325894 C150.063081,11.7017308 148.836592,11.2076054 147.594639,10.852762 L146.930318,10.6629559 L148.206182,8.78273582 L148.555029,8.88371787 Z M147.969564,12.9490786 C149.524409,13.366232 150.87105,13.8484751 152.054137,14.4220929 L152.565943,14.6702415 L151.32638,16.5622068 L150.928393,16.3632136 C149.74444,15.771237 148.472778,15.304096 147.061545,14.9226817 L146.401909,14.7444016 L147.616875,12.8544546 L147.969564,12.9490786 Z M162.977817,28.2840887 C166.657925,29.2409168 169.948235,30.3708309 172.885644,31.6962475 L173.409834,31.9327719 L171.569535,34.8465788 L171.168635,34.6552405 C168.105686,33.1933782 164.873841,32.0391481 161.432308,31.1604589 L160.742182,30.9842563 L162.63653,28.1953542 L162.977817,28.2840887 Z M152.787767,30.5886544 L152.267936,30.8918895 C149.633098,32.4288778 146.351116,33.7052041 142.421481,34.7239984 L142.023965,34.8270583 L140.601859,31.8775069 L141.21157,31.7368044 C144.937989,30.8768616 148.017443,29.7732421 150.404089,28.4395283 L150.759955,28.2406619 L152.787767,30.5886544 Z M201.668,1.016 L205.26,1.016 L205.26,10.808 L212.244,10.808 L212.244,27.36 L208.724,27.36 L208.724,14.112 L197.916,14.112 L197.916,27.36 L194.432,27.36 L194.432,10.808 L201.668,10.808 L201.668,1.016 Z M213.434961,3.06615018 L213.249097,3.50936334 C212.297264,5.77912047 211.054589,8.00673004 209.560289,10.1206179 L209.308983,10.4761233 L206.326611,8.93351673 L206.654384,8.46526883 C208.133687,6.35197859 209.308415,4.22500941 210.164852,2.11960094 L210.362972,1.63255562 L213.434961,3.06615018 Z M196.682485,2.43037532 C197.917225,4.31880212 199.078767,6.35149917 200.167214,8.5283932 L200.389315,8.97259529 L197.365196,10.5102826 L197.14457,10.0469668 C196.130129,7.91664145 194.97766,5.92198294 193.690537,4.02915501 L193.364702,3.54998692 L196.442026,2.06261409 L196.682485,2.43037532 Z M204.972,15.02 L204.972,15.52 L204.971817,19.8535086 C204.86081,23.9607948 204.000558,27.2445504 202.365959,29.6964241 C200.802459,32.0044483 198.215413,33.8004912 194.635264,35.1057537 L194.254117,35.2447136 L192.345204,32.1804054 L192.925543,31.9699527 C196.104847,30.8170184 198.324666,29.293613 199.541231,27.4701538 C200.689641,25.5213359 201.310353,22.9685489 201.38,19.84 L201.38,15.02 L204.972,15.02 Z M205.714188,26.2022356 C208.758926,27.8163134 211.527957,29.7902757 213.994682,32.1119 L214.297847,32.3972311 L212.296387,35.4994937 L211.858447,35.0615534 C209.309455,32.5125621 206.648761,30.4857917 203.946605,29.0280495 L203.463468,28.7674099 L205.314751,25.9904857 L205.714188,26.2022356 Z M180.896,18.072 L180.896,14.552 L185.036,14.552 L185.036,6.984 L180.428,6.984 L180.428,3.5 L193.236,3.5 L193.236,6.984 L188.7,6.984 L188.7,14.552 L192.732,14.552 L192.732,18.072 L188.7,18.072 L188.7,24.9162927 C190.079748,24.4677764 191.432714,23.9659401 192.758931,23.4107795 L193.452,23.1206576 L193.452,26.6945165 L193.137695,26.8202383 C189.562047,28.2504977 185.661032,29.4515046 181.401349,30.4429825 L180.920599,30.5548813 L180.062306,27.0712242 L180.590329,26.9793941 C182.102761,26.7163625 183.584638,26.3927662 185.036,26.0086173 L185.036,18.072 L180.896,18.072 Z M234.172,7.316 L234.172,32.868 L230.652,32.868 L230.652,30.816 L225.1,30.816 L225.1,33.912 L221.58,33.912 L221.58,7.316 L225.073437,7.316 C225.708078,5.47061168 226.173673,3.53022403 226.481532,1.47782977 L226.554899,0.988714275 L230.16407,1.48998801 L230.057968,2.01165458 C229.653994,3.99786104 229.17938,5.74645636 228.603064,7.316 L234.172,7.316 Z M230.652,27.404 L230.652,20.52 L225.1,20.52 L225.1,27.404 L230.652,27.404 Z M230.652,17.18 L230.652,10.764 L225.1,10.764 L225.1,17.18 L230.652,17.18 Z M240.313694,15.8403615 C242.831997,18.7434049 244.827246,21.4067874 246.266301,23.754719 L246.511852,24.1553559 L243.642335,26.1690525 L243.363279,25.7198416 C241.901068,23.3660386 239.935002,20.720786 237.465423,17.7859242 L237.093443,17.343861 L240.034424,15.5184248 L240.313694,15.8403615 Z M252.784,7.352 L252.784,7.852 C252.784,19.8383174 252.603531,27.2555755 252.239727,30.0932273 C251.843743,33.1027084 249.953196,34.668 246.704,34.668 C246.369089,34.668 245.939175,34.6540676 245.223963,34.6225141 C245.308068,34.6262246 243.597226,34.5479849 243.011185,34.5235665 L242.640377,34.5081162 L241.766734,31.1163255 L242.443783,31.1485659 C243.954569,31.2205081 245.241149,31.256 246.344,31.256 C247.769387,31.256 248.549064,30.5192408 248.798845,28.9307334 C249.008492,26.974035 249.151361,20.9283262 249.224435,10.8720071 L240.151365,10.872 C239.14347,13.0867548 237.974763,15.066884 236.625179,16.8317251 L236.225295,17.3546501 L234.059777,14.4840797 L234.273133,14.1853809 C236.727647,10.7490619 238.405022,6.51148254 239.336176,1.42594777 L239.421407,0.96045894 L242.981345,1.41171875 L242.873968,1.93965458 C242.459401,3.97794449 242.01311,5.74839258 241.494517,7.352 L252.784,7.352 Z M264.676,15.624 L264.676,7.604 L275.332,7.604 L275.332,6.372 L261.22,6.372 L261.22,3.14 L275.332,3.14 L275.332,0.98 L278.924,0.98 L278.924,3.14 L293.036,3.14 L293.036,6.372 L278.924,6.372 L278.924,7.604 L289.58,7.604 L289.58,15.624 L278.924,15.624 L278.924,16.856 L290.084,16.856 L290.084,21.716 L294.008,21.716 L294.008,24.84 L290.084,24.84 L290.084,29.556 L278.924,29.556 L278.924,31.432 C278.924,33.7269112 277.618093,34.956 275.22,34.956 L270.390274,34.956 L269.618902,31.4591134 L270.289395,31.5094003 C271.87341,31.6282015 273.171892,31.688 274.356,31.688 C275.059586,31.688 275.332,31.435398 275.332,30.82 L275.332,29.556 L263.488,29.556 L263.488,26.468 L275.332,26.468 L275.332,24.84 L260.248,24.84 L260.248,21.716 L275.332,21.716 L275.332,19.944 L263.488,19.944 L263.488,16.856 L275.332,16.856 L275.332,15.624 L264.676,15.624 Z M285.988,10.584 L278.924,10.584 L278.924,12.644 L285.988,12.644 L285.988,10.584 Z M275.332,10.584 L268.268,10.584 L268.268,12.644 L275.332,12.644 L275.332,10.584 Z M278.924,21.716 L286.6,21.716 L286.6,19.944 L278.924,19.944 L278.924,21.716 Z M278.924,24.84 L278.924,26.468 L286.6,26.468 L286.6,24.84 L278.924,24.84 Z M304.571973,13.1030993 L304.186439,13.3377726 L301.986366,10.4376762 L302.478764,10.1545468 C306.739759,7.70447499 309.595134,4.75275316 311.051009,1.28638376 L311.199624,0.932539213 L314.846102,1.4320568 L314.603046,2.02864844 C314.324838,2.7115235 314.003694,3.38216269 313.627473,4.076 L328.968,4.076 L328.968,6.85022343 L328.846182,6.99107597 C326.711249,9.45959221 324.15212,11.5924565 321.170682,13.389257 C324.949115,14.8808766 329.125887,15.8576028 333.702106,16.318517 L334.418832,16.3907052 L332.757053,19.76462 L332.407404,19.7247866 C326.753851,19.0807109 321.692921,17.6601408 317.226884,15.4616285 C312.827933,17.4520363 307.706022,18.9043721 301.940258,19.7941505 L301.575368,19.8504607 L299.925523,16.4507803 L300.607681,16.3566894 C305.371172,15.6996562 309.594738,14.6802248 313.301026,13.2956838 C311.734473,12.3126722 310.237861,11.2089197 308.81534,9.99204102 C307.479193,11.1560872 306.081187,12.1844473 304.571973,13.1030993 Z M323.428531,7.524 L311.245985,7.524 L311.234338,7.53833526 C313.04675,9.07661979 315.043433,10.424566 317.206386,11.5741999 C319.511933,10.4152938 321.591646,9.0579426 323.428531,7.524 Z M314.165956,21.104 C314.391214,19.9608002 314.504,18.7595926 314.504,17.5 L314.504,17 L318.06,17 L318.06,17.5 C318.06,18.6858464 317.965523,19.8721402 317.784545,21.1039998 L330.377952,21.104 L330.371965,21.6099167 C330.297968,27.8626877 329.744165,31.5304983 328.591582,32.8420573 C327.432516,34.1609947 325.489217,34.812 322.816,34.812 C321.886759,34.812 322.046023,34.8181255 318.582281,34.6675281 L318.219141,34.6517394 L317.290791,31.2993645 L317.977167,31.3284483 L322.195668,31.5080694 C324.184485,31.4749225 325.387039,31.0660541 325.848001,30.3750005 C326.29861,29.6540251 326.607059,27.6481301 326.726902,24.444 L316.951878,24.444 C316.676631,25.2575647 316.316226,26.0687396 315.871011,26.8905063 C313.949773,30.2809268 309.610376,33.0381556 302.914318,35.1488696 L302.590448,35.2509589 L300.173064,32.2795908 L300.895551,32.0681313 C306.703864,30.3681371 310.5362,28.222382 312.319975,25.7186499 C312.617757,25.2719774 312.868347,24.8519079 313.075689,24.444 L302.624,24.444 L302.624,21.104 L314.165956,21.104 Z M355.296,0.944 L358.96,0.944 L358.96,7.424 L371.884,7.424 L371.884,25.344 L368.292,25.344 L368.292,23.076 L358.96,23.076 L358.96,35.352 L355.296,35.352 L355.296,23.076 L346,23.076 L346,25.344 L342.408,25.344 L342.408,7.424 L355.296,7.424 L355.296,0.944 Z M355.296,19.556 L355.296,10.944 L346,10.944 L346,19.556 L355.296,19.556 Z M368.292,19.556 L368.292,10.944 L358.96,10.944 L358.96,19.556 L368.292,19.556 Z M381.908616,15.8227077 L381.479941,16.0382562 L379.729803,12.8880079 L380.206554,12.6577587 C386.468832,9.63336311 391.679765,5.85900566 395.824151,1.35734526 L395.972691,1.196 L398.27795,1.196 L398.425678,1.35076213 C402.891309,6.02904211 408.050902,9.71192402 413.934231,12.4383447 L414.424941,12.6657471 L412.633704,15.850169 L412.210929,15.6464222 C406.360501,12.8269389 401.353472,9.21494214 397.13322,4.77180474 C393.213617,9.00746192 388.137782,12.6905281 381.908616,15.8227077 Z M386.584,16.056 L386.584,12.572 L407.672,12.572 L407.672,16.056 L398.96,16.056 L398.96,21.32 L409.364,21.32 L409.364,24.804 L398.96,24.804 L398.96,30.464 L412.64,30.464 L412.64,34.02 L381.652,34.02 L381.652,30.464 L395.296,30.464 L395.296,24.804 L384.856,24.804 L384.856,21.32 L395.296,21.32 L395.296,16.056 L386.584,16.056 Z M420.608,6.048 L420.608,2.528 L453.648,2.528 L453.648,6.048 L439.125238,6.048 C438.88518,7.23939261 438.541378,8.44331954 438.102283,9.656 L451.704,9.656 L451.704,35.208 L448.22,35.208 L448.22,33.408 L426.144,33.408 L426.144,35.208 L422.66,35.208 L422.66,9.656 L434.405728,9.656 C434.877689,8.38151158 435.230108,7.20610823 435.475906,6.04799997 L420.608,6.048 Z M430.112,30.032 L430.112,12.996 L426.144,12.996 L426.144,30.032 L430.112,30.032 Z M440.732,30.032 L440.732,26.424 L433.524,26.424 L433.524,30.032 L440.732,30.032 Z M448.22,30.032 L448.22,12.996 L444.144,12.996 L444.144,30.032 L448.22,30.032 Z M440.732,23.156 L440.732,19.764 L433.524,19.764 L433.524,23.156 L440.732,23.156 Z M440.732,16.46 L440.732,12.996 L433.524,12.996 L433.524,16.46 L440.732,16.46 Z M465.82,19.7 L469.608,19.7 L469.608,14.616 L465.82,14.616 L465.82,19.7 Z M469.608,6.012 L465.82,6.012 L465.82,11.204 L469.608,11.204 L469.608,6.012 Z M462.923214,34.8956068 L462.627769,35.4864952 L459.849955,32.9567003 L460.007929,32.622384 C461.523362,29.4153059 462.30053,25.3440023 462.336,20.38 L462.336,2.564 L473.128,2.564 L473.128,31.648 C473.128,33.7986981 471.859419,34.956 469.568,34.956 L466.484599,34.956 L465.553777,31.491275 L466.258348,31.5454728 C467.8029,31.6642845 468.182349,31.688 468.812,31.688 C469.390523,31.688 469.608,31.4523997 469.608,30.784 L469.608,23.148 L465.717169,23.148 C465.393119,27.9029822 464.475037,31.7919604 462.923214,34.8956068 Z M474.684,21.24 L474.684,8.684 L483.886139,8.684 C485.127379,6.37448703 486.179083,3.96198214 487.058918,1.39015616 L487.222334,0.912478059 L490.631702,2.1157844 L490.446501,2.59593603 C489.579104,4.84474374 488.632755,6.87833439 487.610114,8.684 L491.632,8.684 L491.632,21.24 L487.564,21.24 L487.564,30.64 C487.564,31.1812322 487.690754,31.328 488.108,31.328 L489.764,31.328 C490.139098,31.328 490.36887,31.1922257 490.516212,30.8988694 C490.783331,30.4239909 490.995813,28.7684084 491.100379,26.0845342 L491.126046,25.4257408 L494.355017,26.4673442 L494.331046,26.8548688 C494.108335,30.4553692 493.702593,32.6316202 493.038676,33.5029703 C492.43184,34.2831876 491.45912,34.668 490.196,34.668 L487.352,34.668 C485.268905,34.668 484.188,33.4326806 484.188,31.144 L484.188,21.24 L482.065972,21.24 C481.679943,27.5110615 479.365584,32.1250377 475.104579,35.0138542 L474.679424,35.3020949 L472.731428,32.2552289 L473.147506,31.9847782 C476.487238,29.8139525 478.345505,26.2485789 478.719173,21.24 L474.684,21.24 Z M488.148,12.06 L478.168,12.06 L478.168,17.9 L488.148,17.9 L488.148,12.06 Z M478.541112,1.43894011 C479.705603,3.04867697 480.820735,4.88068035 481.99674,7.07588929 L482.241254,7.53231521 L479.212941,9.02080794 L478.987891,8.58571146 C477.866729,6.4181314 476.766872,4.60249505 475.609912,3.03719553 L475.248863,2.54871777 L478.297352,1.10197734 L478.541112,1.43894011 Z M513.268089,4.112 C513.653278,3.170958 513.964392,2.15958601 514.19155,1.12115156 L514.289898,0.67156151 L518.0096,1.1675218 L517.863117,1.71683133 C517.639128,2.55679228 517.372315,3.35522073 517.062582,4.112 L527.348,4.112 L527.348,19.1276346 C528.718585,17.4228755 529.77957,15.6318951 530.524279,13.7850158 L530.747952,13.2303073 L533.876645,15.1983563 L533.663292,15.607283 C531.938688,18.9127756 529.830431,21.7477749 527.348,24.0888802 L527.348,31.54 C527.348,33.8847351 526.171706,35.172 524.004,35.172 L519.771071,35.172 L518.806344,31.6685164 L519.482557,31.6882119 L523.176,31.796 C523.600116,31.796 523.792,31.5675665 523.792,30.964 L523.792,26.9724534 C523.193322,27.3983645 522.715345,27.7227983 522.20647,28.0464007 C517.242096,30.9815418 511.006479,33.096387 503.498074,34.4085355 L503.128931,34.4730461 L501.517196,31.1992095 L502.173215,31.0835892 C510.958591,29.5352088 517.44346,27.3211198 521.596657,24.48 L501.544,24.48 L501.544,21.104 L505.864,21.104 L505.864,4.112 L513.268089,4.112 Z M523.792,21.104 L523.792,18.468 L509.456,18.468 L509.456,21.104 L523.792,21.104 Z M523.792,15.236 L523.792,12.996 L509.456,12.996 L509.456,15.236 L523.792,15.236 Z M523.792,9.8 L523.792,7.416 L509.456,7.416 L509.456,9.8 L523.792,9.8 Z" id="帮HR从繁琐的事务中全面脱身" fill="#333333"></path>
                <rect id="矩形" fill="#FFFFFF" opacity="0" x="0" y="0" width="536" height="36"></rect>
            </g>
        </g>
    </g>
</svg>