<?xml version="1.0" encoding="utf-8"?>
<!-- Generator: Adobe Illustrator 22.1.0, SVG Export Plug-In . SVG Version: 6.00 Build 0)  -->
<svg version="1.1" id="图层_1" xmlns="http://www.w3.org/2000/svg" xmlns:xlink="http://www.w3.org/1999/xlink" x="0px" y="0px"
	 viewBox="0 0 12 12" style="enable-background:new 0 0 12 12;" xml:space="preserve">
<style type="text/css">
	.st0{fill:#FFFFFF;}
</style>
<path class="st0" d="M6,11c2.8,0,5-2.2,5-5S8.8,1,6,1S1,3.2,1,6S3.2,11,6,11z M6,12c-3.3,0-6-2.7-6-6s2.7-6,6-6s6,2.7,6,6
	S9.3,12,6,12z M5.2,3.9L8,5.6C8.3,5.7,8.3,6,8.2,6.3c0,0.1-0.1,0.1-0.2,0.2L5.2,8.1C5,8.3,4.7,8.2,4.5,7.9c0-0.1-0.1-0.2-0.1-0.3
	V4.3C4.5,4,4.7,3.8,5,3.8C5,3.8,5.1,3.8,5.2,3.9z"/>
</svg>
