<?xml version="1.0" encoding="UTF-8"?>
<svg width="580px" height="70px" viewBox="0 0 580 70" version="1.1" xmlns="http://www.w3.org/2000/svg" xmlns:xlink="http://www.w3.org/1999/xlink">
    <!-- Generator: Sketch 52.6 (67491) - http://www.bohemiancoding.com/sketch -->
    <title>slogan</title>
    <desc>Created with Sketch.</desc>
    <g id="页面" stroke="none" stroke-width="1" fill="none" fill-rule="evenodd">
        <g id="1-首页" transform="translate(-430.000000, -168.000000)" fill="#FFFFFF">
            <g id="slogan" transform="translate(430.000000, 168.000000)">
                <path d="M26.4393412,40.0380095 L26.4393412,34.4080095 L53.0393412,34.4080095 L53.0393412,27.3380095 L58.8793412,27.3380095 L58.8793412,34.4080095 L67.3493412,34.4080095 L67.3493412,40.0380095 L58.8793412,40.0380095 L58.8793412,58.5380095 C58.8793412,62.9648999 56.4546909,65.2380095 51.7593412,65.2380095 L42.126955,65.2380095 L40.8951841,59.5718634 L41.4271805,59.6089794 C44.7517176,59.8409239 47.4948657,59.9580095 50.0093412,59.9580095 C52.045511,59.9580095 53.0393412,59.0695856 53.0393412,57.2780095 L53.0393412,40.0380095 L26.4393412,40.0380095 Z M17.1993412,0.458009488 L23.1093412,0.458009488 L23.1093412,65.3780095 L17.1993412,65.3780095 L17.1993412,42.7284463 C12.8810726,46.7319013 8.81250894,49.9892686 5.00984407,52.5017436 L4.62202762,52.7579795 L2.03515849,47.1800429 L2.34354286,46.9950123 C6.3128767,44.613412 11.1037878,40.8997331 17.1993411,35.5372303 L17.1993412,0.458009488 Z M36.0240022,42.237501 C39.8773836,46.4349342 42.8642764,50.1773352 45.0243854,53.4895024 L45.2338298,53.8106505 L40.654379,57.0816868 L40.4293801,56.7187854 C38.2815497,53.2545428 35.360819,49.3544054 31.7149351,45.0775032 L31.4135752,44.7239848 L35.7996005,41.9930634 L36.0240022,42.237501 Z M28.7743676,20.3226434 L28.4864102,20.4728821 L24.7407953,15.9130031 L25.1917723,15.6895834 C32.7044134,11.9677245 37.7670533,6.93964177 40.4002305,0.633875369 L40.5251541,0.334716351 L46.5132735,1.46760381 L46.3169992,1.92557721 C45.7911726,3.15250586 45.2017512,4.3677759 44.521589,5.63800917 L64.6893412,5.63800949 L64.6893412,10.3780095 L64.6619511,10.5234805 C60.6133098,20.8936846 49.4374896,28.1730223 31.2685121,32.3279435 L30.9772112,32.3945588 L28.0446558,27.181127 L28.5751915,27.0669611 C33.7045561,25.9631738 38.3381975,24.5944716 42.4813703,22.9793694 C40.5770194,21.2341388 38.5737582,19.6409913 36.3378424,18.0542123 L35.8951313,17.7400303 L40.1337379,14.498743 L40.3751288,14.6748931 C42.8991211,16.5167254 45.2909742,18.4909468 47.5506123,20.5975158 C52.3285343,17.942686 55.8624408,14.7480734 58.1281748,11.0580095 L40.8112213,11.0580095 C37.5836274,14.7396463 33.5955374,17.8072505 28.7743676,20.3226434 Z M7.28839215,8.82057719 C10.5250095,13.5033428 13.3516012,18.6122755 15.7952567,24.1464364 L15.9608221,24.5213935 L10.80714,26.6483099 L10.6516832,26.2855772 C8.14237989,20.4305363 5.355918,15.3452433 2.29313831,11.0295083 L2,10.6164498 L7.10648006,8.55738523 L7.28839215,8.82057719 Z M105.935169,16.530709 C108.22705,20.0727066 110.406255,23.9952764 112.539405,28.4037851 L112.711381,28.759203 L107.646522,31.2916328 L107.475,30.9131016 C105.531875,26.6248259 103.332783,22.7114811 100.858571,19.0729335 L100.596368,18.6873414 L105.744407,16.2358943 L105.935169,16.530709 Z M91.9693412,36.8180095 L91.9693412,31.1880095 L119.899341,31.1880095 L119.899341,14.4180095 L94.6993412,14.4180095 L94.6993412,8.78800949 L119.899341,8.78800949 L119.899341,0.738009488 L125.879341,0.738009488 L125.879341,8.78800949 L151.639341,8.78800949 L151.639341,14.4180095 L125.879341,14.4180095 L125.879341,31.1880095 L132.247242,31.1880095 C134.857245,26.6060239 137.132243,21.5428179 139.102322,15.9843823 L139.236271,15.6064539 L144.904039,17.6306569 L144.751082,18.0156874 C142.828391,22.8555637 140.640698,27.2326678 138.174514,31.1880095 L153.669341,31.1880095 L153.669341,36.8180095 L130.617788,36.8180095 C135.573432,44.4498425 143.830699,51.2789837 155.414866,57.3436361 L155.842369,57.5674464 L151.892552,62.5651737 L151.589595,62.3786067 C139.526605,54.9499858 130.954041,46.6526693 125.879341,37.4826376 L125.879341,65.3080095 L119.899341,65.3080095 L119.899341,37.3263025 C115.284249,47.0217541 106.459355,55.3801025 93.3999737,62.4596617 L93.0694211,62.6388559 L89.8359468,57.4652969 L90.2320511,57.2694454 C102.468718,51.2190936 110.753198,44.395239 115.070056,36.8180095 L91.9693412,36.8180095 Z M188.629341,58.7980095 C187.341155,58.7980095 186.257293,58.3416464 185.336498,57.4208522 C184.426827,56.5111805 183.959341,55.3619451 183.959341,54.0580095 C183.959341,52.6203966 184.422508,51.462479 185.336498,50.6251668 C186.239868,49.7217976 187.377816,49.3180095 188.909341,49.3180095 C190.610814,49.3180095 192.04601,50.0356078 193.083613,51.4438133 C194.064409,52.8018393 194.559341,54.5066041 194.559341,56.5780095 C194.559341,59.7451893 193.62084,62.5606942 191.739787,65.0202465 C189.869083,67.3226508 187.347835,68.9121333 184.320685,69.7049584 L183.819341,69.8362627 L183.819341,65.6031844 L184.088497,65.5100151 C185.812852,64.913123 187.228409,63.9188629 188.303848,62.5755142 C189.17892,61.3504136 189.651196,60.0719713 189.749772,58.678459 C189.41994,58.7538772 189.032259,58.7980095 188.629341,58.7980095 Z M293.749341,57.6280095 C293.749341,62.3827714 291.416219,64.8880095 286.979341,64.8880095 L275.670454,64.8880095 L274.363078,59.1682421 L274.884714,59.188305 C280.738501,59.4134506 282.529849,59.4680095 285.229341,59.4680095 C286.964503,59.4680095 287.839341,58.4574207 287.839341,56.3680095 L287.839341,18.9680095 L286.185788,18.9680095 C279.421558,33.6246584 267.858883,45.5846906 251.476996,54.8957631 L251.142976,55.0856121 L248.056767,50.1314348 L248.426197,49.9277307 C263.132132,41.8188506 273.743151,31.4937166 280.235253,18.9680095 L249.409341,18.9680095 L249.409341,13.3380095 L287.839341,13.3380095 L287.839341,0.528009488 L293.749341,0.528009488 L293.749341,13.3380095 L311.319341,13.3380095 L311.319341,18.9680095 L293.749341,18.9680095 L293.749341,57.6280095 Z M358.789341,33.2880095 L385.779341,33.2880095 L385.779341,26.4580095 L358.789341,26.4580095 L358.789341,33.2880095 Z M358.789341,38.4980095 L358.789341,45.1180095 L385.779341,45.1180095 L385.779341,38.4980095 L358.789341,38.4980095 Z M358.789341,50.3280095 L358.789341,65.3080095 L353.229341,65.3080095 L353.229341,29.4261029 C349.455687,34.0149568 345.13041,38.2849565 340.370273,42.1195111 L340.051959,42.3759306 L336.271833,37.4698092 L336.580678,37.2246939 C345.16269,30.4135735 351.814049,22.6711302 356.598151,13.9280095 L338.319341,13.9280095 L338.319341,8.22800949 L359.316986,8.22800949 C360.51977,5.44930533 361.502206,2.83855163 362.27703,0.320375148 L362.375607,0 L368.299371,0.730327142 L368.14983,1.19141137 C367.153062,4.26478102 366.459818,6.27873115 365.697687,8.22800949 L400.299341,8.22800949 L400.299341,13.9280095 L363.25633,13.9280095 C361.829727,16.7695899 360.54252,19.1059781 359.190186,21.2480095 L391.339341,21.2480095 L391.339341,59.4480095 C391.339341,63.0978203 389.207694,65.020109 385.059341,65.1680095 L376.913823,65.1680095 L375.427861,59.7194832 L375.980365,59.7485624 C380.23756,59.9726253 381.557551,60.0280095 383.449341,60.0280095 C385.055261,60.0280095 385.779341,59.3596277 385.779341,57.9080095 L385.779341,50.3280095 L358.789341,50.3280095 Z M448.439341,40.0380095 L448.439341,34.4080095 L475.039341,34.4080095 L475.039341,27.3380095 L480.879341,27.3380095 L480.879341,34.4080095 L489.349341,34.4080095 L489.349341,40.0380095 L480.879341,40.0380095 L480.879341,58.5380095 C480.879341,62.9648999 478.454691,65.2380095 473.759341,65.2380095 L464.126955,65.2380095 L462.895184,59.5718634 L463.42718,59.6089794 C466.751718,59.8409239 469.494866,59.9580095 472.009341,59.9580095 C474.045511,59.9580095 475.039341,59.0695856 475.039341,57.2780095 L475.039341,40.0380095 L448.439341,40.0380095 Z M439.199341,0.458009488 L445.109341,0.458009488 L445.109341,65.3780095 L439.199341,65.3780095 L439.199341,42.7284463 C434.881073,46.7319013 430.812509,49.9892686 427.009844,52.5017436 L426.622028,52.7579795 L424.035158,47.1800429 L424.343543,46.9950123 C428.312877,44.613412 433.103788,40.8997331 439.199341,35.5372303 L439.199341,0.458009488 Z M458.024002,42.237501 C461.877384,46.4349342 464.864276,50.1773352 467.024385,53.4895024 L467.23383,53.8106505 L462.654379,57.0816868 L462.42938,56.7187854 C460.28155,53.2545428 457.360819,49.3544054 453.714935,45.0775032 L453.413575,44.7239848 L457.7996,41.9930634 L458.024002,42.237501 Z M450.774368,20.3226434 L450.48641,20.4728821 L446.740795,15.9130031 L447.191772,15.6895834 C454.704413,11.9677245 459.767053,6.93964177 462.400231,0.633875369 L462.525154,0.334716351 L468.513273,1.46760381 L468.316999,1.92557721 C467.791173,3.15250586 467.201751,4.3677759 466.521589,5.63800917 L486.689341,5.63800949 L486.689341,10.3780095 L486.661951,10.5234805 C482.61331,20.8936846 471.43749,28.1730223 453.268512,32.3279435 L452.977211,32.3945588 L450.044656,27.181127 L450.575192,27.0669611 C455.704556,25.9631738 460.338197,24.5944716 464.48137,22.9793694 C462.577019,21.2341388 460.573758,19.6409913 458.337842,18.0542123 L457.895131,17.7400303 L462.133738,14.498743 L462.375129,14.6748931 C464.899121,16.5167254 467.290974,18.4909468 469.550612,20.5975158 C474.328534,17.942686 477.862441,14.7480734 480.128175,11.0580095 L462.811221,11.0580095 C459.583627,14.7396463 455.595537,17.8072505 450.774368,20.3226434 Z M429.288392,8.82057719 C432.52501,13.5033428 435.351601,18.6122755 437.795257,24.1464364 L437.960822,24.5213935 L432.80714,26.6483099 L432.651683,26.2855772 C430.14238,20.4305363 427.355918,15.3452433 424.293138,11.0295083 L424,10.6164498 L429.10648,8.55738523 L429.288392,8.82057719 Z M527.935169,16.530709 C530.22705,20.0727066 532.406255,23.9952764 534.539405,28.4037851 L534.711381,28.759203 L529.646522,31.2916328 L529.475,30.9131016 C527.531875,26.6248259 525.332783,22.7114811 522.858571,19.0729335 L522.596368,18.6873414 L527.744407,16.2358943 L527.935169,16.530709 Z M513.969341,36.8180095 L513.969341,31.1880095 L541.899341,31.1880095 L541.899341,14.4180095 L516.699341,14.4180095 L516.699341,8.78800949 L541.899341,8.78800949 L541.899341,0.738009488 L547.879341,0.738009488 L547.879341,8.78800949 L573.639341,8.78800949 L573.639341,14.4180095 L547.879341,14.4180095 L547.879341,31.1880095 L554.247242,31.1880095 C556.857245,26.6060239 559.132243,21.5428179 561.102322,15.9843823 L561.236271,15.6064539 L566.904039,17.6306569 L566.751082,18.0156874 C564.828391,22.8555637 562.640698,27.2326678 560.174514,31.1880095 L575.669341,31.1880095 L575.669341,36.8180095 L552.617788,36.8180095 C557.573432,44.4498425 565.830699,51.2789837 577.414866,57.3436361 L577.842369,57.5674464 L573.892552,62.5651737 L573.589595,62.3786067 C561.526605,54.9499858 552.954041,46.6526693 547.879341,37.4826376 L547.879341,65.3080095 L541.899341,65.3080095 L541.899341,37.3263025 C537.284249,47.0217541 528.459355,55.3801025 515.399974,62.4596617 L515.069421,62.6388559 L511.835947,57.4652969 L512.232051,57.2694454 C524.468718,51.2190936 532.753198,44.395239 537.070056,36.8180095 L513.969341,36.8180095 Z" id="将来，才有将来-copy"></path>
                <rect id="矩形" fill-rule="nonzero" opacity="0" x="0" y="0" width="580" height="70"></rect>
            </g>
        </g>
    </g>
</svg>