<?xml version="1.0" encoding="UTF-8"?>
<svg width="80px" height="32px" viewBox="0 0 80 32" version="1.1" xmlns="http://www.w3.org/2000/svg" xmlns:xlink="http://www.w3.org/1999/xlink">
    <!-- Generator: Sketch 52.6 (67491) - http://www.bohemiancoding.com/sketch -->
    <title>jiang</title>
    <desc>Created with Sketch.</desc>
    <g id="页面" stroke="none" stroke-width="1" fill="none" fill-rule="evenodd">
        <g id="1-首页" transform="translate(-432.000000, -120.000000)" fill="#FFFFFF">
            <g id="jiang" transform="translate(432.000000, 120.000000)">
                <path d="M8.736,11.864 L10.704,11.864 L10.704,23.528 C10.704,25.4 10.32,26.792 9.552,27.752 C8.688,28.808 7.296,29.336 5.4,29.336 C3.792,29.336 2.568,28.88 1.704,28.016 C0.792,27.104 0.36,25.808 0.36,24.128 L0.36,23.528 L2.328,23.528 L2.328,24.104 C2.328,26.408 3.36,27.584 5.448,27.584 C6.6,27.584 7.44,27.224 7.968,26.552 C8.472,25.904 8.736,24.872 8.736,23.456 L8.736,11.864 Z M16.28,11.864 L18.224,11.864 L18.224,29 L16.28,29 L16.28,11.864 Z M28.84,11.864 L31.12,11.864 L37.864,29 L35.728,29 L33.904,24.2 L26.032,24.2 L24.208,29 L22.096,29 L28.84,11.864 Z M26.656,22.544 L33.28,22.544 L30.04,13.976 L29.944,13.976 L26.656,22.544 Z M41.592,11.864 L43.656,11.864 L53.352,25.808 L53.424,25.808 L53.424,11.864 L55.392,11.864 L55.392,29 L53.376,29 L43.632,14.912 L43.56,14.912 L43.56,29 L41.592,29 L41.592,11.864 Z M68.168,11.528 C70.304,11.528 72.008,12.032 73.28,13.088 C74.48,14.072 75.224,15.488 75.536,17.36 L73.568,17.36 C73.304,16.064 72.728,15.08 71.84,14.384 C70.904,13.64 69.68,13.28 68.168,13.28 C66.296,13.28 64.832,13.928 63.728,15.248 C62.624,16.544 62.096,18.296 62.096,20.504 C62.096,22.664 62.624,24.368 63.68,25.616 C64.808,26.936 66.488,27.608 68.72,27.608 C69.656,27.608 70.544,27.464 71.408,27.224 C72.248,26.984 72.968,26.648 73.568,26.264 L73.568,21.896 L68.192,21.896 L68.192,20.192 L75.512,20.192 L75.512,27.2 C74.696,27.872 73.688,28.376 72.512,28.76 C71.264,29.144 69.944,29.336 68.528,29.336 C65.816,29.336 63.704,28.472 62.216,26.744 C60.824,25.136 60.128,23.048 60.128,20.504 C60.128,17.96 60.8,15.872 62.192,14.216 C63.656,12.416 65.648,11.528 68.168,11.528 Z" id="JIANG"></path>
                <polygon id="矩形" fill-rule="nonzero" points="24 1.22746208 25.3966992 0 30 5.95727652 29.2146605 7"></polygon>
                <rect id="矩形" fill-rule="nonzero" opacity="0" x="0" y="0" width="80" height="32"></rect>
            </g>
        </g>
    </g>
</svg>