<?xml version="1.0" encoding="UTF-8"?>
<svg width="380px" height="22px" viewBox="0 0 380 22" version="1.1" xmlns="http://www.w3.org/2000/svg" xmlns:xlink="http://www.w3.org/1999/xlink">
    <!-- Generator: Sketch 52.6 (67491) - http://www.bohemiancoding.com/sketch -->
    <title>slogan_small</title>
    <desc>Created with Sketch.</desc>
    <g id="页面" stroke="none" stroke-width="1" fill="none" fill-rule="evenodd">
        <g id="1-首页" transform="translate(-530.000000, -268.000000)" fill="#FFFFFF">
            <g id="slogan_small" transform="translate(530.000000, 268.000000)">
                <path d="M0,6.99898683 L6.36774262,6.99898683 C6.6126558,6.08510638 6.83530414,5.17122594 7.05795249,4.23505572 L1.51400874,4.23505572 L1.51400874,2.74164134 L7.391925,2.74164134 C7.59230851,1.82776089 7.77042719,0.936170213 7.94854586,0.0445795339 L9.5961436,0.178318136 C9.41802493,1.06990881 9.26217109,1.93920973 9.08405241,2.74164134 L18.680196,2.74164134 L18.680196,4.23505572 L8.7500799,4.23505572 C8.52743155,5.21580547 8.30478321,6.12968592 8.08213487,6.99898683 L19.9938212,6.99898683 L19.9938212,8.55927052 L7.65910301,8.55927052 C7.34739533,9.60688956 7.01342282,10.5876393 6.70171514,11.5015198 L17.2997763,11.5015198 L17.2997763,12.8834853 C16.2310642,14.5329281 14.5612017,16.2046606 12.2679237,17.8541033 C13.6038138,18.3444782 14.8951742,18.9017224 16.1197401,19.4812563 L15.2291467,20.8855117 C11.8894215,19.2360689 8.43837222,17.9432624 4.89826356,16.9848024 L5.74432726,15.7365755 C7.41418984,16.1823708 9.01725791,16.6950355 10.5535315,17.2299899 C12.6018962,15.8926039 14.2272291,14.4660588 15.4072654,12.9949341 L4.4084372,12.9949341 C4.94279322,11.5683891 5.45488441,10.0972644 5.92244594,8.55927052 L0,8.55927052 L0,6.99898683 Z M37.7813998,11.9473151 C37.3361031,12.0810537 36.8685416,12.2147923 36.4232449,12.3262411 C36.7794823,13.4184397 36.9798658,14.5775076 37.0021306,15.8034448 C37.0021306,17.5643364 36.7572174,18.7902736 36.2896559,19.4589666 C35.7552999,20.2168186 34.5084692,20.6180344 32.5936934,20.6180344 L31.836689,20.6180344 L31.302333,19.2137791 L32.3710451,19.2137791 C33.6846703,19.1914894 34.5084692,18.9908815 34.8424417,18.6119554 C35.2432087,18.1215805 35.4435922,17.1854103 35.4435922,15.8034448 C35.4213274,15.402229 35.3990625,15.0455927 35.3545329,14.6889564 C32.8608714,16.6504559 29.6102056,18.2330294 25.5802706,19.4589666 L24.7787366,18.077001 C29.1871738,16.7841945 32.6159582,15.1570415 35.0428252,13.1509625 C34.8647065,12.5714286 34.664323,12.0141844 34.397145,11.47923 C32.3042506,13.1286727 29.4543518,14.4660588 25.8474486,15.491388 L25.0459146,14.1094225 C28.7864067,13.1286727 31.6808352,11.8804458 33.7069351,10.3201621 C33.4397571,9.89665653 33.1280494,9.5177305 32.8163417,9.16109422 C32.6382231,9.25025329 32.4823692,9.31712259 32.3265154,9.40628166 C30.7902418,10.1195542 28.7641419,10.8328267 26.2704805,11.5460993 L25.4466816,10.231003 C27.5841057,9.76291793 29.5211463,9.16109422 31.2355385,8.42553191 C32.0370725,8.06889564 32.8163417,7.71225937 33.5288164,7.31104357 L27.6286353,7.31104357 L27.6286353,5.81762918 L40.9652711,5.81762918 L40.9652711,7.31104357 L35.8666241,7.31104357 C35.2432087,7.73454914 34.6420582,8.13576494 34.0409076,8.49240122 C34.8201768,9.29483283 35.4435922,10.1641337 35.9111537,11.100304 C37.9817833,10.52077 39.9410887,9.62917933 41.8113348,8.40324215 L42.9023117,9.49544073 C41.7222755,10.2755826 40.4531799,10.9442756 39.0727602,11.47923 C40.1192074,14.2877406 41.8335997,16.5167173 44.1936721,18.1884498 L43.0581655,19.5035461 C40.6090338,17.5197568 38.8501119,15.0010132 37.7813998,11.9473151 Z M34.5529988,0.0445795339 C34.8201768,0.668693009 35.06509,1.38196555 35.3100032,2.1621074 L43.6815809,2.1621074 L43.6815809,6.04052685 L42.1007777,6.04052685 L42.1007777,3.65552178 L26.470864,3.65552178 L26.470864,6.04052685 L24.8900607,6.04052685 L24.8900607,2.1621074 L33.7069351,2.1621074 C33.4620219,1.49341439 33.1948439,0.869300912 32.9276659,0.334346505 L34.5529988,0.0445795339 Z M62.86982,7.0212766 L64.3838287,7.0212766 L64.3838287,11.8804458 L69.2375626,11.8804458 L69.2375626,13.3961499 L64.3838287,13.3961499 L64.3838287,18.2776089 L62.86982,18.2776089 L62.86982,13.3961499 L57.9938212,13.3961499 L57.9938212,11.8804458 L62.86982,11.8804458 L62.86982,7.0212766 Z M88.0695643,2.4964539 L90.1847236,2.4964539 L96.441142,18.4113475 L94.4595717,18.4113475 L92.7674443,13.9533941 L85.4645787,13.9533941 L83.7724513,18.4113475 L81.8131458,18.4113475 L88.0695643,2.4964539 Z M86.0434644,12.4154002 L92.1885586,12.4154002 L89.182806,4.45795339 L89.0937467,4.45795339 L86.0434644,12.4154002 Z M100.201875,2.4964539 L102.005327,2.4964539 L102.005327,18.4113475 L100.201875,18.4113475 L100.201875,2.4964539 Z M121.193566,7.0212766 L122.707574,7.0212766 L122.707574,11.8804458 L127.561308,11.8804458 L127.561308,13.3961499 L122.707574,13.3961499 L122.707574,18.2776089 L121.193566,18.2776089 L121.193566,13.3961499 L116.317567,13.3961499 L116.317567,11.8804458 L121.193566,11.8804458 L121.193566,7.0212766 Z M154.787152,5.14893617 L154.49771,6.30800405 C155.05433,8.91590679 155.766805,11.1671733 156.657399,13.0395137 C157.525727,10.7882472 157.993289,8.15805471 158.082348,5.14893617 L154.787152,5.14893617 Z M155.922659,14.6443769 C155.05433,12.9280648 154.319591,10.9665653 153.71844,8.73758865 C153.317673,9.76291793 152.872377,10.6767984 152.404815,11.47923 L151.402898,10.2532928 C152.716523,7.75683891 153.607116,4.39108409 154.052413,0.156028369 L155.610951,0.423505572 C155.477362,1.56028369 155.299244,2.6301925 155.121125,3.61094225 L160.999041,3.61094225 L160.999041,5.14893617 L159.551827,5.14893617 C159.440503,8.87132725 158.750293,12.0587639 157.503462,14.6889564 C158.661234,16.6950355 160.019389,18.2330294 161.622457,19.325228 L160.754128,20.6403242 C159.19559,19.5258359 157.8597,18.0101317 156.746458,16.1377913 C155.677746,17.9209726 154.297326,19.414387 152.627464,20.6180344 L151.803665,19.2806484 C153.540322,18.077001 154.898477,16.5390071 155.922659,14.6443769 Z M145.369128,10.5653495 L146.860871,10.7436677 C146.705018,11.1671733 146.549164,11.5683891 146.415575,11.9696049 L151.068925,11.9696049 L151.068925,13.2847011 C150.579099,14.7558257 149.7553,16.0263425 148.597528,17.0962513 C149.666241,17.5866261 150.690423,18.077001 151.670076,18.6119554 L150.801747,19.8601824 C149.822094,19.2806484 148.686588,18.6788247 147.372963,18.0992908 C145.903484,19.1246201 144.055502,19.9493414 141.829019,20.5734549 L141.072014,19.2360689 C142.897731,18.745694 144.478534,18.1438703 145.769895,17.408308 C144.790242,16.9848024 143.766059,16.5612969 142.675083,16.1600811 C143.253968,15.1793313 143.766059,14.2654509 144.211356,13.3738602 L141.584106,13.3738602 L141.584106,11.9696049 L144.834771,11.9696049 C145.035155,11.47923 145.213274,11.0111449 145.369128,10.5653495 Z M147.128049,16.4721378 C148.241291,15.5805471 149.087355,14.5329281 149.621711,13.3738602 L145.792159,13.3738602 C145.435922,14.1317123 145.035155,14.8449848 144.589858,15.5136778 C145.480452,15.8257345 146.326515,16.1377913 147.128049,16.4721378 Z M143.343028,0.624113475 C143.877384,1.49341439 144.32268,2.4295846 144.723447,3.41033435 L143.565676,3.94528875 C143.098114,2.85309017 142.608288,1.89463019 142.073932,1.04761905 L143.343028,0.624113475 Z M150.111537,0.557244174 L151.269309,1.09219858 C150.824012,2.07294833 150.267391,3.03140831 149.554916,3.96757852 L148.41941,3.38804458 C149.131885,2.4295846 149.71077,1.49341439 150.111537,0.557244174 Z M141.628635,4.48024316 L145.970278,4.48024316 L145.970278,0.22289767 L147.462022,0.22289767 L147.462022,4.48024316 L151.514222,4.48024316 L151.514222,5.88449848 L147.462022,5.88449848 L147.462022,6.12968592 C148.664323,6.73150963 149.911154,7.4224924 151.157984,8.18034448 L150.334186,9.42857143 C149.220944,8.53698075 148.263556,7.82370821 147.462022,7.2887538 L147.462022,10.1864235 L145.970278,10.1864235 L145.970278,5.95136778 C145.235539,7.71225937 143.899648,9.22796353 141.984873,10.52077 L141.205603,9.22796353 C142.919996,8.22492401 144.122297,7.11043566 144.790242,5.88449848 L141.628635,5.88449848 L141.628635,4.48024316 Z M168.077234,20.4397163 L166.184724,20.4397163 L165.850751,18.9240122 C166.429637,18.9908815 167.008522,19.035461 167.542878,19.035461 C168.099499,19.035461 168.388942,18.7011145 168.388942,18.077001 L168.388942,12.6160081 C167.498349,12.9503546 166.63002,13.2624113 165.761692,13.5298886 L165.360925,11.9696049 C166.385107,11.7244174 167.409289,11.4123607 168.388942,11.0557244 L168.388942,6.01823708 L165.717162,6.01823708 L165.717162,4.48024316 L168.388942,4.48024316 L168.388942,0.267477204 L169.947481,0.267477204 L169.947481,4.48024316 L172.084905,4.48024316 L172.084905,6.01823708 L169.947481,6.01823708 L169.947481,10.4093212 C170.659955,10.0972644 171.350165,9.76291793 172.01811,9.40628166 L172.01811,10.9888551 C171.3279,11.3454914 170.63769,11.6575481 169.947481,11.9696049 L169.947481,18.4782168 C169.947481,19.7710233 169.324065,20.4397163 168.077234,20.4397163 Z M174.73442,10.5876393 C174.467242,14.3991895 173.598913,17.7426545 172.129434,20.6403242 L170.882604,19.5258359 C172.463407,16.5835866 173.264941,12.7497467 173.287206,8.06889564 L173.287206,1.09219858 L185.020773,1.09219858 L185.020773,6.50861196 L180.834985,6.50861196 L180.834985,9.13880446 L185.599659,9.13880446 L185.599659,10.5876393 L180.834985,10.5876393 L180.834985,13.3292806 L184.575477,13.3292806 L184.575477,20.6403242 L183.083733,20.6403242 L183.083733,19.5481256 L177.049963,19.5481256 L177.049963,20.6403242 L175.558219,20.6403242 L175.558219,13.3292806 L179.276446,13.3292806 L179.276446,10.5876393 L174.73442,10.5876393 Z M179.276446,6.50861196 L174.845744,6.50861196 L174.845744,8.06889564 C174.845744,8.42553191 174.823479,8.78216819 174.823479,9.13880446 L179.276446,9.13880446 L179.276446,6.50861196 Z M177.049963,18.1215805 L183.083733,18.1215805 L183.083733,14.7558257 L177.049963,14.7558257 L177.049963,18.1215805 Z M183.462235,2.58561297 L174.845744,2.58561297 L174.845744,5.0597771 L183.462235,5.0597771 L183.462235,2.58561297 Z M192.855971,15.7588652 C193.345797,15.7588652 193.768829,15.9594732 194.080537,16.3829787 C194.36998,16.7841945 194.525834,17.2968592 194.525834,17.9432624 C194.525834,18.9240122 194.236391,19.7933131 193.657505,20.5511651 C193.078619,21.2644377 192.29935,21.7548126 191.364227,22 L191.364227,20.9078014 C191.943113,20.7071935 192.410674,20.372847 192.766912,19.9270517 C193.100884,19.4589666 193.256738,18.9685917 193.256738,18.4336373 C193.167679,18.4782168 192.98956,18.5227964 192.766912,18.5227964 C192.38841,18.5227964 192.076702,18.3890578 191.809524,18.1215805 C191.542346,17.8541033 191.408757,17.5197568 191.408757,17.1408308 C191.408757,16.7173252 191.542346,16.3829787 191.809524,16.1377913 C192.076702,15.8703141 192.410674,15.7588652 192.855971,15.7588652 Z M215.497283,1.53799392 L232.841589,1.53799392 L232.841589,3.09827761 L229.123362,3.09827761 L229.123362,9.00506586 L233.999361,9.00506586 L233.999361,10.5430598 L229.123362,10.5430598 L229.123362,20.4174265 L227.498029,20.4174265 L227.498029,10.5430598 L221.063492,10.5430598 C220.863109,12.8389058 220.440077,14.733536 219.772132,16.2492401 C218.926068,18.1215805 217.523383,19.5704154 215.564078,20.5957447 L214.695749,19.2137791 C216.499201,18.1884498 217.768297,16.8287741 218.480771,15.1347518 C218.948333,13.8419453 219.26004,12.3262411 219.438159,10.5430598 L214.294982,10.5430598 L214.294982,9.00506586 L219.527218,9.00506586 C219.527218,8.71529889 219.549483,8.44782168 219.549483,8.22492401 L219.549483,3.09827761 L215.497283,3.09827761 L215.497283,1.53799392 Z M221.197081,3.09827761 L221.197081,8.22492401 C221.197081,8.49240122 221.174816,8.75987842 221.174816,9.00506586 L227.498029,9.00506586 L227.498029,3.09827761 L221.197081,3.09827761 Z M256.729733,12.147923 L256.729733,20.7294833 L255.171194,20.7294833 L255.171194,19.5704154 L245.374667,19.5704154 L245.374667,20.7294833 L243.816129,20.7294833 L243.816129,12.147923 L256.729733,12.147923 Z M245.374667,18.0547112 L255.171194,18.0547112 L255.171194,13.6636272 L245.374667,13.6636272 L245.374667,18.0547112 Z M255.393843,4.12360689 L242.368914,4.12360689 L242.368914,7.6231003 L255.393843,7.6231003 L255.393843,4.12360689 Z M242.368914,9.11651469 L242.368914,10.0749747 C242.34665,14.1762918 241.366997,17.7203647 239.407691,20.662614 L238.160861,19.5481256 C239.897518,17.0962513 240.765846,13.9533941 240.788111,10.0749747 L240.788111,2.60790274 L248.202301,2.60790274 C247.890593,1.76089159 247.534356,0.980749747 247.133589,0.267477204 L248.803452,0 C249.137424,0.757852077 249.471397,1.62715299 249.827634,2.60790274 L256.974646,2.60790274 L256.974646,9.11651469 L242.368914,9.11651469 Z M276.231703,5.14893617 L275.942261,6.30800405 C276.498881,8.91590679 277.211356,11.1671733 278.10195,13.0395137 C278.970278,10.7882472 279.43784,8.15805471 279.526899,5.14893617 L276.231703,5.14893617 Z M277.36721,14.6443769 C276.498881,12.9280648 275.764142,10.9665653 275.162991,8.73758865 C274.762224,9.76291793 274.316928,10.6767984 273.849366,11.47923 L272.847449,10.2532928 C274.161074,7.75683891 275.051667,4.39108409 275.496964,0.156028369 L277.055502,0.423505572 C276.921913,1.56028369 276.743795,2.6301925 276.565676,3.61094225 L282.443592,3.61094225 L282.443592,5.14893617 L280.996378,5.14893617 C280.885054,8.87132725 280.194844,12.0587639 278.948013,14.6889564 C280.105785,16.6950355 281.463939,18.2330294 283.067008,19.325228 L282.198679,20.6403242 C280.640141,19.5258359 279.304251,18.0101317 278.191009,16.1377913 C277.122297,17.9209726 275.741877,19.414387 274.072014,20.6180344 L273.248216,19.2806484 C274.984873,18.077001 276.343028,16.5390071 277.36721,14.6443769 Z M266.813678,10.5653495 L268.305422,10.7436677 C268.149569,11.1671733 267.993715,11.5683891 267.860126,11.9696049 L272.513476,11.9696049 L272.513476,13.2847011 C272.02365,14.7558257 271.199851,16.0263425 270.042079,17.0962513 C271.110792,17.5866261 272.134974,18.077001 273.114627,18.6119554 L272.246298,19.8601824 C271.266645,19.2806484 270.131139,18.6788247 268.817514,18.0992908 C267.348035,19.1246201 265.500053,19.9493414 263.27357,20.5734549 L262.516565,19.2360689 C264.342282,18.745694 265.923085,18.1438703 267.214446,17.408308 C266.234793,16.9848024 265.21061,16.5612969 264.119634,16.1600811 C264.698519,15.1793313 265.21061,14.2654509 265.655907,13.3738602 L263.028657,13.3738602 L263.028657,11.9696049 L266.279322,11.9696049 C266.479706,11.47923 266.657825,11.0111449 266.813678,10.5653495 Z M268.5726,16.4721378 C269.685842,15.5805471 270.531906,14.5329281 271.066262,13.3738602 L267.23671,13.3738602 C266.880473,14.1317123 266.479706,14.8449848 266.034409,15.5136778 C266.925003,15.8257345 267.771066,16.1377913 268.5726,16.4721378 Z M264.787579,0.624113475 C265.321935,1.49341439 265.767231,2.4295846 266.167998,3.41033435 L265.010227,3.94528875 C264.542665,2.85309017 264.052839,1.89463019 263.518483,1.04761905 L264.787579,0.624113475 Z M271.556088,0.557244174 L272.71386,1.09219858 C272.268563,2.07294833 271.711942,3.03140831 270.999467,3.96757852 L269.863961,3.38804458 C270.576435,2.4295846 271.155321,1.49341439 271.556088,0.557244174 Z M263.073186,4.48024316 L267.414829,4.48024316 L267.414829,0.22289767 L268.906573,0.22289767 L268.906573,4.48024316 L272.958773,4.48024316 L272.958773,5.88449848 L268.906573,5.88449848 L268.906573,6.12968592 C270.108874,6.73150963 271.355705,7.4224924 272.602535,8.18034448 L271.778737,9.42857143 C270.665495,8.53698075 269.708107,7.82370821 268.906573,7.2887538 L268.906573,10.1864235 L267.414829,10.1864235 L267.414829,5.95136778 C266.680089,7.71225937 265.344199,9.22796353 263.429424,10.52077 L262.650154,9.22796353 C264.364547,8.22492401 265.566848,7.11043566 266.234793,5.88449848 L263.073186,5.88449848 L263.073186,4.48024316 Z M306.44306,2.4964539 L306.44306,7.46707194 L304.839991,7.46707194 L304.839991,4.03444782 L289.165548,4.03444782 L289.165548,7.46707194 L287.56248,7.46707194 L287.56248,2.4964539 L296.31256,2.4964539 C296.000852,1.69402229 295.66688,0.980749747 295.310642,0.334346505 L297.136359,0.022289767 C297.448066,0.757852077 297.759774,1.58257345 298.049217,2.4964539 L306.44306,2.4964539 Z M290.991265,6.44174265 L302.947481,6.44174265 L302.947481,7.93515704 C301.500266,8.96048632 299.874933,9.94123607 298.093747,10.9219858 L298.093747,12.4154002 L306.866091,12.4154002 L306.866091,13.9756839 L298.093747,13.9756839 L298.093747,18.7011145 C298.093747,19.9270517 297.448066,20.5511651 296.156706,20.5511651 L293.418131,20.5511651 L293.039629,19.0800405 C293.818898,19.1023303 294.664962,19.1246201 295.600085,19.1246201 C296.178971,19.1246201 296.468414,18.7902736 296.468414,18.1438703 L296.468414,13.9756839 L287.161713,13.9756839 L287.161713,12.4154002 L296.468414,12.4154002 L296.468414,10.231003 C298.271865,9.29483283 299.63002,8.51469098 300.542878,7.93515704 L290.991265,7.93515704 L290.991265,6.44174265 Z M317.88516,0.0445795339 L319.376904,0.73556231 C318.597635,2.60790274 317.595717,4.34650456 316.393416,5.99594732 L316.393416,20.6849037 L314.790348,20.6849037 L314.790348,7.95744681 C313.788431,9.04964539 312.697454,10.0972644 311.517418,11.0780142 L311.005327,9.40628166 C314.166933,6.68693009 316.460211,3.56636272 317.88516,0.0445795339 Z M328.149249,20.2836879 L323.896666,20.2836879 C322.338127,20.2836879 321.558858,19.4812563 321.558858,17.9209726 L321.558858,11.1225937 C320.623735,11.6575481 319.666347,12.147923 318.686694,12.6160081 L317.97422,11.100304 C319.22105,10.52077 320.423351,9.9189463 321.558858,9.25025329 L321.558858,0.312056738 L323.161926,0.312056738 L323.161926,8.26950355 C325.499734,6.70921986 327.548098,4.9260385 329.30702,2.94224924 L330.420262,4.21276596 C328.349632,6.44174265 325.922766,8.42553191 323.161926,10.1641337 L323.161926,17.698075 C323.161926,18.3890578 323.518163,18.745694 324.275168,18.745694 L327.882071,18.745694 C328.460957,18.745694 328.906253,18.5450861 329.173431,18.1884498 C329.418345,17.8318136 329.574198,16.5390071 329.663258,14.3323202 L331.155002,14.822695 C330.999148,17.3860182 330.73197,18.9463019 330.353468,19.4812563 C329.952701,20.0162107 329.217961,20.2836879 328.149249,20.2836879 Z M354.531054,11.3454914 L354.531054,20.5957447 L352.95025,20.5957447 L352.95025,19.6818642 L345.780974,19.6818642 L345.780974,20.5957447 L344.20017,20.5957447 L344.20017,11.3454914 L354.531054,11.3454914 Z M345.780974,18.1438703 L352.95025,18.1438703 L352.95025,12.9057751 L345.780974,12.9057751 L345.780974,18.1438703 Z M338.144136,20.3951368 L336.095771,20.3951368 L335.761798,18.8348531 C336.385214,18.8794326 337.008629,18.9240122 337.587515,18.9240122 C338.1664,18.9240122 338.478108,18.6119554 338.478108,18.0324215 L338.478108,12.5491388 C337.542985,12.9280648 336.585597,13.2847011 335.628209,13.5967579 L335.205177,11.9250253 C336.318419,11.6575481 337.409396,11.3009119 338.478108,10.899696 L338.478108,5.83991895 L335.628209,5.83991895 L335.628209,4.30192503 L338.478108,4.30192503 L338.478108,0.22289767 L340.081176,0.22289767 L340.081176,4.30192503 L342.708427,4.30192503 L342.708427,5.83991895 L340.081176,5.83991895 L340.081176,10.231003 C340.904975,9.852077 341.706509,9.4508612 342.485778,9.00506586 L342.485778,10.6322188 C341.684244,11.0780142 340.88271,11.47923 340.081176,11.858156 L340.081176,18.4336373 C340.081176,19.7264438 339.435496,20.3951368 338.144136,20.3951368 Z M347.517631,2.65248227 L343.732609,2.65248227 L343.732609,1.13677812 L354.842761,1.13677812 C354.820496,5.34954407 354.575583,7.86828774 354.108022,8.71529889 C353.618195,9.54002026 352.816661,9.96352584 351.65889,9.96352584 C351.169064,9.96352584 350.590178,9.9189463 349.922233,9.87436677 L349.543731,8.44782168 C350.256205,8.49240122 350.835091,8.53698075 351.324917,8.55927052 C352.148716,8.51469098 352.660807,8.18034448 352.883456,7.556231 C353.106104,6.93211753 353.239693,5.30496454 353.284223,2.65248227 L349.076169,2.65248227 C348.719932,4.54711246 348.207841,6.04052685 347.584425,7.1550152 C346.805156,8.40324215 345.647385,9.54002026 344.111111,10.5653495 L343.153723,9.29483283 C344.489613,8.44782168 345.513796,7.51165147 346.181741,6.48632219 C346.760626,5.50557244 347.205923,4.21276596 347.517631,2.65248227 Z M369.134761,2.05065856 L373.409609,2.05065856 L373.409609,0.267477204 L374.856823,0.267477204 L374.856823,2.05065856 L379.131671,2.05065856 L379.131671,9.69604863 L369.134761,9.69604863 L369.134761,2.05065856 Z M377.662192,8.38095238 L377.662192,6.53090172 L374.856823,6.53090172 L374.856823,8.38095238 L377.662192,8.38095238 Z M373.409609,8.38095238 L373.409609,6.53090172 L370.581975,6.53090172 L370.581975,8.38095238 L373.409609,8.38095238 Z M370.581975,5.28267477 L373.409609,5.28267477 L373.409609,3.36575481 L370.581975,3.36575481 L370.581975,5.28267477 Z M374.856823,3.36575481 L374.856823,5.28267477 L377.662192,5.28267477 L377.662192,3.36575481 L374.856823,3.36575481 Z M368.043784,11.1671733 L380,11.1671733 L380,12.5714286 L372.741664,12.5714286 L371.8956,14.4883485 L378.730904,14.4883485 C378.597315,17.3860182 378.285608,19.1023303 377.795781,19.6595745 C377.305955,20.1945289 376.370832,20.4620061 374.990412,20.4620061 C374.055289,20.4620061 373.209226,20.4174265 372.452221,20.3505572 L371.962395,18.9463019 C372.986577,19.035461 373.877171,19.0800405 374.678705,19.0800405 C375.725152,19.0800405 376.370832,18.9017224 376.615745,18.5450861 C376.838394,18.1884498 377.016512,17.2745694 377.150101,15.8480243 L369.91403,15.8480243 L371.183126,12.5714286 L368.043784,12.5714286 L368.043784,11.1671733 Z M360.006179,1.13677812 L368.377756,1.13677812 L368.377756,2.60790274 L367.219985,2.60790274 L367.219985,14.5775076 L368.288697,14.1762918 L368.288697,15.7365755 L367.219985,16.0932118 L367.219985,20.7071935 L365.728241,20.7071935 L365.728241,16.5835866 C363.902525,17.118541 362.032279,17.6089159 360.095238,18.0101317 L359.716736,16.4721378 C360.162033,16.3829787 360.629594,16.3161094 361.097156,16.2269504 L361.097156,2.60790274 L360.006179,2.60790274 L360.006179,1.13677812 Z M362.566635,15.9148936 C363.635347,15.6697062 364.704059,15.3799392 365.728241,15.0678825 L365.728241,11.9027356 L362.566635,11.9027356 L362.566635,15.9148936 Z M362.566635,10.4316109 L365.728241,10.4316109 L365.728241,7.2887538 L362.566635,7.2887538 L362.566635,10.4316109 Z M362.566635,5.81762918 L365.728241,5.81762918 L365.728241,2.60790274 L362.566635,2.60790274 L362.566635,5.81762918 Z" id="专家-+-AI-+-数据，开启数字化招聘-Copy"></path>
                <rect id="矩形" fill-rule="nonzero" opacity="0" x="0" y="0" width="380" height="22"></rect>
            </g>
        </g>
    </g>
</svg>