<?xml version="1.0" encoding="UTF-8"?>
<svg width="80px" height="80px" viewBox="0 0 80 80" version="1.1" xmlns="http://www.w3.org/2000/svg" xmlns:xlink="http://www.w3.org/1999/xlink">
    <!-- Generator: Sketch 52.6 (67491) - http://www.bohemiancoding.com/sketch -->
    <title>BI数据报表icon</title>
    <desc>Created with Sketch.</desc>
    <g id="页面" stroke="none" stroke-width="1" fill="none" fill-rule="evenodd">
        <g id="深色" transform="translate(-1200.000000, -831.000000)" fill="#0F5AFF" fill-rule="nonzero">
            <g id="BI数据报表icon" transform="translate(1200.000000, 831.000000)">
                <rect id="矩形" opacity="0.08" x="14.8571429" y="16" width="48" height="36.5714286"></rect>
                <polygon id="矩形" opacity="0.08" points="29.7142857 66.2857143 49.1428571 66.2857143 49.1428571 60.5714286 29.7142857 60.5714286"></polygon>
                <path d="M38.2337662,54.3896104 L11.8701299,54.3896104 C11.3680528,54.3896104 10.961039,53.9825965 10.961039,53.4805195 C10.961039,52.9784424 11.3680528,52.5714286 11.8701299,52.5714286 L12.7792208,52.5714286 L12.7792208,16.2077922 L10.2857143,16.2077922 C9.65453171,16.2077922 9.14285714,15.6961176 9.14285714,15.0649351 L9.14285714,13.7142857 C9.14285714,13.0831031 9.65453171,12.5714286 10.2857143,12.5714286 L68,12.5714286 C68.6311826,12.5714286 69.1428571,13.0831031 69.1428571,13.7142857 L69.1428571,15.0649351 C69.1428571,15.6961176 68.6311826,16.2077922 68,16.2077922 L65.5064935,16.2077922 L65.5064935,52.5714286 L66.4155844,52.5714286 C66.9176615,52.5714286 67.3246753,52.9784424 67.3246753,53.4805195 C67.3246753,53.9825965 66.9176615,54.3896104 66.4155844,54.3896104 L40.0519481,54.3896104 L40.0519481,59.8441558 L48.9090909,59.8441558 C49.5402735,59.8441558 50.0519481,60.3558304 50.0519481,60.987013 L50.0519481,65.974026 C50.0519481,66.6052085 49.5402735,67.1168831 48.9090909,67.1168831 L29.3766234,67.1168831 C28.7454408,67.1168831 28.2337662,66.6052085 28.2337662,65.974026 L28.2337662,60.987013 C28.2337662,60.3558304 28.7454408,59.8441558 29.3766234,59.8441558 L38.2337662,59.8441558 L38.2337662,54.3896104 Z M15.0649351,52.1038961 L63.2207792,52.1038961 L63.2207792,16.6753247 L15.0649351,16.6753247 L15.0649351,52.1038961 Z M30.5194805,64.8311688 L47.7662338,64.8311688 L47.7662338,62.1298701 L30.5194805,62.1298701 L30.5194805,64.8311688 Z M28.0805602,37.8379939 C27.6071519,38.2554576 26.8849573,38.2101055 26.4674936,37.7366971 C26.0500299,37.2632887 26.095382,36.5410942 26.5687904,36.1236305 L33.7104509,29.8259301 C34.1423963,29.4450295 34.7902753,29.4450295 35.2222207,29.8259301 L42.7136874,36.4320986 L50.205154,29.8259301 C50.6785624,29.4084664 51.4007569,29.4538185 51.8182206,29.9272269 C52.2356844,30.4006353 52.1903322,31.1228298 51.7169239,31.5402935 L43.4695723,38.8130208 C43.0376269,39.1939214 42.3897479,39.1939214 41.9578025,38.8130208 L34.4663358,32.2068523 L28.0805602,37.8379939 Z" id="BI数据报表" stroke="#0F5AFF" stroke-width="0.6"></path>
                <rect id="Rectangle" opacity="0" x="0" y="0" width="80" height="80"></rect>
            </g>
        </g>
    </g>
</svg>