<?xml version="1.0" encoding="UTF-8"?>
<svg width="80px" height="80px" viewBox="0 0 80 80" version="1.1" xmlns="http://www.w3.org/2000/svg" xmlns:xlink="http://www.w3.org/1999/xlink">
    <!-- Generator: Sketch 52.6 (67491) - http://www.bohemiancoding.com/sketch -->
    <title>全渠道管理</title>
    <desc>Created with Sketch.</desc>
    <g id="页面" stroke="none" stroke-width="1" fill="none" fill-rule="evenodd">
        <g id="深色" transform="translate(-160.000000, -831.000000)" fill-rule="nonzero">
            <g id="分组" transform="translate(160.000000, 831.000000)">
                <path d="M50.3544304,32.3333333 L50.3544304,18.3796296 C50.3544304,17.9858711 50.0370626,17.6666667 49.6455696,17.6666667 L30.3544304,17.6666667 C29.9629374,17.6666667 29.6455696,17.9858711 29.6455696,18.3796296 L29.6455696,32.3333333 L50.3544304,32.3333333 Z M30.3544304,14 L49.6455696,14 C52.0504551,14 54,15.960827 54,18.3796296 L54,36 L26,36 L26,18.3796296 C26,15.960827 27.9495449,14 30.3544304,14 Z" id="矩形" fill="#0F5AFF"></path>
                <path d="M13,28.3 C12.0611159,28.3 11.3,29.0611159 11.3,30 L11.3,63.4285714 C11.3,64.3674555 12.0611159,65.1285714 13,65.1285714 L67,65.1285714 C67.9388841,65.1285714 68.7,64.3674555 68.7,63.4285714 L68.7,30 C68.7,29.0611159 67.9388841,28.3 67,28.3 L13,28.3 Z" id="矩形" stroke="#0F5AFF" stroke-width="2.6" fill-opacity="0.08" fill="#0F5AFF"></path>
                <path d="M13,25.3 C12.0611159,25.3 11.3,26.0611159 11.3,27 L11.3,43 C11.3,43.9388841 12.0611159,44.7 13,44.7 L67,44.7 C67.9388841,44.7 68.7,43.9388841 68.7,43 L68.7,27 C68.7,26.0611159 67.9388841,25.3 67,25.3 L13,25.3 Z" id="矩形" stroke="#0F5AFF" stroke-width="2.6" fill="#ECF2FF"></path>
                <rect id="矩形" fill="#0F5AFF" x="36" y="37" width="8" height="16" rx="2"></rect>
                <rect id="Rectangle" fill="#0F5AFF" opacity="0" x="0" y="0" width="80" height="80"></rect>
            </g>
        </g>
    </g>
</svg>