<?xml version="1.0" encoding="UTF-8"?>
<svg width="180px" height="72px" viewBox="0 0 180 72" version="1.1" xmlns="http://www.w3.org/2000/svg" xmlns:xlink="http://www.w3.org/1999/xlink">
    <!-- Generator: Sketch 52.6 (67491) - http://www.bohemiancoding.com/sketch -->
    <title>人才战略落地 咨询服务 黑色</title>
    <desc>Created with Sketch.</desc>
    <g id="页面" stroke="none" stroke-width="1" fill="none" fill-rule="evenodd">
        <g id="1-首页" transform="translate(-650.000000, -2996.000000)">
            <g id="人才战略落地-咨询服务-黑色" transform="translate(650.000000, 2996.000000)">
                <path d="M13.08,7.368 C13.08,9.48 13.008,11.256 12.912,12.744 C14.304,19.128 17.76,24 23.232,27.36 L21.72,29.352 C17.112,26.28 13.896,22.152 12.072,17.016 C10.488,22.008 7.176,26.136 2.136,29.4 L0.744,27.36 C7.224,23.424 10.56,18.024 10.752,11.136 C10.752,9.528 10.776,8.28 10.776,7.368 L13.08,7.368 Z M44.136,29.28 L40.344,29.28 L39.816,27.072 C41.064,27.144 42.24,27.192 43.344,27.192 C43.944,27.192 44.256,26.832 44.256,26.112 L44.256,13.728 L43.824,13.728 C41.496,18.672 37.56,22.752 32.016,25.92 L30.816,23.976 C35.736,21.312 39.312,17.904 41.52,13.728 L31.272,13.728 L31.272,11.544 L44.256,11.544 L44.256,7.344 L46.536,7.344 L46.536,11.544 L52.368,11.544 L52.368,13.728 L46.536,13.728 L46.536,26.688 C46.536,28.416 45.72,29.28 44.136,29.28 Z M64.872,7.416 L67.08,7.416 L67.08,11.376 L71.616,11.376 L71.616,13.488 L67.08,13.488 L67.08,17.424 L70.752,17.424 L70.752,26.568 C72.504,25.68 74.088,24.528 75.528,23.088 C75.24,22.248 75,21.336 74.76,20.352 C74.472,19.104 74.232,17.688 74.064,16.104 L70.944,16.68 L70.608,14.592 L73.872,14.016 C73.728,12.024 73.656,9.816 73.656,7.392 L75.864,7.392 C75.888,9.744 75.96,11.808 76.08,13.608 L82.272,12.504 L82.584,14.592 L76.224,15.72 C76.368,17.328 76.56,18.648 76.8,19.68 L77.16,21.24 C78.264,19.8 79.272,18.168 80.184,16.32 L81.96,17.52 C80.712,19.92 79.368,21.96 77.928,23.664 C78.12,24.192 78.336,24.624 78.552,25.008 C79.176,26.064 79.656,26.616 79.992,26.616 C80.376,26.616 80.76,25.488 81.144,23.256 L82.992,24.264 C82.392,27.528 81.504,29.16 80.352,29.16 C79.392,29.16 78.408,28.44 77.4,27 C77.016,26.496 76.68,25.92 76.392,25.296 C74.736,26.856 72.984,28.008 71.136,28.752 L69.84,27 C69.888,26.952 69.96,26.928 70.008,26.928 L63.912,26.928 L63.912,28.584 L61.728,28.584 L61.728,17.424 L64.872,17.424 L64.872,7.416 Z M63.912,24.84 L68.592,24.84 L68.592,19.536 L63.912,19.536 L63.912,24.84 Z M78.528,7.872 C79.68,9.096 80.592,10.152 81.216,11.064 L79.536,12.216 C78.888,11.208 78,10.104 76.896,8.88 L78.528,7.872 Z M111.36,20.208 L111.36,29.304 L109.128,29.304 L109.128,28.392 L103.944,28.392 L103.944,29.304 L101.712,29.304 L101.712,20.232 C101.424,20.328 101.136,20.448 100.896,20.568 L100.032,19.44 L100.032,27.384 L98.088,27.384 L98.088,26.448 L93.696,26.448 L93.696,27.384 L91.656,27.384 L91.656,8.88 L100.032,8.88 L100.032,13.152 C101.472,11.712 102.72,9.792 103.776,7.392 L106.032,7.848 C105.792,8.4 105.552,8.928 105.312,9.432 L111.6,9.432 L111.6,11.184 C110.832,13.008 109.728,14.616 108.288,16.032 C109.704,16.992 111.36,17.832 113.256,18.528 L112.272,20.568 C110.112,19.608 108.264,18.552 106.728,17.376 C105.288,18.456 103.632,19.392 101.76,20.208 L111.36,20.208 Z M100.032,13.776 L100.032,18.576 C101.952,17.808 103.608,16.92 105,15.912 C104.16,15.096 103.44,14.232 102.864,13.368 C102.336,14.04 101.808,14.64 101.232,15.192 L100.032,13.776 Z M103.944,26.256 L109.128,26.256 L109.128,22.32 L103.944,22.32 L103.944,26.256 Z M98.088,24.456 L98.088,18.576 L96.792,18.576 L96.792,24.456 L98.088,24.456 Z M98.088,16.584 L98.088,10.944 L96.792,10.944 L96.792,16.584 L98.088,16.584 Z M94.968,10.944 L93.696,10.944 L93.696,16.584 L94.968,16.584 L94.968,10.944 Z M93.696,18.576 L93.696,24.456 L94.968,24.456 L94.968,18.576 L93.696,18.576 Z M106.488,14.664 C107.52,13.704 108.336,12.672 108.96,11.568 L104.112,11.568 C104.064,11.616 104.04,11.688 104.016,11.736 C104.664,12.792 105.48,13.776 106.488,14.664 Z M121.536,8.736 L126.84,8.736 L126.84,7.344 L129.048,7.344 L129.048,8.736 L134.952,8.736 L134.952,7.344 L137.16,7.344 L137.16,8.736 L142.464,8.736 L142.464,10.704 L137.16,10.704 L137.16,12.288 L134.952,12.288 L134.952,10.704 L129.048,10.704 L129.048,12.192 L126.84,12.192 L126.84,10.704 L121.536,10.704 L121.536,8.736 Z M123.744,11.808 C125.28,12.672 126.576,13.536 127.632,14.424 L126.072,16.008 C125.136,15.168 123.84,14.256 122.184,13.296 L123.744,11.808 Z M122.832,16.68 C124.416,17.544 125.736,18.408 126.816,19.272 L125.232,20.832 C124.272,20.016 122.952,19.128 121.272,18.168 L122.832,16.68 Z M124.536,21.912 L126.48,22.68 C125.544,24.96 124.488,27.096 123.336,29.112 L121.128,28.128 C122.424,26.112 123.552,24.024 124.536,21.912 Z M139.176,21.96 C137.568,21.432 136.128,20.808 134.88,20.088 C133.632,20.76 132.264,21.384 130.776,21.96 L139.176,21.96 Z M136.824,18.816 C138.648,19.68 140.76,20.376 143.208,20.856 L141.936,22.704 C141.336,22.56 140.784,22.44 140.28,22.296 L140.28,29.52 L138.168,29.52 L138.168,28.608 L131.304,28.608 L131.304,29.52 L129.192,29.52 L129.192,22.512 C128.712,22.656 128.256,22.776 127.824,22.92 L126.48,21.168 C129.024,20.52 131.184,19.752 133.008,18.84 C132.192,18.216 131.472,17.544 130.872,16.824 C130.008,17.568 129.096,18.24 128.112,18.864 L126.792,17.16 C129.432,15.672 131.232,13.824 132.168,11.664 L134.28,12.048 C134.088,12.504 133.896,12.936 133.68,13.32 L140.4,13.32 L140.4,14.904 C139.56,16.368 138.36,17.664 136.824,18.816 Z M132.168,15.48 C132.936,16.344 133.848,17.088 134.904,17.76 C136.104,16.992 137.088,16.152 137.832,15.24 L132.384,15.24 C132.288,15.336 132.216,15.408 132.168,15.48 Z M131.304,26.64 L138.168,26.64 L138.168,23.952 L131.304,23.952 L131.304,26.64 Z M172.368,11.712 C172.368,16.752 172.224,19.8 171.96,20.88 C171.696,21.936 170.616,22.488 168.696,22.488 L168.6,22.488 L167.928,20.256 C168.408,20.28 168.816,20.304 169.176,20.304 C169.632,20.304 169.92,20.04 170.016,19.56 C170.112,19.128 170.16,17.496 170.184,14.688 L167.256,15.552 L167.256,24.36 L165.048,24.36 L165.048,16.224 L162.12,17.112 L162.12,25.896 C162.12,26.568 162.504,26.904 163.272,26.904 L169.752,26.904 C170.136,26.904 170.424,26.736 170.616,26.4 C170.832,26.064 170.976,25.008 171.072,23.184 L173.184,23.856 C172.992,26.352 172.68,27.864 172.2,28.344 C171.744,28.8 171.072,29.04 170.184,29.04 L162.576,29.04 C160.776,29.04 159.888,28.128 159.888,26.352 L159.888,17.784 L158.208,18.288 L158.208,16.056 L159.888,15.552 L159.888,9.768 L162.12,9.768 L162.12,14.856 L165.048,13.968 L165.048,7.32 L167.256,7.32 L167.256,13.296 L172.368,11.712 Z M158.496,21.816 L158.496,24.096 C156.264,25.128 153.888,25.992 151.344,26.712 L150.768,24.408 C151.728,24.216 152.688,23.976 153.624,23.712 L153.624,15.72 L151.08,15.72 L151.08,13.512 L153.624,13.512 L153.624,7.464 L155.856,7.464 L155.856,13.512 L158.16,13.512 L158.16,15.72 L155.856,15.72 L155.856,22.944 C156.744,22.608 157.632,22.224 158.496,21.816 Z M44.808,47.352 C44.088,48.648 43.2,49.824 42.168,50.856 L40.752,49.032 C42.36,47.448 43.44,45.504 44.016,43.2 L46.272,43.488 C46.128,44.088 45.96,44.664 45.768,45.192 L54.84,45.192 L54.84,47.016 C54.12,48.648 53.352,49.992 52.536,51.048 L50.832,49.704 C51.384,49.056 51.912,48.264 52.392,47.352 L44.808,47.352 Z M36.408,43.752 C37.992,44.76 39.312,45.792 40.416,46.848 L38.832,48.384 C37.92,47.4 36.6,46.344 34.872,45.216 L36.408,43.752 Z M39.528,49.632 L41.256,50.928 C39.504,53.064 37.68,54.84 35.808,56.232 L34.32,54.552 C36.24,53.16 37.968,51.504 39.528,49.632 Z M53.112,56.52 L53.112,65.496 L50.88,65.496 L50.88,64.464 L39.216,64.464 L39.216,65.496 L36.984,65.496 L36.984,56.52 L53.112,56.52 Z M39.216,62.328 L50.88,62.328 L50.88,58.656 L39.216,58.656 L39.216,62.328 Z M47.088,47.88 L49.224,48.096 C49.128,48.672 49.032,49.2 48.888,49.728 C49.872,51.84 52.272,53.328 56.112,54.192 L55.008,56.184 C51.624,55.272 49.272,53.856 47.976,51.888 C47.64,52.416 47.28,52.896 46.872,53.328 C45.72,54.48 43.656,55.416 40.728,56.088 L39.888,54.096 C42.312,53.592 44.04,52.872 45.096,51.936 C46.176,50.976 46.848,49.608 47.088,47.88 Z M72.984,51.024 C72.672,51.36 72.36,51.696 72.024,52.032 L70.608,50.208 C72.552,48.288 73.848,45.96 74.52,43.224 L76.824,43.56 C76.632,44.328 76.392,45.048 76.152,45.744 L85.368,45.744 C85.368,54.816 85.248,60.408 85.008,62.52 C84.768,64.368 83.592,65.304 81.528,65.304 C81.072,65.304 80.28,65.256 79.152,65.208 L78.6,63.168 C79.608,63.24 80.496,63.288 81.216,63.288 C82.128,63.288 82.68,62.688 82.824,61.512 C82.968,60.168 83.04,55.632 83.088,47.904 L75.168,47.904 C74.688,48.768 74.16,49.56 73.56,50.328 L80.664,50.328 L80.664,61.608 L72.984,61.608 L72.984,51.024 Z M78.528,59.688 L78.528,56.88 L75.192,56.88 L75.192,59.688 L78.528,59.688 Z M75.192,55.008 L78.528,55.008 L78.528,52.248 L75.192,52.248 L75.192,55.008 Z M67.152,43.512 C68.688,44.688 70.008,45.864 71.088,47.064 L69.528,48.648 C68.568,47.52 67.248,46.32 65.568,45.072 L67.152,43.512 Z M63.912,50.472 L69.456,50.472 L69.456,60.576 C70.104,59.976 70.8,59.304 71.544,58.56 L72.168,60.96 C70.728,62.376 69.168,63.648 67.536,64.752 L66.672,62.712 C67.056,62.376 67.272,61.944 67.272,61.464 L67.272,52.656 L63.912,52.656 L63.912,50.472 Z M97.608,51.84 L97.608,55.344 L100.968,55.344 L100.968,51.84 L97.608,51.84 Z M100.968,49.8 L100.968,46.248 L97.608,46.248 L97.608,49.8 L100.968,49.8 Z M97.56,57.408 C97.392,60.672 96.816,63.384 95.832,65.52 L94.104,63.96 C95.064,61.872 95.544,59.208 95.568,55.968 L95.568,44.184 L103.032,44.184 L103.032,62.952 C103.032,64.584 102.288,65.4 100.824,65.4 L98.904,65.4 L98.352,63.384 C99.024,63.456 99.624,63.504 100.2,63.504 C100.704,63.504 100.968,63.072 100.968,62.232 L100.968,57.408 L97.56,57.408 Z M106.8,55.032 L106.8,63.6 C108.048,62.928 109.104,62.064 109.992,61.056 C108.6,59.28 107.64,57.264 107.112,55.032 L106.8,55.032 Z M106.8,63.672 L106.8,65.496 L104.664,65.496 L104.664,44.184 L114.768,44.184 C114.768,47.304 114.624,49.368 114.336,50.4 C114.048,51.408 113.136,51.912 111.6,51.912 L109.584,51.912 L108.984,49.992 C109.368,49.992 109.896,50.016 110.568,50.016 C111.072,50.016 111.456,49.968 111.696,49.896 C111.936,49.824 112.128,49.608 112.272,49.272 C112.416,48.864 112.512,47.856 112.56,46.248 L106.8,46.248 L106.8,53.016 L114.912,53.016 L114.912,54.936 C114.48,57.288 113.76,59.304 112.752,60.96 C113.736,61.896 114.888,62.736 116.184,63.504 L115.056,65.424 C113.688,64.608 112.488,63.696 111.48,62.712 C110.496,63.816 109.32,64.728 107.976,65.448 L106.8,63.672 Z M109.056,55.032 C109.536,56.592 110.256,58.008 111.24,59.28 C111.96,58.032 112.512,56.616 112.896,55.032 L109.056,55.032 Z M130.944,43.224 L133.272,43.56 C133.032,44.136 132.768,44.688 132.48,45.192 L142.752,45.192 L142.752,47.04 C141.312,48.696 139.56,50.136 137.52,51.336 C140.088,52.296 142.944,52.944 146.112,53.232 L145.08,55.368 C141.36,54.936 138,54.024 135.024,52.608 C132.144,53.904 128.784,54.84 124.992,55.416 L123.936,53.28 C127.152,52.872 130.032,52.2 132.528,51.264 C131.376,50.592 130.32,49.824 129.336,49.008 C128.52,49.704 127.632,50.352 126.648,50.952 L125.256,49.128 C128.064,47.52 129.96,45.552 130.944,43.224 Z M135,50.208 C136.656,49.392 138.12,48.432 139.416,47.328 L130.992,47.328 C130.92,47.4 130.872,47.448 130.848,47.496 C132.096,48.528 133.488,49.44 135,50.208 Z M133.272,54.072 L135.528,54.072 C135.528,54.936 135.456,55.752 135.336,56.52 L143.616,56.52 C143.568,60.72 143.208,63.24 142.536,64.056 C141.864,64.872 140.664,65.304 138.984,65.304 C138.168,65.304 137.16,65.256 136.008,65.184 L135.432,63.12 C136.68,63.168 137.688,63.216 138.456,63.264 C139.68,63.24 140.448,62.976 140.76,62.496 C141.072,61.992 141.264,60.672 141.336,58.56 L134.832,58.56 C134.616,59.136 134.376,59.688 134.088,60.192 C132.888,62.352 130.08,64.128 125.64,65.544 L124.128,63.696 C128.04,62.544 130.608,61.152 131.808,59.496 C132,59.184 132.192,58.872 132.336,58.56 L125.592,58.56 L125.592,56.52 L133.032,56.52 C133.176,55.752 133.272,54.936 133.272,54.072 Z" id="人才战略落地-咨询服务" fill="#111111"></path>
                <rect id="矩形" fill="#FFFFFF" fill-rule="nonzero" opacity="0" x="0" y="0" width="180" height="72"></rect>
            </g>
        </g>
    </g>
</svg>