<?xml version="1.0" encoding="UTF-8"?>
<svg width="60px" height="24px" viewBox="0 0 60 24" version="1.1" xmlns="http://www.w3.org/2000/svg" xmlns:xlink="http://www.w3.org/1999/xlink">
    <!-- Generator: Sketch 52.6 (67491) - http://www.bohemiancoding.com/sketch -->
    <title>两大专业团队icon</title>
    <desc>Created with Sketch.</desc>
    <g id="组件" stroke="none" stroke-width="1" fill="none" fill-rule="evenodd">
        <g id="两大专业团队icon" fill-rule="nonzero">
            <g>
                <path d="M31.9665767,13.2997408 C31.9156502,13.2528809 31.8674847,13.2031066 31.8223226,13.1506687 C31.1772984,12.4017259 31.261541,11.2716924 32.0104753,10.6266583 C32.5994834,10.1193773 32.9105633,9.850891 32.9437149,9.82119955 C39.1898786,4.22697335 44.9975375,1.44 48.2865195,1.44 C53.927269,1.44 58.5,6.16970982 58.5,12.0041026 C58.5,17.8384953 53.927269,22.5682051 48.2865195,22.5682051 C44.8280398,22.5682051 38.69032,19.4865767 31.9665767,13.2997408 Z" id="Path-Copy" fill="#EEEEEE"></path>
                <path d="M31.7530575,12.4521372 C38.9261604,18.9854995 44.417278,22.2855334 48.0419738,22.2855334 C53.700589,22.2855334 58.288477,17.6809083 58.288477,12 C58.288477,6.31909169 53.700589,1.7144666 48.0419738,1.7144666 C44.7268304,1.7144666 39.8463411,4.47624499 33.5415172,9.95550916 C33.5081263,9.98452779 33.384345,10.0933123 33.1709952,10.2811433 C32.8109505,10.5981694 32.2668272,10.5905725 31.9158887,10.2636308 C31.5932391,9.96304355 31.5771725,9.45974776 31.8800029,9.13948815 C31.9051769,9.1136564 31.9051769,9.1136564 31.9318743,9.08937383 C32.2034154,8.8497726 32.3531719,8.71781834 32.3850506,8.69007489 C39.0578119,2.88288934 44.2312678,0 48.0419738,0 C54.6465817,0 60,5.37294808 60,12 C60,18.6270519 54.6465817,24 48.0419738,24 C43.7747503,24 37.7941074,20.3840791 29.9046004,13.0805933 L29.8918818,13.0805882 L28.8494228,12.1161964 L28.8494279,12.1005597 C21.3816904,5.20166027 15.6844005,1.7144666 11.9580262,1.7144666 C6.29941104,1.7144666 1.71152297,6.31909169 1.71152297,12 C1.71152297,17.6809083 6.29941104,22.2855334 11.9580262,22.2855334 C15.2369913,22.2855334 20.0478011,19.5835581 26.2540161,14.221664 C26.3968904,14.0982269 26.5842118,13.9346523 26.8159235,13.7309881 C27.1760965,13.4144259 27.7196326,13.4212994 28.0715579,13.7468699 C28.3946888,14.0458023 28.4124971,14.548144 28.1113338,14.8688814 C28.0852115,14.8958399 28.0852115,14.8958399 28.0574289,14.9211241 C27.8048202,15.1438427 27.602032,15.3214541 27.4482625,15.4546513 C20.8561958,21.1647892 15.7371213,24 11.9580262,24 C5.35341834,24 0,18.6270519 0,12 C0,5.37294808 5.35341834,0 11.9580262,0 C16.3121823,0 22.4511519,3.76493533 30.5833351,11.373525 L31.1378795,11.8923651 L31.7349903,12.4529058 L31.7530575,12.4521372 Z" id="路径" fill="#111111"></path>
                <path d="M47.85,19.375 C47.4081722,19.375 47.05,19.0168278 47.05,18.575 C47.05,18.1331722 47.4081722,17.775 47.85,17.775 C51.2051299,17.775 53.925,15.0551299 53.925,11.7 C53.925,11.2581722 54.2831722,10.9 54.725,10.9 C55.1668278,10.9 55.525,11.2581722 55.525,11.7 C55.525,15.9387855 52.0887855,19.375 47.85,19.375 Z" id="路径" fill="#111111"></path>
                <path d="M6.22,12.095 C6.22,15.4501299 8.93987014,18.17 12.295,18.17 C12.7368278,18.17 13.095,18.5281722 13.095,18.97 C13.095,19.4118278 12.7368278,19.77 12.295,19.77 C8.05621455,19.77 4.62,16.3337855 4.62,12.095 C4.62,7.85621455 8.05621455,4.42 12.295,4.42 C12.7368278,4.42 13.095,4.7781722 13.095,5.22 C13.095,5.6618278 12.7368278,6.02 12.295,6.02 C8.93987014,6.02 6.22,8.73987014 6.22,12.095 Z" id="路径" fill="#111111"></path>
            </g>
        </g>
    </g>
</svg>