<?xml version="1.0" encoding="UTF-8"?>
<svg width="264px" height="24px" viewBox="0 0 264 24" version="1.1" xmlns="http://www.w3.org/2000/svg" xmlns:xlink="http://www.w3.org/1999/xlink">
    <!-- Generator: Sketch 52.6 (67491) - http://www.bohemiancoding.com/sketch -->
    <title>咨询专家x客户成功</title>
    <desc>Created with Sketch.</desc>
    <g id="组件" stroke="none" stroke-width="1" fill="none" fill-rule="evenodd">
        <g id="咨询专家x客户成功">
            <g>
                <g id="用户运营">
                    <g>
                        <path d="M9.73576799,4.54457573 C9.02685285,5.867884 8.15252417,7.02577873 7.08915145,8.04189044 L6.30934479,7.02577873 C7.98711063,5.3952739 9.12137487,3.41031149 9.71213749,1.07089151 L10.9881847,1.21267454 C10.7991407,1.9688507 10.5628357,2.65413534 10.3029001,3.31578947 L19.566058,3.31578947 L19.566058,4.35553169 C18.8807734,5.91514501 18.1245972,7.23845328 17.273899,8.349087 L16.3286788,7.59291085 C17.0139635,6.71858217 17.6283566,5.70247046 18.1718582,4.54457573 L9.73576799,4.54457573 Z M1.32330827,1.75617615 C2.97744361,2.77228786 4.37164339,3.81203008 5.50590763,4.85177229 L4.63157895,5.72610097 C3.59183673,4.73361976 2.19763695,3.67024705 0.448979592,2.58324382 L1.32330827,1.75617615 Z M5.26960258,7.47475832 L6.23845328,8.20730397 C4.51342642,10.3340494 2.71750806,12.1063373 0.850698174,13.5005371 L0,12.5553169 C1.9377014,11.1138561 3.70998926,9.41245972 5.26960258,7.47475832 Z M17.8646617,14.3512352 L17.8646617,22.7164339 L16.5886144,22.7164339 L16.5886144,21.5112782 L3.96992481,21.5112782 L3.96992481,22.7164339 L2.69387755,22.7164339 L2.69387755,14.3512352 L17.8646617,14.3512352 Z M3.96992481,20.2824919 L16.5886144,20.2824919 L16.5886144,15.5800215 L3.96992481,15.5800215 L3.96992481,20.2824919 Z M12.6659506,5.4189044 L13.8947368,5.53705693 C13.8002148,6.15145005 13.7056928,6.69495166 13.5639098,7.21482277 C14.556391,9.71965628 17.037594,11.4446831 21.0311493,12.4135338 L20.3931257,13.5477981 C16.7067669,12.5553169 14.2728249,10.9011815 13.0440387,8.58539205 C12.6659506,9.36519871 12.1933405,10.0504834 11.6262084,10.6648765 C10.5155747,11.8227712 8.55424275,12.7443609 5.71858217,13.406015 L5.24597207,12.2717508 C7.72717508,11.7046187 9.52309345,10.924812 10.6337272,9.88506982 C11.7207304,8.7980666 12.406015,7.30934479 12.6659506,5.4189044 Z M35.9656283,8.04189044 L42.9366272,8.04189044 L42.9366272,18.6283566 L35.9656283,18.6283566 L35.9656283,8.04189044 Z M41.7314715,17.5177229 L41.7314715,13.8077336 L37.1944145,13.8077336 L37.1944145,17.5177229 L41.7314715,17.5177229 Z M37.1944145,12.7207304 L41.7314715,12.7207304 L41.7314715,9.15252417 L37.1944145,9.15252417 L37.1944145,12.7207304 Z M37.5488721,1.09452202 L38.8249194,1.28356606 C38.5886143,2.15789474 38.3286788,2.98496241 38.0214822,3.78839957 L47.4973146,3.78839957 C47.4973146,12.2008593 47.3791621,17.3759398 47.1428571,19.3609023 C46.9301825,21.4403867 45.8431793,22.5037594 43.8582169,22.5037594 C43.4328678,22.5037594 42.7003221,22.4801289 41.6842104,22.4328679 L41.3770139,21.2986037 C42.2749731,21.3458647 43.0784102,21.3694952 43.7400644,21.3694952 C44.9924811,21.3694952 45.7250268,20.566058 45.9140708,18.9591837 C46.0794843,17.3759398 46.1740064,12.7207304 46.2212674,5.01718582 L37.4543501,5.01718582 C36.6272824,6.62406015 35.5639097,8.06552095 34.2406014,9.34156821 L33.4607948,8.3254565 C35.4693877,6.34049409 36.839957,3.9301826 37.5488721,1.09452202 Z M29.4672394,1.40171858 C31.0741138,2.65413534 32.4446831,3.90655209 33.5316863,5.15896885 L32.6573576,6.05692803 C31.6412459,4.87540279 30.2706766,3.59935553 28.5456498,2.27604726 L29.4672394,1.40171858 Z M26.8678839,8.51450054 L31.7357679,8.51450054 L31.7357679,19.3609023 C32.5864661,18.6519871 33.4844253,17.8012889 34.453276,16.8088077 L34.784103,18.1557465 C33.4607948,19.5026853 32.066595,20.707841 30.5542427,21.7712137 L30.0580021,20.613319 C30.3415681,20.329753 30.4833512,20.0461869 30.4833512,19.7389903 L30.4833512,9.76691729 L26.8678839,9.76691729 L26.8678839,8.51450054 Z M54.491944,8.53813104 L61.3211599,8.53813104 C61.6283564,7.42749731 61.9119225,6.31686359 62.1954886,5.20622986 L56.1224488,5.20622986 L56.1224488,4.00107411 L62.4790546,4.00107411 C62.6917292,3.00859291 62.9044037,2.01611171 63.0934477,1.0236305 L64.369495,1.14178303 C64.180451,2.15789474 63.9914069,3.10311493 63.8023629,4.00107411 L74.199785,4.00107411 L74.199785,5.20622986 L63.5187968,5.20622986 C63.2352308,6.3877551 62.9752952,7.49838883 62.6917292,8.53813104 L75.6176153,8.53813104 L75.6176153,9.76691729 L62.3372716,9.76691729 C61.9591835,11.0429646 61.5574649,12.2008593 61.1557463,13.264232 L72.6874327,13.264232 L72.6874327,14.3984962 C71.5059075,16.2889366 69.6627281,18.1557465 67.1106336,19.9989259 C68.6466164,20.5896885 70.1117077,21.2277121 71.5059075,21.9129968 L70.7969923,23 C67.1815251,21.2040816 63.4715358,19.7862513 59.690655,18.7465091 L60.3759397,17.7303974 C62.2427496,18.2502685 64.0386679,18.8410311 65.7636948,19.4790548 C68.0794843,17.895811 69.8990331,16.2180451 71.1987109,14.4693878 L59.359828,14.4693878 C59.9269601,12.9570354 60.4704617,11.3974221 60.9667023,9.76691729 L54.491944,9.76691729 L54.491944,8.53813104 Z M96.2943069,13.3351235 C95.6799138,13.5477981 95.0891512,13.7368421 94.4747581,13.8786251 C94.8764767,15.0601504 95.0891512,16.3125671 95.1364122,17.6831364 C95.1364122,19.5263158 94.8764767,20.8023631 94.4038666,21.5112782 C93.8839955,22.2674544 92.6552092,22.6691729 90.6702468,22.6691729 L89.8431791,22.6691729 L89.41783,21.5585392 L90.5048333,21.5585392 C91.9462941,21.5349087 92.8678837,21.3222342 93.2459718,20.8968851 C93.6713209,20.3533835 93.907626,19.2900107 93.907626,17.6831364 C93.8839955,17.1160043 93.8367344,16.5961332 93.7658429,16.0998926 C91.1428569,18.2502685 87.5746507,19.9989259 83.0848547,21.3694952 L82.4468311,20.2588614 C87.2674541,18.8410311 90.9301823,17.0451128 93.4822769,14.8474758 C93.2932328,14.0912997 93.0096668,13.406015 92.6788397,12.7679914 C90.4103112,14.5875403 87.2910846,16.0762621 83.3684208,17.2105263 L82.7540277,16.0998926 C86.8184745,14.9892589 89.9377011,13.5714286 92.1117076,11.8227712 C91.75725,11.3029001 91.3791619,10.8066595 90.9538129,10.3576799 C90.6938773,10.4994629 90.4339417,10.6176155 90.1976367,10.735768 C88.4962403,11.5155747 86.3694949,12.2717508 83.8174004,12.980666 L83.1321158,11.9172932 C85.4715357,11.3737916 87.5273896,10.7121375 89.2996775,9.95596133 C90.3866807,9.48335124 91.3791619,8.96348013 92.2771211,8.41997852 L85.3533832,8.41997852 L85.3533832,7.21482277 L99.6025776,7.21482277 L99.6025776,8.41997852 L94.1203005,8.41997852 C93.3641243,8.93984962 92.6315787,9.41245972 91.9226635,9.83780881 C92.8206227,10.7593985 93.5295379,11.7755102 94.049409,12.8625134 C96.3651985,12.2481203 98.5392049,11.2556391 100.571428,9.90870032 L101.445757,10.7593985 C100.16971,11.6337272 98.7991405,12.3662728 97.3340492,12.9570354 C98.4683134,16.0762621 100.311493,18.5574651 102.863587,20.4006445 L101.965628,21.4640172 C99.2953811,19.3372718 97.4049407,16.6433942 96.2943069,13.3351235 Z M92.5606872,1 C92.8678837,1.70891515 93.1514498,2.4887218 93.4113854,3.38668099 L102.320086,3.38668099 L102.320086,7.26208378 L101.044038,7.26208378 L101.044038,4.59183673 L83.8646614,4.59183673 L83.8646614,7.26208378 L82.5886141,7.26208378 L82.5886141,3.38668099 L92.1589686,3.38668099 C91.8754025,2.58324382 91.568206,1.87432868 91.2610094,1.21267454 L92.5606872,1 Z" id="咨询专家" fill="#333333"></path>
                        <rect id="Rectangle" fill="#FFFFFF" fill-rule="nonzero" opacity="0" x="0" y="0" width="110" height="24"></rect>
                    </g>
                </g>
                <g id="客户成功" transform="translate(150.000000, 0.000000)">
                    <g>
                        <path d="M26.8600823,15.7142857 L26.8600823,22.952381 L25.5877915,22.952381 L25.5877915,21.8809524 L14.7613169,21.8809524 L14.7613169,22.952381 L13.4890261,22.952381 L13.4890261,15.7142857 L26.8600823,15.7142857 Z M14.7613169,20.6904762 L25.5877915,20.6904762 L25.5877915,16.8809524 L14.7613169,16.8809524 L14.7613169,20.6904762 Z M17.1378601,4.95238095 L18.4101509,5.26190476 C18.0260631,5.88095238 17.5939643,6.47619048 17.1618656,7.02380952 L26.2119342,7.02380952 L26.2119342,8.0952381 C25.1316872,9.52380952 23.5953361,10.8095238 21.6268861,11.9047619 C24.3635117,13.0714286 27.4602195,13.7857143 30.8930041,14.0714286 L30.5809328,15.2619048 C26.7400549,14.9285714 23.3072702,14.047619 20.3065844,12.5714286 C17.4499314,13.9047619 13.8491084,14.9761905 9.50411523,15.7619048 L9,14.5714286 C13.0329218,13.9047619 16.3696845,13.0238095 19.0102881,11.8809524 C17.6179698,11.0952381 16.345679,10.1904762 15.1454047,9.16666667 C14.1851852,10.0238095 13.1529492,10.8095238 12.0006859,11.5238095 L11.1844993,10.547619 C13.68107,9.07142857 15.6735254,7.19047619 17.1378601,4.95238095 Z M20.3065844,11.2857143 C22.1310014,10.3809524 23.5953361,9.33333333 24.675583,8.16666667 L16.1536351,8.16666667 C16.0816187,8.23809524 16.0096022,8.30952381 15.9375857,8.4047619 C17.281893,9.54761905 18.7222222,10.5 20.3065844,11.2857143 Z M29.5486968,3.11904762 L29.5486968,7.38095238 L28.2283951,7.38095238 L28.2283951,4.28571429 L11.6646091,4.28571429 L11.6646091,7.38095238 L10.3443073,7.38095238 L10.3443073,3.11904762 L19.3223594,3.11904762 C19.0342936,2.42857143 18.6982167,1.80952381 18.3381344,1.23809524 L19.7544582,1 C20.090535,1.61904762 20.3786008,2.33333333 20.6666667,3.11904762 L29.5486968,3.11904762 Z M55.41861,5.5 L41.2073617,5.5 L41.2073617,10.6428571 L55.41861,10.6428571 L55.41861,5.5 Z M41.2073617,11.9047619 C41.1113397,16.1904762 39.9590764,19.9047619 37.774577,23 L36.7903521,22.1190476 C38.854824,19.3571429 39.9110654,15.8095238 39.9350709,11.4761905 L39.9350709,4.21428571 L47.8568816,4.21428571 C47.4247828,3.11904762 46.9446731,2.14285714 46.4165524,1.28571429 L47.7848651,1.04761905 C48.2649749,1.97619048 48.7210791,3.02380952 49.1531779,4.21428571 L56.7389118,4.21428571 L56.7389118,11.9047619 L41.2073617,11.9047619 Z M81.6245999,1.19047619 C82.8248743,2.0952381 83.8331047,3 84.6492913,3.9047619 L83.7850937,4.73809524 C83.0409236,3.88095238 82.0326932,2.95238095 80.7844079,1.97619048 L81.6245999,1.19047619 Z M83.6890718,8.38095238 L84.8653406,8.88095238 C83.8811157,12.0952381 82.6088249,14.7857143 81.0484682,16.9761905 C81.432556,17.8809524 81.8646548,18.6666667 82.320759,19.3333333 C83.1849566,20.5238095 83.9051212,21.1190476 84.4572474,21.1190476 C84.9853681,21.0952381 85.4414723,19.8095238 85.8255601,17.2857143 L87.001829,17.9047619 C86.4737083,21 85.7055327,22.547619 84.6973022,22.547619 C83.6890718,22.547619 82.6328304,21.8333333 81.5045725,20.4047619 C80.9764518,19.7380952 80.544353,18.9761905 80.1602652,18.1190476 C78.4078647,20.2142857 76.3673983,21.7619048 74.038866,22.7857143 L73.2946959,21.6904762 C75.7672611,20.5952381 77.8557385,18.9761905 79.5841335,16.7857143 C79.2240512,15.8809524 78.9119799,14.9285714 78.6479195,13.8809524 C78.1438043,11.8333333 77.8077275,9.26190476 77.6396891,6.19047619 L68.9497028,6.19047619 L68.9497028,10.5238095 L74.8310471,10.5238095 C74.8070416,14.3095238 74.6630087,16.8095238 74.3989483,18 C74.134888,19.047619 73.4387289,19.6190476 72.310471,19.6666667 C71.7103338,19.6666667 71.0141747,19.6428571 70.1979881,19.5952381 L69.7898948,18.4047619 C70.7261088,18.452381 71.5182899,18.5 72.166438,18.5 C72.7905807,18.452381 73.150663,18.047619 73.2946959,17.2619048 C73.4387289,16.3095238 73.5347508,14.4761905 73.5347508,11.7619048 L68.9497028,11.7619048 L68.9497028,12.8571429 C68.8776863,17.047619 67.9654778,20.3809524 66.2130773,22.9047619 L65.2288523,22.0238095 C66.789209,19.8333333 67.6053955,16.7857143 67.677412,12.8571429 L67.677412,4.97619048 L77.5916781,4.97619048 C77.5436671,3.73809524 77.5196616,2.45238095 77.5196616,1.11904762 L78.8159579,1.11904762 C78.8159579,2.5 78.8639689,3.78571429 78.9119799,4.97619048 L86.5217193,4.97619048 L86.5217193,6.19047619 L78.9599909,6.19047619 C79.1280293,9.28571429 79.4401006,11.7380952 79.9202103,13.5714286 C80.1122542,14.2857143 80.3042981,14.9285714 80.496342,15.5238095 C81.8406493,13.5238095 82.8968907,11.1428571 83.6890718,8.38095238 Z M96.9080933,5.23809524 L93.2592593,5.23809524 L93.2592593,3.97619048 L101.829218,3.97619048 L101.829218,5.23809524 L98.1803841,5.23809524 L98.1803841,16.6904762 C99.5246914,16.2857143 100.844993,15.8571429 102.117284,15.3809524 L102.117284,16.6904762 C99.4046639,17.6666667 96.4759945,18.4761905 93.3312757,19.1428571 L92.9951989,17.8571429 C94.3395062,17.6190476 95.6358025,17.3333333 96.9080933,17.0238095 L96.9080933,5.23809524 Z M106.534294,1.23809524 L107.83059,1.23809524 L107.83059,6.19047619 L114,6.19047619 C114,13.3571429 113.879973,17.7857143 113.663923,19.4761905 C113.375857,21.5714286 112.03155,22.6428571 109.606996,22.6428571 C109.198903,22.6428571 108.502743,22.6190476 107.518519,22.5952381 L107.230453,21.3809524 C108.09465,21.4285714 108.83882,21.452381 109.462963,21.452381 C111.191358,21.452381 112.175583,20.6428571 112.415638,19.047619 C112.607682,17.7142857 112.703704,13.8571429 112.751715,7.47619048 L107.83059,7.47619048 C107.686557,14.5 105.742112,19.6428571 102.021262,22.9047619 L100.989026,22 C104.541838,18.952381 106.390261,14.1190476 106.534294,7.47619048 L102.525377,7.47619048 L102.525377,6.19047619 L106.534294,6.19047619 L106.534294,1.23809524 Z" fill="#333333"></path>
                        <rect id="Rectangle" fill="#FFFFFF" fill-rule="nonzero" opacity="0" x="0" y="0" width="114" height="24"></rect>
                    </g>
                </g>
                <path d="M135.559038,12.3118075 L137.74169,14.4944601 C138.086103,14.8388732 138.086103,15.3972771 137.74169,15.7416902 C137.397277,16.0861033 136.838873,16.0861033 136.49446,15.7416902 L134.311808,13.5590376 C134.139601,13.386831 133.860399,13.386831 133.688192,13.5590376 L131.50554,15.7416902 C131.161127,16.0861033 130.602723,16.0861033 130.25831,15.7416902 C129.913897,15.3972771 129.913897,14.8388732 130.25831,14.4944601 L132.440962,12.3118075 C132.613169,12.139601 132.613169,11.860399 132.440962,11.6881925 L130.25831,9.50553987 C129.913897,9.1611268 129.913897,8.60272288 130.25831,8.2583098 C130.602723,7.91389673 131.161127,7.91389673 131.50554,8.2583098 L133.688192,10.4409624 C133.860399,10.613169 134.139601,10.613169 134.311808,10.4409624 L136.49446,8.2583098 C136.838873,7.91389673 137.397277,7.91389673 137.74169,8.2583098 C138.086103,8.60272288 138.086103,9.1611268 137.74169,9.50553987 L135.559038,11.6881925 C135.386831,11.860399 135.386831,12.139601 135.559038,12.3118075 Z" id="Combined-Shape" fill="#333333" fill-rule="nonzero"></path>
            </g>
        </g>
    </g>
</svg>