<?xml version="1.0" encoding="UTF-8"?>
<svg width="98px" height="60px" viewBox="0 0 98 60" version="1.1" xmlns="http://www.w3.org/2000/svg" xmlns:xlink="http://www.w3.org/1999/xlink">
    <!-- Generator: Sketch 52.6 (67491) - http://www.bohemiancoding.com/sketch -->
    <title>系统平台 技术支持 黑色</title>
    <desc>Created with Sketch.</desc>
    <g id="页面" stroke="none" stroke-width="1" fill="none" fill-rule="evenodd">
        <g id="1-首页" transform="translate(-941.000000, -3134.000000)">
            <g id="系统平台-技术支持-黑色" transform="translate(941.000000, 3134.000000)">
                <path d="M9.3,19 L7.04,19 L6.6,17.14 C7.32,17.22 8,17.26 8.64,17.26 C9.06,17.26 9.28,17.04 9.28,16.6 L9.28,12.18 C7.36,12.3 5.32,12.4 3.12,12.5 L2.6,10.84 C3.2,10.78 3.76,10.66 4.24,10.5 C5.72,9.86 7.34,8.9 9.1,7.6 C7.5,7.72 5.78,7.84 3.98,7.94 L3.58,6.26 C4.04,6.22 4.46,6.1 4.86,5.92 C5.66,5.52 6.62,4.7 7.74,3.46 C6.16,3.52 4.5,3.56 2.74,3.56 L2.18,1.92 C7.9,1.92 12.74,1.52 16.68,0.76 L17.62,2.34 C15.5,2.8 12.98,3.12 10.1,3.32 C9.06,4.52 7.98,5.52 6.86,6.32 C8.26,6.24 9.66,6.16 11.06,6.06 C11.9,5.36 12.78,4.6 13.68,3.78 L15.44,4.64 C12.26,7.4 9.5,9.42 7.16,10.74 C9.94,10.56 12.36,10.34 14.42,10.1 C13.98,9.52 13.54,8.94 13.06,8.36 L14.46,7.48 C16.12,9.4 17.4,11.1 18.28,12.54 L16.76,13.6 C16.4,12.96 15.98,12.3 15.52,11.62 C14.2,11.78 12.76,11.92 11.18,12.04 L11.18,17.06 C11.18,18.34 10.54,19 9.3,19 Z M13.88,12.96 C15.88,14.4 17.54,15.84 18.88,17.28 L17.52,18.64 C16.36,17.26 14.72,15.78 12.62,14.2 L13.88,12.96 Z M5.9,13.1 L7.24,14.3 C5.88,15.92 4.22,17.34 2.22,18.56 L1.02,17 C2.94,15.88 4.58,14.58 5.9,13.1 Z M33.64,14.18 L33.64,16 C31.82,16.92 29.74,17.68 27.42,18.24 L27.2,16.34 C29.64,15.8 31.8,15.08 33.64,14.18 Z M30.16,0.52 L31.98,1.24 C31.02,3.62 30.06,5.56 29.1,7.04 C29.78,6.96 30.46,6.86 31.14,6.74 C31.48,6.1 31.84,5.4 32.2,4.66 L33.9,5.3 C32.3,8.34 30.96,10.58 29.86,12.02 C31.1,11.68 32.36,11.24 33.64,10.68 L33.64,12.42 C31.48,13.32 29.42,13.92 27.48,14.24 L26.98,12.48 C27.32,12.32 27.6,12.14 27.84,11.92 C28.46,11.26 29.24,10.12 30.18,8.5 C29.26,8.66 28.3,8.8 27.3,8.94 L26.82,7.2 C27.12,7.08 27.4,6.82 27.64,6.46 C28.6,4.68 29.44,2.7 30.16,0.52 Z M34.24,9.58 L33.82,7.9 C33.98,7.86 34.12,7.8 34.2,7.76 C34.8,7.32 35.58,6.18 36.52,4.38 L33.42,4.38 L33.42,2.56 L38.28,2.56 C38.04,1.92 37.78,1.32 37.5,0.76 L39.44,0.44 C39.7,1.08 39.96,1.78 40.2,2.56 L44.58,2.56 L44.58,4.38 L38.5,4.38 C37.74,5.82 37.06,6.92 36.46,7.72 C38.08,7.56 39.7,7.36 41.3,7.12 C40.9,6.56 40.5,6.02 40.1,5.48 L41.54,4.58 C42.86,6.28 43.88,7.78 44.6,9.06 L43.12,10.08 C42.88,9.62 42.6,9.16 42.32,8.68 C39.84,9.06 37.14,9.36 34.24,9.58 Z M35.72,10.2 L37.56,10.2 C37.46,12.74 37.14,14.6 36.62,15.78 C36.04,17.02 35.08,18.1 33.72,19.02 L32.52,17.52 C33.64,16.8 34.44,15.94 34.92,14.94 C35.38,13.98 35.64,12.4 35.72,10.2 Z M43.04,18.7 L41.76,18.7 C40.34,18.7 39.64,18.06 39.64,16.8 L39.64,9.98 L41.46,9.98 L41.46,16.44 C41.46,16.76 41.58,16.96 41.82,17 L42.94,17 C43.3,16.96 43.52,16.7 43.56,16.22 C43.62,15.68 43.66,14.9 43.66,13.9 L45.3,14.48 C45.3,16.4 45.14,17.56 44.86,18 C44.58,18.4 43.96,18.62 43.04,18.7 Z M53.88,1.36 L70.16,1.36 L70.16,3.22 L62.88,3.22 L62.88,10.3 L70.92,10.3 L70.92,12.12 L62.88,12.12 L62.88,19.04 L60.96,19.04 L60.96,12.12 L53.08,12.12 L53.08,10.3 L60.96,10.3 L60.96,3.22 L53.88,3.22 L53.88,1.36 Z M56.68,4.16 C57.4,5.52 58.1,7 58.78,8.64 L57,9.52 C56.34,7.84 55.64,6.34 54.9,5.02 L56.68,4.16 Z M67.48,4.08 L69.22,4.9 C68.64,6.44 67.88,7.94 66.96,9.42 L65.24,8.54 C66.18,7.02 66.92,5.54 67.48,4.08 Z M94.84,10.58 L94.84,19.08 L92.92,19.08 L92.92,18.26 L83.08,18.26 L83.08,19.08 L81.16,19.08 L81.16,10.58 L94.84,10.58 Z M83.08,16.44 L92.92,16.44 L92.92,12.4 L83.08,12.4 L83.08,16.44 Z M79.86,8.72 L79.5,6.92 C81.02,6.58 83.12,4.44 85.8,0.52 L87.78,1.2 C86.16,3.44 84.52,5.32 82.84,6.84 C86.24,6.72 89.52,6.5 92.7,6.2 C92.06,5.24 91.4,4.36 90.74,3.52 L92.46,2.7 C94.08,4.7 95.62,6.9 97.08,9.32 L95.22,10.24 C94.74,9.4 94.28,8.62 93.82,7.88 C89.64,8.24 84.98,8.52 79.86,8.72 Z" id="系统平台" fill="#111111"></path>
                <path d="M3.2,58.84 L1.5,58.84 L1.1,57.06 C1.62,57.14 2.1,57.18 2.56,57.18 C3.04,57.18 3.28,56.9 3.28,56.36 L3.28,52.12 C2.56,52.4 1.82,52.68 1.1,52.92 L0.62,51.04 C1.52,50.84 2.4,50.58 3.28,50.26 L3.28,45.94 L1.02,45.94 L1.02,44.12 L3.28,44.12 L3.28,40.62 L5.12,40.62 L5.12,44.12 L7.08,44.12 L7.08,45.94 L5.12,45.94 L5.12,49.5 C5.8,49.18 6.46,48.84 7.12,48.48 L7.12,50.34 C6.46,50.7 5.8,51.02 5.12,51.34 L5.12,56.84 C5.12,58.16 4.48,58.84 3.2,58.84 Z M7.64,43.34 L12.32,43.34 L12.32,40.66 L14.16,40.66 L14.16,43.34 L18.84,43.34 L18.84,45.16 L14.16,45.16 L14.16,48.02 L18.08,48.02 L18.08,49.7 C17.44,51.78 16.38,53.58 14.86,55.08 C16.1,56 17.62,56.82 19.4,57.52 L18.42,59.08 C16.5,58.24 14.88,57.28 13.56,56.24 C12.04,57.42 10.2,58.38 8.04,59.14 L7.14,57.56 C9.14,56.92 10.84,56.1 12.22,55.06 C10.66,53.5 9.62,51.76 9.08,49.8 L8.04,49.8 L8.04,48.02 L12.32,48.02 L12.32,45.16 L7.64,45.16 L7.64,43.34 Z M10.86,49.8 C11.34,51.36 12.22,52.74 13.52,53.96 C14.72,52.76 15.62,51.38 16.22,49.8 L10.86,49.8 Z M27.46,45.18 L35.06,45.18 L35.06,40.56 L36.94,40.56 L36.94,45.18 L44.56,45.18 L44.56,47 L38.68,47 C39.96,50.12 42.12,52.9 45.16,55.34 L43.88,56.94 C40.58,54.02 38.26,50.74 36.94,47.1 L36.94,59.02 L35.06,59.02 L35.06,47.14 C33.6,51.14 31.18,54.44 27.8,57.02 L26.76,55.32 C29.76,53.16 31.96,50.38 33.32,47 L27.46,47 L27.46,45.18 Z M40.2,40.58 C41.34,41.78 42.22,42.82 42.84,43.7 L41.32,44.78 C40.68,43.78 39.8,42.7 38.72,41.5 L40.2,40.58 Z M61,40.6 L62.96,40.6 L62.96,43.06 L70.62,43.06 L70.62,44.9 L62.96,44.9 L62.96,47.52 L68.28,47.52 L68.28,49.2 C67.22,51.36 65.68,53.2 63.68,54.74 C64.58,55.22 65.56,55.68 66.62,56.08 C68.06,56.6 69.56,57.06 71.16,57.42 L70.06,59.1 C68.32,58.64 66.68,58.08 65.12,57.42 C64.02,56.94 63,56.42 62.06,55.86 C59.84,57.24 57.16,58.34 54.04,59.18 L52.94,57.48 C55.86,56.82 58.36,55.9 60.42,54.74 C59.42,53.96 58.54,53.08 57.8,52.12 C57.1,51.24 56.6,50.3 56.3,49.3 L54.9,49.3 L54.9,47.52 L61,47.52 L61,44.9 L53.38,44.9 L53.38,43.06 L61,43.06 L61,40.6 Z M62.02,53.74 C63.78,52.48 65.16,51 66.12,49.3 L58.18,49.3 C58.54,50.24 59.06,51.06 59.74,51.78 C60.42,52.5 61.18,53.16 62.02,53.74 Z M90.36,40.72 L92.22,40.72 L92.22,42.58 L96.16,42.58 L96.16,44.32 L92.22,44.32 L92.22,46.22 L96.92,46.22 L96.92,48.02 L85.88,48.02 L85.88,46.22 L90.36,46.22 L90.36,44.32 L86.6,44.32 L86.6,42.58 L90.36,42.58 L90.36,40.72 Z M85.56,50.14 L92.68,50.14 L92.68,48.76 L94.58,48.76 L94.58,50.14 L96.94,50.14 L96.94,51.92 L94.58,51.92 L94.58,56.92 C94.58,58.24 93.92,58.92 92.6,58.92 L89.96,58.92 L89.54,57.08 C90.38,57.14 91.16,57.18 91.92,57.18 C92.42,57.18 92.68,56.92 92.68,56.44 L92.68,51.92 L85.56,51.92 L85.56,50.14 Z M81.3,58.88 L79.54,58.88 L79.14,57.06 C79.66,57.14 80.16,57.18 80.64,57.18 C81.12,57.18 81.38,56.92 81.38,56.4 L81.38,52.22 C80.68,52.46 79.98,52.7 79.26,52.92 L78.78,51 C79.66,50.8 80.52,50.56 81.38,50.28 L81.38,46.1 L79.1,46.1 L79.1,44.28 L81.38,44.28 L81.38,40.86 L83.24,40.86 L83.24,44.28 L85.16,44.28 L85.16,46.1 L83.24,46.1 L83.24,49.58 C83.9,49.28 84.54,48.96 85.18,48.64 L85.18,50.58 C84.54,50.9 83.88,51.2 83.24,51.48 L83.24,56.88 C83.24,58.2 82.58,58.88 81.3,58.88 Z M88,52.56 C88.94,53.74 89.66,54.78 90.16,55.68 L88.66,56.72 C88.12,55.76 87.38,54.68 86.46,53.5 L88,52.56 Z" id="技术支持" fill="#111111"></path>
                <rect id="矩形" fill="#FFFFFF" fill-rule="nonzero" opacity="0" x="0" y="0" width="98" height="60"></rect>
            </g>
        </g>
    </g>
</svg>