<?xml version="1.0" encoding="UTF-8"?>
<svg width="80px" height="80px" viewBox="0 0 80 80" version="1.1" xmlns="http://www.w3.org/2000/svg" xmlns:xlink="http://www.w3.org/1999/xlink">
    <!-- Generator: Sketch 52.6 (67491) - http://www.bohemiancoding.com/sketch -->
    <title>雇主品牌icon 蓝色</title>
    <desc>Created with Sketch.</desc>
    <g id="组件" stroke="none" stroke-width="1" fill="none" fill-rule="evenodd">
        <g id="雇主品牌icon11" fill-rule="nonzero">
            <g id="雇主品牌icon">
                <path d="M23.541738,17.6928498 L39.8181025,16.0187095 C39.9390485,16.0062693 40.0609515,16.0062693 40.1818975,16.0187095 L56.458262,17.6928498 C56.9816045,17.7466793 57.4542272,18.0295439 57.7489655,18.4653355 L70.2890575,37.0067573 C70.7663085,37.712407 70.6759098,38.6574236 70.0735353,39.259798 L41.2570787,68.0762546 C40.5628133,68.77052 39.4371867,68.77052 38.7429213,68.0762546 L9.92646468,39.259798 C9.32409022,38.6574236 9.23369147,37.712407 9.71094246,37.0067573 L22.2510345,18.4653355 C22.5457728,18.0295439 23.0183955,17.7466793 23.541738,17.6928498 Z" id="Rectangle-Copy-42" fill="#FFFFFF"></path>
                <path d="M23.7236355,19.4612975 L11.1835434,38.0027193 L40,66.8191759 L68.8164566,38.0027193 L56.2763645,19.4612975 L40,17.7871571 L23.7236355,19.4612975 Z M23.541738,17.6928498 L39.8181025,16.0187095 C39.9390485,16.0062693 40.0609515,16.0062693 40.1818975,16.0187095 L56.458262,17.6928498 C56.9816045,17.7466793 57.4542272,18.0295439 57.7489655,18.4653355 L70.2890575,37.0067573 C70.7663085,37.712407 70.6759098,38.6574236 70.0735353,39.259798 L41.2570787,68.0762546 C40.5628133,68.77052 39.4371867,68.77052 38.7429213,68.0762546 L9.92646468,39.259798 C9.32409022,38.6574236 9.23369147,37.712407 9.71094246,37.0067573 L22.2510345,18.4653355 C22.5457728,18.0295439 23.0183955,17.7466793 23.541738,17.6928498 Z" id="Rectangle-Copy-45" fill="#0F5AFF"></path>
                <path d="M41.5461083,66.6092378 C41.3876839,66.8883665 41.1566496,67.1194007 40.8775209,67.2778251 C40.0236289,67.7624666 38.9385331,67.4631298 38.4538917,66.6092378 L21.3333333,36.4444444 L38.6871369,17.4378977 C38.7234424,17.3981345 38.7615357,17.3600412 38.8012989,17.3237357 C39.5263732,16.6617113 40.6508388,16.7128234 41.3128631,17.4378977 L58.6666667,36.4444444 L41.5461083,66.6092378 Z" id="Rectangle-Copy-43" fill="#0F5AFF" opacity="0.1"></path>
                <path d="M23.5167087,47.6788858 L40,65.7320144 L56.4832913,47.6788858 L40,18.6368963 L23.5167087,47.6788858 Z M58.6666667,47.9241687 L41.3128631,66.9307155 C40.6508388,67.6557898 39.5263732,67.7069019 38.8012989,67.0448775 C38.7615357,67.008572 38.7234424,66.9704787 38.6871369,66.9307155 L21.3333333,47.9241687 L38.4538917,17.7593754 C38.9385331,16.9054834 40.0236289,16.6061466 40.8775209,17.0907881 C41.1566496,17.2492124 41.3876839,17.4802467 41.5461083,17.7593754 L58.6666667,47.9241687 Z" id="Rectangle-Copy-44" fill="#0F5AFF" transform="translate(40.000000, 42.184307) scale(1, -1) translate(-40.000000, -42.184307) "></path>
                <polygon id="Path" fill="#0F5AFF" opacity="0.1" points="23.7236355 19.4612975 12.2374491 36.4444444 67.7625509 36.4444444 56.2763645 19.4612975 40 17.7871571"></polygon>
                <path d="M23.7236355,19.4612975 L12.2374491,36.4444444 L67.7625509,36.4444444 L56.2763645,19.4612975 L40,17.7871571 L23.7236355,19.4612975 Z M23.541738,17.6928498 L39.8181025,16.0187095 C39.9390485,16.0062693 40.0609515,16.0062693 40.1818975,16.0187095 L56.458262,17.6928498 C56.9816045,17.7466793 57.4542272,18.0295439 57.7489655,18.4653355 L69.2351518,35.4484825 C69.7852065,36.2617775 69.5718079,37.3669908 68.7585129,37.9170454 C68.4644434,38.115933 68.1175623,38.2222222 67.7625509,38.2222222 L12.2374491,38.2222222 C11.2556095,38.2222222 10.4596713,37.426284 10.4596713,36.4444444 C10.4596713,36.089433 10.5659606,35.7425519 10.7648482,35.4484825 L22.2510345,18.4653355 C22.5457728,18.0295439 23.0183955,17.7466793 23.541738,17.6928498 Z" id="Rectangle" fill="#0F5AFF"></path>
                <path d="M24.206756,17.624448 L39.8181025,16.0187095 C39.9390485,16.0062693 40.0609515,16.0062693 40.1818975,16.0187095 L55.793244,17.624448 C56.6544699,17.7130312 57.3266513,18.4091372 57.3850723,19.2729335 L58.6666667,38.2222222 L21.3333333,38.2222222 L22.6149277,19.2729335 C22.6733487,18.4091372 23.3455301,17.7130312 24.206756,17.624448 Z" id="Path" fill="#FFFFFF"></path>
                <path d="M55.6113465,19.3928956 L40,17.7871571 L24.3886535,19.3928956 L23.2354086,36.4444444 L56.7645914,36.4444444 L55.6113465,19.3928956 Z M24.206756,17.624448 L39.8181025,16.0187095 C39.9390485,16.0062693 40.0609515,16.0062693 40.1818975,16.0187095 L55.793244,17.624448 C56.6544699,17.7130312 57.3266513,18.4091372 57.3850723,19.2729335 L58.6666667,38.2222222 L21.3333333,38.2222222 L22.6149277,19.2729335 C22.6733487,18.4091372 23.3455301,17.7130312 24.206756,17.624448 Z" id="Rectangle-Copy-40" fill="#0F5AFF"></path>
                <polygon id="Path" fill="#0F5AFF" opacity="0.1" points="40 16 60.4444444 38.2222222 19.5555556 38.2222222"></polygon>
                <path d="M23.6067965,36.4444444 L56.3932035,36.4444444 L40,18.625745 L23.6067965,36.4444444 Z M40,16 L60.4444444,38.2222222 L19.5555556,38.2222222 L40,16 Z" id="Rectangle-Copy-41" fill="#0F5AFF"></path>
                <rect id="Rectangle" fill="#FFFFFF" opacity="0" x="0" y="0" width="80" height="80"></rect>
            </g>
        </g>
    </g>
</svg>