<?xml version="1.0" encoding="UTF-8"?>
<svg width="376px" height="36px" viewBox="0 0 376 36" version="1.1" xmlns="http://www.w3.org/2000/svg" xmlns:xlink="http://www.w3.org/1999/xlink">
    <!-- Generator: Sketch 52.6 (67491) - http://www.bohemiancoding.com/sketch -->
    <title>以您的成功 定义成功</title>
    <desc>Created with Sketch.</desc>
    <g id="页面" stroke="none" stroke-width="1" fill="none" fill-rule="evenodd">
        <g id="1-首页" transform="translate(-98.000000, -2934.000000)">
            <g id="分组-20" transform="translate(98.000000, 2934.000000)">
                <g id="以您的成功-定义成功">
                    <path d="M13.572,5.512 C16.848,9.292 19.368,12.604 21.096,15.412 L18.9,16.924 C17.064,13.9 14.58,10.552 11.412,6.844 L13.572,5.512 Z M25.956,23.152 C23.58,27.508 19.764,31.216 14.508,34.24 L12.78,32.116 C18.9,28.588 22.968,24.196 24.948,18.868 C26.46,14.368 27.216,8.644 27.252,1.696 L29.952,1.696 C29.952,8.536 29.196,14.296 27.684,19.048 C27.504,19.588 27.324,20.128 27.108,20.668 C30.06,24.412 32.544,28.156 34.56,31.9 L32.58,33.88 C30.888,30.496 28.692,26.932 25.956,23.152 Z M4.644,30.496 L3.78,28.048 C4.428,27.544 4.752,26.896 4.752,26.068 L4.752,2.632 L7.416,2.632 L7.416,26.68 C10.224,25.528 12.996,24.124 15.768,22.468 L16.488,24.988 C12.816,27.112 8.856,28.948 4.644,30.496 Z M60.952,21.604 L58.072,21.604 L57.532,19.192 C58.432,19.3 59.296,19.372 60.088,19.372 C60.736,19.372 61.096,18.904 61.096,18.004 L61.096,8.86 L63.688,8.86 L63.688,18.616 C63.688,20.596 62.752,21.604 60.952,21.604 Z M46.192,11.272 C45.148,12.496 44.068,13.612 42.952,14.62 L41.332,12.64 C44.572,9.832 47.236,6.124 49.324,1.552 L51.844,2.092 C50.908,4.18 49.864,6.124 48.712,7.888 L48.712,21.64 L46.192,21.64 L46.192,11.272 Z M57.424,1.516 L59.872,2.056 C59.44,3.028 58.972,3.964 58.54,4.828 L72.976,4.828 L72.976,6.448 C72.508,8.248 71.932,10.012 71.212,11.74 L68.872,11.128 C69.484,9.94 69.988,8.644 70.384,7.204 L57.1,7.204 C55.732,9.292 54.148,11.092 52.42,12.676 L50.836,10.732 C53.536,8.356 55.732,5.296 57.424,1.516 Z M45.58,23.476 L48.064,23.98 C47.2,27.436 46.012,30.46 44.464,33.016 L42.268,31.612 C43.78,29.164 44.86,26.428 45.58,23.476 Z M63.292,34.06 L54.076,34.06 C51.844,34.06 50.764,32.908 50.764,30.604 L50.764,23.008 L53.392,23.008 L53.392,30.064 C53.392,31.072 53.86,31.612 54.868,31.612 L62.788,31.612 C63.508,31.612 64.012,31.396 64.336,30.964 C64.768,30.46 65.02,29.02 65.164,26.644 L67.612,27.436 C67.36,30.604 66.892,32.512 66.172,33.196 C65.56,33.772 64.588,34.06 63.292,34.06 Z M69.412,22.36 C71.716,25.528 73.444,28.3 74.668,30.676 L72.544,32.188 C71.248,29.596 69.484,26.752 67.288,23.656 L69.412,22.36 Z M56.452,12.316 L58.54,13.288 C57.172,16.06 55.588,18.472 53.788,20.488 L51.808,19.12 C53.608,17.176 55.156,14.908 56.452,12.316 Z M68.404,12.28 C70.132,14.44 71.644,16.852 72.976,19.516 L70.78,20.632 C69.412,17.824 67.864,15.376 66.208,13.216 L68.404,12.28 Z M58.252,22.036 C60.052,24.088 61.42,25.888 62.356,27.436 L60.34,28.84 C59.332,27.184 57.964,25.312 56.236,23.296 L58.252,22.036 Z M94.544,7.816 L94.544,32.368 L92.024,32.368 L92.024,30.316 L85.472,30.316 L85.472,33.412 L82.952,33.412 L82.952,7.816 L86.3,7.816 C87.02,5.8 87.524,3.712 87.848,1.552 L90.44,1.912 C90.008,4.036 89.468,6.016 88.748,7.816 L94.544,7.816 Z M85.472,27.904 L92.024,27.904 L92.024,20.02 L85.472,20.02 L85.472,27.904 Z M85.472,17.68 L92.024,17.68 L92.024,10.264 L85.472,10.264 L85.472,17.68 Z M100.808,16.168 C103.4,19.156 105.344,21.784 106.712,24.016 L104.66,25.456 C103.184,23.08 101.204,20.416 98.72,17.464 L100.808,16.168 Z M113.156,7.852 C113.156,19.804 112.976,27.22 112.616,30.028 C112.256,32.764 110.6,34.168 107.576,34.168 C106.856,34.168 105.632,34.096 103.904,34.024 L103.292,31.648 C104.804,31.72 106.1,31.756 107.216,31.756 C108.908,31.756 109.88,30.82 110.168,28.984 C110.384,26.968 110.528,20.74 110.6,10.372 L100.7,10.372 C99.692,12.64 98.504,14.692 97.1,16.528 L95.552,14.476 C98.072,10.948 99.764,6.628 100.7,1.516 L103.256,1.84 C102.824,3.964 102.32,5.98 101.672,7.852 L113.156,7.852 Z M146.784,1.48 C148.512,2.776 149.988,4.108 151.212,5.44 L149.556,7.096 L153.948,7.096 L153.948,9.58 L142.86,9.58 C143.112,14.044 143.58,17.572 144.228,20.164 C144.444,21.064 144.696,21.892 144.948,22.684 C146.748,19.804 148.188,16.42 149.304,12.568 L151.644,13.576 C150.204,18.328 148.332,22.36 146.028,25.6 C146.532,26.752 147.072,27.76 147.648,28.588 C148.836,30.316 149.808,31.18 150.528,31.18 C151.176,31.144 151.788,29.272 152.328,25.564 L154.668,26.86 C153.804,31.648 152.58,34.06 150.96,34.06 C149.448,34.06 147.828,32.98 146.1,30.82 C145.452,29.956 144.84,28.948 144.3,27.832 C141.78,30.784 138.828,32.98 135.444,34.492 L134.004,32.332 C137.604,30.712 140.664,28.336 143.148,25.204 C142.644,23.872 142.176,22.432 141.78,20.884 C140.988,17.86 140.484,14.08 140.196,9.58 L127.848,9.58 L127.848,15.556 L136.668,15.556 C136.596,21.64 136.308,25.564 135.84,27.328 C135.372,28.876 134.256,29.668 132.456,29.74 C131.592,29.74 130.548,29.668 129.396,29.596 L128.604,27.256 C130.008,27.328 131.196,27.364 132.168,27.364 C132.96,27.328 133.464,26.788 133.68,25.78 C133.896,24.556 134.004,21.964 134.076,18.004 L127.848,18.004 L127.848,19.084 C127.704,25.528 126.264,30.712 123.6,34.6 L121.62,32.836 C123.924,29.524 125.112,24.952 125.22,19.084 L125.22,7.096 L140.088,7.096 C140.016,5.296 139.98,3.46 139.98,1.516 L142.644,1.516 C142.644,3.532 142.68,5.368 142.752,7.096 L149.484,7.096 C148.404,5.8 146.964,4.468 145.128,3.064 L146.784,1.48 Z M167.056,8.104 L161.872,8.104 L161.872,5.62 L174.868,5.62 L174.868,8.104 L169.684,8.104 L169.684,24.628 C171.592,24.088 173.464,23.476 175.3,22.756 L175.3,25.348 C171.196,26.86 166.804,28.084 162.124,29.092 L161.476,26.5 C163.348,26.176 165.22,25.78 167.056,25.348 L167.056,8.104 Z M181.492,1.696 L184.156,1.696 L184.156,8.968 L193.3,8.968 C193.3,20.2 193.12,27.148 192.76,29.812 C192.328,32.764 190.276,34.276 186.64,34.276 C185.992,34.276 184.912,34.204 183.364,34.132 L182.752,31.72 C184.084,31.792 185.236,31.828 186.244,31.828 C188.584,31.828 189.952,30.784 190.312,28.732 C190.528,26.86 190.672,21.1 190.744,11.488 L184.156,11.488 C183.976,22.072 181.096,29.812 175.552,34.744 L173.428,32.908 C178.684,28.444 181.348,21.28 181.492,11.488 L175.768,11.488 L175.768,8.968 L181.492,8.968 L181.492,1.696 Z M223.44,12.28 L244.608,12.28 L244.608,14.728 L235.464,14.728 L235.464,21.064 L246.192,21.064 L246.192,23.512 L235.464,23.512 L235.464,30.964 C237.984,31.324 241.008,31.54 244.608,31.576 C246.444,31.576 248.316,31.504 250.26,31.36 L249.792,33.952 L245.76,33.952 C238.488,33.952 233.304,33.268 230.136,31.936 C227.76,30.82 225.816,29.092 224.34,26.752 C222.936,29.848 221.208,32.44 219.156,34.528 L217.5,32.476 C220.956,28.804 223.26,23.872 224.484,17.68 L227.004,18.112 C226.572,20.344 225.996,22.396 225.348,24.268 C227.076,27.364 229.236,29.308 231.828,30.136 C232.152,30.244 232.512,30.352 232.872,30.424 L232.872,14.728 L223.44,14.728 L223.44,12.28 Z M248.712,5.26 L248.712,12.928 L246.192,12.928 L246.192,7.636 L221.784,7.636 L221.784,13.108 L219.264,13.108 L219.264,5.26 L233.016,5.26 C232.476,3.964 231.864,2.776 231.216,1.696 L233.988,1.264 C234.564,2.452 235.14,3.784 235.644,5.26 L248.712,5.26 Z M271.144,1.588 C273.412,4.18 275.392,7.06 277.12,10.156 L274.78,11.344 C272.944,8.104 270.928,5.224 268.696,2.704 L271.144,1.588 Z M283.672,3.28 L286.228,3.856 C284.608,12.28 281.296,19.084 276.256,24.304 C280.288,27.616 284.968,30.208 290.368,32.08 L288.748,34.492 C283.204,32.404 278.416,29.632 274.312,26.176 C270.244,29.812 265.24,32.584 259.336,34.528 L257.896,32.188 C263.584,30.352 268.372,27.724 272.26,24.34 C267.58,19.84 263.908,14.368 261.208,7.888 L263.584,6.556 C266.104,12.928 269.632,18.256 274.168,22.504 C278.992,17.5 282.16,11.092 283.672,3.28 Z M322.772,1.48 C324.5,2.776 325.976,4.108 327.2,5.44 L325.544,7.096 L329.936,7.096 L329.936,9.58 L318.848,9.58 C319.1,14.044 319.568,17.572 320.216,20.164 C320.432,21.064 320.684,21.892 320.936,22.684 C322.736,19.804 324.176,16.42 325.292,12.568 L327.632,13.576 C326.192,18.328 324.32,22.36 322.016,25.6 C322.52,26.752 323.06,27.76 323.636,28.588 C324.824,30.316 325.796,31.18 326.516,31.18 C327.164,31.144 327.776,29.272 328.316,25.564 L330.656,26.86 C329.792,31.648 328.568,34.06 326.948,34.06 C325.436,34.06 323.816,32.98 322.088,30.82 C321.44,29.956 320.828,28.948 320.288,27.832 C317.768,30.784 314.816,32.98 311.432,34.492 L309.992,32.332 C313.592,30.712 316.652,28.336 319.136,25.204 C318.632,23.872 318.164,22.432 317.768,20.884 C316.976,17.86 316.472,14.08 316.184,9.58 L303.836,9.58 L303.836,15.556 L312.656,15.556 C312.584,21.64 312.296,25.564 311.828,27.328 C311.36,28.876 310.244,29.668 308.444,29.74 C307.58,29.74 306.536,29.668 305.384,29.596 L304.592,27.256 C305.996,27.328 307.184,27.364 308.156,27.364 C308.948,27.328 309.452,26.788 309.668,25.78 C309.884,24.556 309.992,21.964 310.064,18.004 L303.836,18.004 L303.836,19.084 C303.692,25.528 302.252,30.712 299.588,34.6 L297.608,32.836 C299.912,29.524 301.1,24.952 301.208,19.084 L301.208,7.096 L316.076,7.096 C316.004,5.296 315.968,3.46 315.968,1.516 L318.632,1.516 C318.632,3.532 318.668,5.368 318.74,7.096 L325.472,7.096 C324.392,5.8 322.952,4.468 321.116,3.064 L322.772,1.48 Z M343.044,8.104 L337.86,8.104 L337.86,5.62 L350.856,5.62 L350.856,8.104 L345.672,8.104 L345.672,24.628 C347.58,24.088 349.452,23.476 351.288,22.756 L351.288,25.348 C347.184,26.86 342.792,28.084 338.112,29.092 L337.464,26.5 C339.336,26.176 341.208,25.78 343.044,25.348 L343.044,8.104 Z M357.48,1.696 L360.144,1.696 L360.144,8.968 L369.288,8.968 C369.288,20.2 369.108,27.148 368.748,29.812 C368.316,32.764 366.264,34.276 362.628,34.276 C361.98,34.276 360.9,34.204 359.352,34.132 L358.74,31.72 C360.072,31.792 361.224,31.828 362.232,31.828 C364.572,31.828 365.94,30.784 366.3,28.732 C366.516,26.86 366.66,21.1 366.732,11.488 L360.144,11.488 C359.964,22.072 357.084,29.812 351.54,34.744 L349.416,32.908 C354.672,28.444 357.336,21.28 357.48,11.488 L351.756,11.488 L351.756,8.968 L357.48,8.968 L357.48,1.696 Z" stroke="#111111" fill="#111111"></path>
                    <rect id="矩形" fill="#FFFFFF" fill-rule="nonzero" opacity="0" x="0" y="0" width="376" height="36"></rect>
                </g>
            </g>
        </g>
    </g>
</svg>