<?xml version="1.0" encoding="UTF-8"?>
<svg width="40px" height="48px" viewBox="0 0 40 48" version="1.1" xmlns="http://www.w3.org/2000/svg" xmlns:xlink="http://www.w3.org/1999/xlink">
    <!-- Generator: Sketch 52.6 (67491) - http://www.bohemiancoding.com/sketch -->
    <title>安全保障icon</title>
    <desc>Created with Sketch.</desc>
    <g id="组件" stroke="none" stroke-width="1" fill="none" fill-rule="evenodd">
        <g id="安全保障icon" fill-rule="nonzero">
            <g>
                <path d="M20,-5.32907052e-14 C25.733724,4.93333333 32.4003906,7.4 40,7.4 L40,28 C40,33 34.9628906,44.6982422 20,48 L20,-5.32907052e-14 Z" id="Rectangle-Copy-124" fill="#E9EDF6"></path>
                <path d="M1,8.38614091 L1,28 C1,30.7253958 2.46578457,34.6363337 5.11198633,38.0054219 C8.49213808,42.3089597 13.462467,45.4881741 19.9999403,46.9752037 C26.4639367,45.5035727 31.4242371,42.3242544 34.8263479,38.0170108 C37.5009144,34.6308749 39,30.6997844 39,28 L39,8.38601177 C31.8577129,8.18516758 25.5140582,5.82170079 20.0020078,1.30730616 C14.5207724,5.82290814 8.17552787,8.18619343 1,8.38614091 Z" id="路径" stroke="#111111" stroke-width="2"></path>
                <path d="M28.107853,17.1858086 C28.5680357,16.6347069 29.3878436,16.5610024 29.9389454,17.021185 C30.4900471,17.4813676 30.5637516,18.3011756 30.103569,18.8522773 L20.2500534,30.6525703 C19.7963329,31.1959331 18.9912657,31.276395 18.422808,30.8196342 L11.9868336,24.8584789 C11.426684,24.4093536 11.336681,23.5911745 11.7858064,23.0310249 C12.2349317,22.4708753 13.0531107,22.3808723 13.63139,22.8457674 L19.086884,27.9890672 L28.107853,17.1858086 Z" id="路径" fill="#111111"></path>
            </g>
        </g>
    </g>
</svg>