<?xml version="1.0" encoding="utf-8"?>
<!-- Generator: Adobe Illustrator 22.1.0, SVG Export Plug-In . SVG Version: 6.00 Build 0)  -->
<svg version="1.1" id="图层_1" xmlns="http://www.w3.org/2000/svg" xmlns:xlink="http://www.w3.org/1999/xlink" x="0px" y="0px"
	 viewBox="0 0 100 100" style="enable-background:new 0 0 100 100;" xml:space="preserve">
<style type="text/css">
	.st0{fill:#EDF4FF;}
	.st1{fill:#2775FF;}
</style>
<circle id="Oval-6" class="st0" cx="50" cy="50" r="47"/>
<path id="Oval-6_1_" class="st1" d="M50,100C22.4,100,0,77.6,0,50S22.4,0,50,0s50,22.4,50,50S77.6,100,50,100z M50,94
	c24.3,0,44-19.7,44-44S74.3,6,50,6S6,25.7,6,50S25.7,94,50,94z"/>
<path id="Path-91" class="st1" d="M67.7,35.9c1.6-1.7,4.2-1.7,5.9-0.1c1.7,1.6,1.7,4.2,0.1,5.9L50.1,66.2c-1.6,1.7-4.3,1.7-6,0
	l-14.8-15c-1.6-1.6-1.6-4.3,0-5.9c1.6-1.6,4.3-1.6,5.9,0l11.8,11.9L67.7,35.9z"/>
</svg>
