<?xml version="1.0" encoding="UTF-8"?>
<svg width="440px" height="36px" viewBox="0 0 440 36" version="1.1" xmlns="http://www.w3.org/2000/svg" xmlns:xlink="http://www.w3.org/1999/xlink">
    <!-- Generator: Sketch 52.6 (67491) - http://www.bohemiancoding.com/sketch -->
    <title>安全保障slogan</title>
    <desc>Created with Sketch.</desc>
    <g id="页面" stroke="none" stroke-width="1" fill="none" fill-rule="evenodd">
        <g id="2-首页_Hover" transform="translate(-500.000000, -3566.000000)">
            <g id="安全保障slogan" transform="translate(500.000000, 3566.000000)">
                <path d="M9.072,8.968 L26.892,8.968 L26.892,11.308 L19.332,11.308 L19.332,16.492 L25.776,16.492 L25.776,18.796 L19.332,18.796 L19.332,24.52 L27.936,24.52 L27.936,26.896 L8.1,26.896 L8.1,24.52 L16.668,24.52 L16.668,18.796 L10.224,18.796 L10.224,16.492 L16.668,16.492 L16.668,11.308 L9.072,11.308 L9.072,8.968 Z M32.796,3.244 L32.796,34.528 L30.168,34.528 L30.168,32.98 L5.832,32.98 L5.832,34.528 L3.204,34.528 L3.204,3.244 L32.796,3.244 Z M5.832,30.532 L30.168,30.532 L30.168,5.692 L5.832,5.692 L5.832,30.532 Z M23.58,19.552 C24.48,20.776 25.272,22.108 25.92,23.512 L23.904,24.448 C23.184,22.828 22.392,21.424 21.528,20.236 L23.58,19.552 Z M63.652,20.56 C62.932,20.776 62.176,20.992 61.456,21.172 C62.032,22.936 62.356,24.808 62.392,26.788 C62.392,29.632 61.996,31.612 61.24,32.692 C60.376,33.916 58.36,34.564 55.264,34.564 L54.04,34.564 L53.176,32.296 L54.904,32.296 C57.028,32.26 58.36,31.936 58.9,31.324 C59.548,30.532 59.872,29.02 59.872,26.788 C59.836,26.14 59.8,25.564 59.728,24.988 C55.696,28.156 50.44,30.712 43.924,32.692 L42.628,30.46 C49.756,28.372 55.3,25.744 59.224,22.504 C58.936,21.568 58.612,20.668 58.18,19.804 C54.796,22.468 50.188,24.628 44.356,26.284 L43.06,24.052 C49.108,22.468 53.788,20.452 57.064,17.932 C56.632,17.248 56.128,16.636 55.624,16.06 C55.336,16.204 55.084,16.312 54.832,16.456 C52.348,17.608 49.072,18.76 45.04,19.912 L43.708,17.788 C47.164,17.032 50.296,16.06 53.068,14.872 C54.364,14.296 55.624,13.72 56.776,13.072 L47.236,13.072 L47.236,10.66 L68.8,10.66 L68.8,13.072 L60.556,13.072 C59.548,13.756 58.576,14.404 57.604,14.98 C58.864,16.276 59.872,17.68 60.628,19.192 C63.976,18.256 67.144,16.816 70.168,14.836 L71.932,16.6 C70.024,17.86 67.972,18.94 65.74,19.804 C67.432,24.34 70.204,27.94 74.02,30.64 L72.184,32.764 C68.224,29.56 65.38,25.492 63.652,20.56 Z M58.432,1.336 C58.864,2.344 59.26,3.496 59.656,4.756 L73.192,4.756 L73.192,11.02 L70.636,11.02 L70.636,7.168 L45.364,7.168 L45.364,11.02 L42.808,11.02 L42.808,4.756 L57.064,4.756 C56.668,3.676 56.236,2.668 55.804,1.804 L58.432,1.336 Z M96.92,3.1 L113.984,3.1 L113.984,5.548 L106.82,5.548 C106.64,6.916 106.424,8.212 106.136,9.508 L112.868,9.508 L112.868,26.5 L110.348,26.5 L110.348,11.884 L101.024,11.884 L101.024,26.788 L98.468,26.788 L98.468,9.508 L103.616,9.508 C103.904,8.212 104.12,6.916 104.264,5.548 L96.92,5.548 L96.92,3.1 Z M108.368,26.608 C110.816,28.696 112.868,30.82 114.56,32.908 L112.724,34.744 C111.248,32.728 109.196,30.568 106.604,28.3 L108.368,26.608 Z M104.408,14.26 L106.856,14.26 L106.856,20.452 C106.784,24.304 106.028,27.4 104.624,29.704 C103.256,31.828 101.024,33.52 97.928,34.744 L96.56,32.548 C99.476,31.432 101.528,29.92 102.68,28.048 C103.76,26.104 104.336,23.584 104.408,20.452 L104.408,14.26 Z M88.568,1.912 L90.512,1.912 C92.96,4.756 95.336,7.78 97.64,10.984 L95.912,12.82 C93.572,9.292 91.52,6.484 89.792,4.396 C87.74,8.068 85.364,11.416 82.664,14.44 L81.188,12.352 C83.888,9.4 86.336,5.908 88.568,1.912 Z M83.24,17.644 L96.128,17.644 L96.128,19.804 C94.58,23.08 92.816,25.996 90.8,28.588 C92.204,29.92 93.5,31.252 94.652,32.584 L92.78,34.42 C90.62,31.72 87.668,28.84 83.888,25.78 L85.616,24.124 C86.84,25.096 87.992,26.068 89.108,27.04 C90.584,25.06 91.988,22.72 93.356,20.056 L83.24,20.056 L83.24,17.644 Z M89.324,9.724 C90.908,11.848 92.096,13.684 92.96,15.268 L91.088,16.6 C90.188,14.872 88.964,12.964 87.452,10.876 L89.324,9.724 Z M128.532,9.58 C127.596,11.488 126.552,13.216 125.4,14.8 L122.916,13.252 C125.544,9.868 127.452,6.16 128.604,2.092 L131.232,2.632 C130.764,4.216 130.224,5.692 129.648,7.096 L136.992,7.096 L136.992,1.624 L139.62,1.624 L139.62,7.096 L151.5,7.096 L151.5,9.58 L139.62,9.58 L139.62,16.384 L153.984,16.384 L153.984,18.868 L144.156,18.868 L144.156,29.416 C144.156,30.856 144.732,31.576 145.92,31.576 L149.376,31.576 C149.952,31.576 150.42,31.36 150.78,30.964 C151.248,30.388 151.536,28.408 151.68,25.024 L154.164,25.816 C153.876,29.776 153.372,32.188 152.724,33.016 C152.076,33.664 151.212,34.024 150.06,34.06 L145.164,34.06 C142.716,34.06 141.492,32.656 141.492,29.884 L141.492,18.868 L134.796,18.868 C134.436,23.116 133.536,26.248 132.096,28.336 C130.404,30.784 127.56,32.872 123.6,34.6 L121.8,32.296 C125.472,30.856 128.064,29.092 129.612,27.076 C130.98,25.276 131.808,22.54 132.132,18.868 L122.196,18.868 L122.196,16.384 L136.992,16.384 L136.992,9.58 L128.532,9.58 Z M174.544,7.816 L174.544,32.368 L172.024,32.368 L172.024,30.316 L165.472,30.316 L165.472,33.412 L162.952,33.412 L162.952,7.816 L166.3,7.816 C167.02,5.8 167.524,3.712 167.848,1.552 L170.44,1.912 C170.008,4.036 169.468,6.016 168.748,7.816 L174.544,7.816 Z M165.472,27.904 L172.024,27.904 L172.024,20.02 L165.472,20.02 L165.472,27.904 Z M165.472,17.68 L172.024,17.68 L172.024,10.264 L165.472,10.264 L165.472,17.68 Z M180.808,16.168 C183.4,19.156 185.344,21.784 186.712,24.016 L184.66,25.456 C183.184,23.08 181.204,20.416 178.72,17.464 L180.808,16.168 Z M193.156,7.852 C193.156,19.804 192.976,27.22 192.616,30.028 C192.256,32.764 190.6,34.168 187.576,34.168 C186.856,34.168 185.632,34.096 183.904,34.024 L183.292,31.648 C184.804,31.72 186.1,31.756 187.216,31.756 C188.908,31.756 189.88,30.82 190.168,28.984 C190.384,26.968 190.528,20.74 190.6,10.372 L180.7,10.372 C179.692,12.64 178.504,14.692 177.1,16.528 L175.552,14.476 C178.072,10.948 179.764,6.628 180.7,1.516 L183.256,1.84 C182.824,3.964 182.32,5.98 181.672,7.852 L193.156,7.852 Z M223.688,9.58 L223.22,11.452 C224.12,15.664 225.272,19.3 226.712,22.324 C228.116,18.688 228.872,14.44 229.016,9.58 L223.688,9.58 Z M225.524,24.916 C224.12,22.144 222.932,18.976 221.96,15.376 C221.312,17.032 220.592,18.508 219.836,19.804 L218.216,17.824 C220.34,13.792 221.78,8.356 222.5,1.516 L225.02,1.948 C224.804,3.784 224.516,5.512 224.228,7.096 L233.732,7.096 L233.732,9.58 L231.392,9.58 C231.212,15.592 230.096,20.74 228.08,24.988 C229.952,28.228 232.148,30.712 234.74,32.476 L233.336,34.6 C230.816,32.8 228.656,30.352 226.856,27.328 C225.128,30.208 222.896,32.62 220.196,34.564 L218.864,32.404 C221.672,30.46 223.868,27.976 225.524,24.916 Z M208.46,18.328 L210.872,18.616 C210.62,19.3 210.368,19.948 210.152,20.596 L217.676,20.596 L217.676,22.72 C216.884,25.096 215.552,27.148 213.68,28.876 C215.408,29.668 217.064,30.46 218.648,31.324 L217.244,33.34 C215.66,32.404 213.824,31.432 211.7,30.496 C209.324,32.152 206.336,33.484 202.736,34.492 L201.512,32.332 C204.464,31.54 207.02,30.568 209.108,29.38 C207.524,28.696 205.868,28.012 204.104,27.364 C205.04,25.78 205.868,24.304 206.588,22.864 L202.34,22.864 L202.34,20.596 L207.596,20.596 C207.92,19.804 208.208,19.048 208.46,18.328 Z M211.304,27.868 C213.104,26.428 214.472,24.736 215.336,22.864 L209.144,22.864 C208.568,24.088 207.92,25.24 207.2,26.32 C208.64,26.824 210.008,27.328 211.304,27.868 Z M205.184,2.272 C206.048,3.676 206.768,5.188 207.416,6.772 L205.544,7.636 C204.788,5.872 203.996,4.324 203.132,2.956 L205.184,2.272 Z M216.128,2.164 L218,3.028 C217.28,4.612 216.38,6.16 215.228,7.672 L213.392,6.736 C214.544,5.188 215.48,3.676 216.128,2.164 Z M202.412,8.5 L209.432,8.5 L209.432,1.624 L211.844,1.624 L211.844,8.5 L218.396,8.5 L218.396,10.768 L211.844,10.768 L211.844,11.164 C213.788,12.136 215.804,13.252 217.82,14.476 L216.488,16.492 C214.688,15.052 213.14,13.9 211.844,13.036 L211.844,17.716 L209.432,17.716 L209.432,10.876 C208.244,13.72 206.084,16.168 202.988,18.256 L201.728,16.168 C204.5,14.548 206.444,12.748 207.524,10.768 L202.412,10.768 L202.412,8.5 Z M245.904,34.276 L242.844,34.276 L242.304,31.828 C243.24,31.936 244.176,32.008 245.04,32.008 C245.94,32.008 246.408,31.468 246.408,30.46 L246.408,21.64 C244.968,22.18 243.564,22.684 242.16,23.116 L241.512,20.596 C243.168,20.2 244.824,19.696 246.408,19.12 L246.408,10.984 L242.088,10.984 L242.088,8.5 L246.408,8.5 L246.408,1.696 L248.928,1.696 L248.928,8.5 L252.384,8.5 L252.384,10.984 L248.928,10.984 L248.928,18.076 C250.08,17.572 251.196,17.032 252.276,16.456 L252.276,19.012 C251.16,19.588 250.044,20.092 248.928,20.596 L248.928,31.108 C248.928,33.196 247.92,34.276 245.904,34.276 Z M256.668,18.364 C256.236,24.52 254.832,29.92 252.456,34.6 L250.44,32.8 C252.996,28.048 254.292,21.856 254.328,14.296 L254.328,3.028 L273.3,3.028 L273.3,11.776 L266.532,11.776 L266.532,16.024 L274.236,16.024 L274.236,18.364 L266.532,18.364 L266.532,22.792 L272.58,22.792 L272.58,34.6 L270.168,34.6 L270.168,32.836 L260.412,32.836 L260.412,34.6 L258,34.6 L258,22.792 L264.012,22.792 L264.012,18.364 L256.668,18.364 Z M264.012,11.776 L256.848,11.776 L256.848,14.296 C256.848,14.872 256.812,15.448 256.812,16.024 L264.012,16.024 L264.012,11.776 Z M260.412,30.532 L270.168,30.532 L270.168,25.096 L260.412,25.096 L260.412,30.532 Z M270.78,5.44 L256.848,5.44 L256.848,9.436 L270.78,9.436 L270.78,5.44 Z M312.94,5.116 L312.94,12.856 L310.276,12.856 L310.276,7.636 L285.688,7.636 L285.688,12.82 L283.024,12.82 L283.024,5.116 L296.704,5.116 C296.2,3.892 295.66,2.812 295.048,1.804 L297.928,1.3 C298.504,2.452 299.044,3.712 299.548,5.116 L312.94,5.116 Z M282.16,15.124 L292.24,15.124 C293.32,13.144 294.364,11.2 295.336,9.256 L298,10.048 C297.064,11.848 296.164,13.54 295.3,15.124 L313.912,15.124 L313.912,17.644 L306.82,17.644 C305.344,21.46 303.652,24.448 301.744,26.68 C305.452,28.264 309.232,30.136 313.048,32.296 L311.32,34.564 C307.504,32.332 303.688,30.316 299.872,28.588 C295.84,32.188 290.512,34.06 283.816,34.276 L282.304,31.864 C288.424,31.828 293.428,30.352 297.244,27.436 C293.86,25.996 290.512,24.736 287.164,23.656 C288.46,21.64 289.684,19.624 290.836,17.644 L282.16,17.644 L282.16,15.124 Z M293.896,17.644 C292.816,19.516 291.808,21.172 290.872,22.612 C293.608,23.404 296.38,24.412 299.224,25.6 C301.168,23.476 302.752,20.812 303.976,17.644 L293.896,17.644 Z M337.064,1.696 L338.936,1.696 C343.472,6.448 348.692,10.156 354.596,12.892 L353.3,15.196 C347.324,12.316 342.248,8.608 338,4.036 C334.076,8.392 328.928,12.172 322.556,15.376 L321.296,13.108 C327.632,10.048 332.888,6.232 337.064,1.696 Z M327.956,13.072 L348.044,13.072 L348.044,15.556 L339.332,15.556 L339.332,21.82 L349.736,21.82 L349.736,24.304 L339.332,24.304 L339.332,30.964 L353.012,30.964 L353.012,33.52 L323.024,33.52 L323.024,30.964 L336.668,30.964 L336.668,24.304 L326.228,24.304 L326.228,21.82 L336.668,21.82 L336.668,15.556 L327.956,15.556 L327.956,13.072 Z M369.288,1.372 L371.736,2.488 C370.872,5.152 369.792,7.636 368.532,10.012 L368.532,34.672 L365.904,34.672 L365.904,14.26 C364.68,15.952 363.384,17.572 361.98,19.084 L361.116,16.312 C364.86,11.992 367.596,6.988 369.288,1.372 Z M373.86,3.208 L390.852,3.208 L390.852,14.548 L383.616,14.548 L383.616,18.472 L393.984,18.472 L393.984,20.992 L386.172,20.992 C388.224,24.592 391.032,27.724 394.596,30.388 L392.94,32.656 C389.34,29.524 386.388,25.636 384.048,20.992 L383.616,20.992 L383.616,34.6 L381.024,34.6 L381.024,20.992 L380.592,20.992 C378.18,25.996 375.156,29.884 371.52,32.692 L370.044,30.352 C373.5,27.976 376.308,24.88 378.468,20.992 L371.016,20.992 L371.016,18.472 L381.024,18.472 L381.024,14.548 L373.86,14.548 L373.86,3.208 Z M388.296,12.064 L388.296,5.692 L376.416,5.692 L376.416,12.064 L388.296,12.064 Z M414.58,4.324 L422.284,4.324 C421.996,3.424 421.708,2.596 421.348,1.84 L423.976,1.408 C424.264,2.272 424.588,3.244 424.876,4.324 L433.228,4.324 L433.228,6.556 L429.88,6.556 C429.592,7.852 429.16,9.04 428.656,10.156 L433.984,10.156 L433.984,12.352 L413.104,12.352 L413.104,10.156 L418.936,10.156 C418.576,8.824 418.18,7.636 417.82,6.556 L414.58,6.556 L414.58,4.324 Z M426.172,10.156 C426.676,9.004 427.108,7.78 427.396,6.556 L420.412,6.556 C420.772,7.636 421.132,8.86 421.456,10.156 L426.172,10.156 Z M415.408,14.656 L431.968,14.656 L431.968,25.492 L425.128,25.492 L425.128,28.048 L434.272,28.048 L434.272,30.28 L425.128,30.28 L425.128,34.6 L422.464,34.6 L422.464,30.28 L413.14,30.28 L413.14,28.048 L422.464,28.048 L422.464,25.492 L415.408,25.492 L415.408,14.656 Z M429.556,23.404 L429.556,21.136 L417.928,21.136 L417.928,23.404 L429.556,23.404 Z M417.928,19.192 L429.556,19.192 L429.556,16.744 L417.928,16.744 L417.928,19.192 Z M402.952,2.956 L413.284,2.956 L413.284,5.008 C412.276,8.32 411.088,11.74 409.72,15.304 C411.808,18.508 412.96,21.424 413.104,24.016 C413.104,25.564 412.744,26.68 412.096,27.4 C411.196,28.264 409.612,28.696 407.308,28.732 L406.48,26.104 C407.02,26.176 407.488,26.248 407.884,26.248 C408.964,26.176 409.684,25.996 410.044,25.672 C410.404,25.348 410.584,24.808 410.584,24.016 C410.584,21.532 409.432,18.76 407.2,15.7 C408.712,11.884 409.864,8.464 410.728,5.404 L405.472,5.404 L405.472,34.636 L402.952,34.636 L402.952,2.956 Z" id="国家领先的数据安全保障" stroke="#333333" fill="#111111"></path>
                <rect id="矩形" fill="#FFFFFF" fill-rule="nonzero" opacity="0" x="0" y="0" width="440" height="36"></rect>
            </g>
        </g>
    </g>
</svg>