<?xml version="1.0" encoding="UTF-8"?>
<svg width="98px" height="60px" viewBox="0 0 98 60" version="1.1" xmlns="http://www.w3.org/2000/svg" xmlns:xlink="http://www.w3.org/1999/xlink">
    <!-- Generator: Sketch 52.6 (67491) - http://www.bohemiancoding.com/sketch -->
    <title>校园招聘 现场支持 黑色</title>
    <desc>Created with Sketch.</desc>
    <g id="页面" stroke="none" stroke-width="1" fill="none" fill-rule="evenodd">
        <g id="1-首页" transform="translate(-1301.000000, -3134.000000)">
            <g id="校园招聘-现场支持-黑色" transform="translate(1301.000000, 3134.000000)">
                <path d="M1.16,4.32 L3.72,4.32 L3.72,0.64 L5.62,0.64 L5.62,4.32 L7.54,4.32 L7.54,6.14 L5.62,6.14 L5.62,7.62 C6.22,8.3 6.84,9.02 7.48,9.8 C8.6,8.52 9.56,7.04 10.36,5.34 L11.94,6.12 C11.34,7.4 10.66,8.58 9.92,9.64 L11.38,9.2 C11.62,10.74 12.24,12.12 13.24,13.34 C14.02,12.14 14.56,10.7 14.86,9.06 L16.66,9.42 C16.28,11.5 15.6,13.28 14.64,14.72 C15.88,15.76 17.46,16.64 19.36,17.36 L18.38,19.06 C16.38,18.26 14.74,17.3 13.46,16.18 C12.06,17.58 10.3,18.58 8.18,19.18 L7.08,17.48 C9.16,16.94 10.82,16.04 12.08,14.78 C10.88,13.34 10.12,11.68 9.78,9.84 C9.42,10.32 9.04,10.78 8.68,11.22 L8.26,10.92 L7.26,12.36 C6.64,11.16 6.1,10.14 5.62,9.34 L5.62,18.96 L3.72,18.96 L3.72,9.56 C3.1,11.28 2.34,12.86 1.42,14.3 L0.62,12.24 C2.02,10.44 3.02,8.42 3.64,6.14 L1.16,6.14 L1.16,4.32 Z M7.94,3.02 L12.58,3.02 C12.26,2.2 11.9,1.44 11.5,0.74 L13.42,0.42 C13.78,1.18 14.14,2.06 14.48,3.02 L18.82,3.02 L18.82,4.86 L7.94,4.86 L7.94,3.02 Z M15.88,5.24 C17.36,7.04 18.52,8.64 19.32,10 L17.74,11.08 C16.92,9.6 15.8,7.96 14.4,6.16 L15.88,5.24 Z M44.38,1.36 L44.38,19.06 L42.48,19.06 L42.48,18.34 L29.52,18.34 L29.52,19.06 L27.62,19.06 L27.62,1.36 L44.38,1.36 Z M29.52,16.66 L42.48,16.66 L42.48,3.08 L29.52,3.08 L29.52,16.66 Z M31.74,4.54 L40.28,4.54 L40.28,6.22 L31.74,6.22 L31.74,4.54 Z M30.6,7.96 L41.4,7.96 L41.4,9.64 L38.36,9.64 L38.36,13.34 C38.36,13.74 38.52,13.94 38.88,13.94 L39.42,13.94 C39.66,13.94 39.84,13.88 40,13.76 C40.2,13.66 40.32,13.04 40.4,11.9 L41.96,12.42 C41.78,13.94 41.56,14.82 41.28,15.1 C41,15.34 40.5,15.46 39.78,15.48 L38.32,15.48 C37.76,15.48 37.36,15.32 37.08,15 C36.76,14.66 36.62,14.24 36.62,13.74 L36.62,9.64 L35.1,9.64 C34.9,11.2 34.52,12.44 33.94,13.32 C33.26,14.36 32.2,15.2 30.78,15.8 L29.9,14.28 C31.06,13.82 31.94,13.16 32.5,12.32 C32.94,11.64 33.24,10.76 33.4,9.64 L30.6,9.64 L30.6,7.96 Z M70.16,10.44 L70.16,19.02 L68.28,19.02 L68.28,18.32 L62.54,18.32 L62.54,19.02 L60.66,19.02 L60.66,10.44 L70.16,10.44 Z M62.54,16.5 L68.28,16.5 L68.28,12.28 L62.54,12.28 L62.54,16.5 Z M55.3,18.84 L53.5,18.84 L53.08,17 C53.62,17.06 54.14,17.1 54.64,17.1 C55.14,17.1 55.4,16.86 55.4,16.38 L55.4,12.08 C54.64,12.38 53.88,12.66 53.12,12.94 L52.6,10.96 C53.54,10.74 54.48,10.46 55.4,10.12 L55.4,5.94 L53,5.94 L53,4.12 L55.4,4.12 L55.4,0.62 L57.28,0.62 L57.28,4.12 L59.48,4.12 L59.48,5.94 L57.28,5.94 L57.28,9.34 C57.94,9.02 58.58,8.7 59.22,8.34 L59.22,10.26 C58.58,10.62 57.92,10.94 57.28,11.26 L57.28,16.86 C57.28,18.18 56.62,18.84 55.3,18.84 Z M63.44,3.08 L60.32,3.08 L60.32,1.28 L70.5,1.28 C70.48,5.2 70.24,7.54 69.8,8.32 C69.32,9.08 68.54,9.46 67.44,9.46 C67,9.46 66.5,9.42 65.92,9.36 L65.46,7.7 C66.1,7.74 66.62,7.78 67.02,7.82 C67.7,7.78 68.14,7.52 68.34,7 C68.5,6.5 68.62,5.2 68.66,3.08 L65.3,3.08 C64.96,4.68 64.52,5.96 63.98,6.92 C63.28,8.04 62.24,9.06 60.84,9.98 L59.68,8.48 C60.86,7.76 61.74,6.96 62.34,6.08 C62.82,5.3 63.18,4.3 63.44,3.08 Z M87.22,2.16 L90.96,2.16 L90.96,0.72 L92.7,0.72 L92.7,2.16 L96.44,2.16 L96.44,9.32 L87.22,9.32 L87.22,2.16 Z M94.72,7.8 L94.72,6.5 L92.7,6.5 L92.7,7.8 L94.72,7.8 Z M90.96,7.8 L90.96,6.5 L88.9,6.5 L88.9,7.8 L90.96,7.8 Z M88.9,5.06 L90.96,5.06 L90.96,3.7 L88.9,3.7 L88.9,5.06 Z M92.7,3.7 L92.7,5.06 L94.72,5.06 L94.72,3.7 L92.7,3.7 Z M86.3,10.32 L97.16,10.32 L97.16,11.98 L90.76,11.98 L90.16,13.32 L96.14,13.32 C96,16.04 95.7,17.64 95.26,18.16 C94.8,18.64 93.92,18.9 92.62,18.9 C91.78,18.9 91.04,18.84 90.38,18.76 L89.78,17.14 C90.7,17.24 91.52,17.3 92.24,17.3 C93.08,17.3 93.62,17.16 93.84,16.9 C94.02,16.6 94.16,15.94 94.26,14.9 L87.82,14.9 L88.92,11.98 L86.3,11.98 L86.3,10.32 Z M79.08,1.28 L86.72,1.28 L86.72,3.04 L85.78,3.04 L85.78,13.24 C86.06,13.16 86.32,13.06 86.58,12.96 L86.58,14.8 C86.3,14.88 86.04,14.98 85.78,15.06 L85.78,19.06 L84.02,19.06 L84.02,15.6 C82.5,16.04 80.9,16.42 79.26,16.78 L78.82,14.96 L79.96,14.78 L79.96,3.04 L79.08,3.04 L79.08,1.28 Z M81.7,14.42 C82.5,14.24 83.26,14.04 84.02,13.82 L84.02,11.36 L81.7,11.36 L81.7,14.42 Z M81.7,9.64 L84.02,9.64 L84.02,7.22 L81.7,7.22 L81.7,9.64 Z M81.7,5.5 L84.02,5.5 L84.02,3.04 L81.7,3.04 L81.7,5.5 Z" id="校园招聘" fill="#111111"></path>
                <path d="M17.74,41.28 L17.74,52.54 L15.82,52.54 L15.82,43.1 L10.38,43.1 L10.38,52.54 L8.5,52.54 L8.5,41.28 L17.74,41.28 Z M17.14,58.74 L15.06,58.74 C13.82,58.74 13.2,58.08 13.2,56.8 L13.2,53.64 C12.94,54.4 12.62,55.08 12.26,55.66 C11.28,57.18 9.66,58.34 7.42,59.16 L6.38,57.56 C8.58,56.72 10.06,55.66 10.84,54.42 C11.62,53.06 12.04,51.3 12.12,49.14 L12.12,44.36 L13.94,44.36 L13.94,49.14 C13.9,50.38 13.76,51.48 13.54,52.46 L15.1,52.46 L15.1,56.4 C15.1,56.8 15.26,57 15.62,57 L16.8,57 C17.04,57 17.22,56.9 17.34,56.7 C17.46,56.46 17.56,55.78 17.62,54.64 L19.38,55.22 C19.24,56.92 19,57.94 18.66,58.28 C18.32,58.58 17.82,58.74 17.14,58.74 Z M1.2,47.84 L3.34,47.84 L3.34,43.6 L0.94,43.6 L0.94,41.78 L7.62,41.78 L7.62,43.6 L5.26,43.6 L5.26,47.84 L7.34,47.84 L7.34,49.68 L5.26,49.68 L5.26,53.64 C6.08,53.36 6.88,53.06 7.66,52.74 L7.66,54.56 C5.66,55.36 3.52,56.04 1.26,56.6 L0.8,54.78 C1.66,54.62 2.5,54.44 3.34,54.22 L3.34,49.68 L1.2,49.68 L1.2,47.84 Z M36.96,49.12 L34.24,49.12 L34.24,47.38 C36.48,46.1 38.54,44.76 40.44,43.34 L34.52,43.34 L34.52,41.6 L43.26,41.6 L43.26,43.24 C41.48,44.74 39.54,46.16 37.46,47.48 L44.74,47.48 C44.6,52.3 44.36,55.38 44,56.74 C43.64,58.1 42.68,58.78 41.12,58.82 C40.46,58.82 39.82,58.8 39.2,58.76 L38.68,56.92 C39.42,57 40.14,57.04 40.86,57.04 C41.54,57.02 42,56.7 42.28,56.06 C42.52,55.52 42.7,53.2 42.82,49.12 L41.8,49.12 C41.32,51.48 40.62,53.32 39.7,54.68 C38.66,56.2 37.1,57.56 35.02,58.76 L33.86,57.26 C35.7,56.24 37.12,55.1 38.08,53.84 C38.92,52.68 39.54,51.1 39.98,49.12 L38.76,49.12 C38.04,51.62 36.78,53.58 35,54.98 L33.82,53.5 C35.28,52.36 36.32,50.9 36.96,49.12 Z M26.96,45.98 L29.2,45.98 L29.2,41.08 L31.12,41.08 L31.12,45.98 L33.46,45.98 L33.46,47.8 L31.12,47.8 L31.12,54.26 C31.92,54 32.68,53.72 33.44,53.44 L33.44,55.42 C31.52,56.16 29.44,56.78 27.24,57.28 L26.74,55.28 C27.58,55.14 28.4,54.98 29.2,54.78 L29.2,47.8 L26.96,47.8 L26.96,45.98 Z M61,40.6 L62.96,40.6 L62.96,43.06 L70.62,43.06 L70.62,44.9 L62.96,44.9 L62.96,47.52 L68.28,47.52 L68.28,49.2 C67.22,51.36 65.68,53.2 63.68,54.74 C64.58,55.22 65.56,55.68 66.62,56.08 C68.06,56.6 69.56,57.06 71.16,57.42 L70.06,59.1 C68.32,58.64 66.68,58.08 65.12,57.42 C64.02,56.94 63,56.42 62.06,55.86 C59.84,57.24 57.16,58.34 54.04,59.18 L52.94,57.48 C55.86,56.82 58.36,55.9 60.42,54.74 C59.42,53.96 58.54,53.08 57.8,52.12 C57.1,51.24 56.6,50.3 56.3,49.3 L54.9,49.3 L54.9,47.52 L61,47.52 L61,44.9 L53.38,44.9 L53.38,43.06 L61,43.06 L61,40.6 Z M62.02,53.74 C63.78,52.48 65.16,51 66.12,49.3 L58.18,49.3 C58.54,50.24 59.06,51.06 59.74,51.78 C60.42,52.5 61.18,53.16 62.02,53.74 Z M90.36,40.72 L92.22,40.72 L92.22,42.58 L96.16,42.58 L96.16,44.32 L92.22,44.32 L92.22,46.22 L96.92,46.22 L96.92,48.02 L85.88,48.02 L85.88,46.22 L90.36,46.22 L90.36,44.32 L86.6,44.32 L86.6,42.58 L90.36,42.58 L90.36,40.72 Z M85.56,50.14 L92.68,50.14 L92.68,48.76 L94.58,48.76 L94.58,50.14 L96.94,50.14 L96.94,51.92 L94.58,51.92 L94.58,56.92 C94.58,58.24 93.92,58.92 92.6,58.92 L89.96,58.92 L89.54,57.08 C90.38,57.14 91.16,57.18 91.92,57.18 C92.42,57.18 92.68,56.92 92.68,56.44 L92.68,51.92 L85.56,51.92 L85.56,50.14 Z M81.3,58.88 L79.54,58.88 L79.14,57.06 C79.66,57.14 80.16,57.18 80.64,57.18 C81.12,57.18 81.38,56.92 81.38,56.4 L81.38,52.22 C80.68,52.46 79.98,52.7 79.26,52.92 L78.78,51 C79.66,50.8 80.52,50.56 81.38,50.28 L81.38,46.1 L79.1,46.1 L79.1,44.28 L81.38,44.28 L81.38,40.86 L83.24,40.86 L83.24,44.28 L85.16,44.28 L85.16,46.1 L83.24,46.1 L83.24,49.58 C83.9,49.28 84.54,48.96 85.18,48.64 L85.18,50.58 C84.54,50.9 83.88,51.2 83.24,51.48 L83.24,56.88 C83.24,58.2 82.58,58.88 81.3,58.88 Z M88,52.56 C88.94,53.74 89.66,54.78 90.16,55.68 L88.66,56.72 C88.12,55.76 87.38,54.68 86.46,53.5 L88,52.56 Z" id="现场支持" fill="#111111"></path>
                <rect id="矩形" fill="#FFFFFF" fill-rule="nonzero" opacity="0" x="0" y="0" width="98" height="60"></rect>
            </g>
        </g>
    </g>
</svg>