<?xml version="1.0" encoding="UTF-8"?>
<svg width="80px" height="80px" viewBox="0 0 80 80" version="1.1" xmlns="http://www.w3.org/2000/svg" xmlns:xlink="http://www.w3.org/1999/xlink">
    <!-- Generator: Sketch 52.6 (67491) - http://www.bohemiancoding.com/sketch -->
    <title>校招现场icon 蓝色</title>
    <desc>Created with Sketch.</desc>
    <g id="组件" stroke="none" stroke-width="1" fill="none" fill-rule="evenodd">
        <g id="校招现场icon11" fill-rule="nonzero">
            <g id="校招现场icon">
                <path d="M40,24.5319633 L20.8122693,33.2536591 C20.3653524,33.4568031 19.8383738,33.2591862 19.6352298,32.8122693 C19.4320857,32.3653524 19.6297027,31.8383738 20.0766196,31.6352298 L39.6321752,22.7463409 C39.8658863,22.6401086 40.1341137,22.6401086 40.3678248,22.7463409 L59.9233804,31.6352298 C60.3702973,31.8383738 60.5679143,32.3653524 60.3647702,32.8122693 C60.1616262,33.2591862 59.6346476,33.4568031 59.1877307,33.2536591 L40,24.5319633 Z" id="Path-22" fill="#2D6EFF"></path>
                <polygon id="Path" fill="#0F5AFF" opacity="0.1" points="25.7777778 29.3333333 40 23.1111111 54.2222222 29.3333333 54.2222222 69.4444444 25.7777778 69.4444444"></polygon>
                <path d="M27.5555556,30.4960277 L27.5555556,68.6666667 L52.4444444,68.6666667 L52.4444444,30.4960277 L40,25.0515832 L27.5555556,30.4960277 Z M25.7777778,29.3333333 L40,23.1111111 L54.2222222,29.3333333 L54.2222222,70.4444444 L25.7777778,70.4444444 L25.7777778,29.3333333 Z" id="Rectangle" fill="#2D6EFF"></path>
                <path d="M40,46.2222222 C36.0726418,46.2222222 32.8888889,43.0384693 32.8888889,39.1111111 C32.8888889,35.1837529 36.0726418,32 40,32 C43.9273582,32 47.1111111,35.1837529 47.1111111,39.1111111 C47.1111111,43.0384693 43.9273582,46.2222222 40,46.2222222 Z" id="Path" fill="#FFFFFF"></path>
                <path d="M40,46.2222222 C36.0726418,46.2222222 32.8888889,43.0384693 32.8888889,39.1111111 C32.8888889,35.1837529 36.0726418,32 40,32 C43.9273582,32 47.1111111,35.1837529 47.1111111,39.1111111 C47.1111111,43.0384693 43.9273582,46.2222222 40,46.2222222 Z M40,44.4444444 C42.9455187,44.4444444 45.3333333,42.0566298 45.3333333,39.1111111 C45.3333333,36.1655924 42.9455187,33.7777778 40,33.7777778 C37.0544813,33.7777778 34.6666667,36.1655924 34.6666667,39.1111111 C34.6666667,42.0566298 37.0544813,44.4444444 40,44.4444444 Z" id="Oval" fill="#0F5AFF"></path>
                <path d="M25.7777778,40.8888889 L10.6666667,40.8888889 L10.6666667,46.2222222 L25.7777778,46.2222222 L25.7777778,40.8888889 Z M10.6666667,39.1111111 L27.5555556,39.1111111 L27.5555556,48 L10.6666667,48 C9.68482711,48 8.88888889,47.2040618 8.88888889,46.2222222 L8.88888889,40.8888889 C8.88888889,39.9070493 9.68482711,39.1111111 10.6666667,39.1111111 Z" id="Rectangle" fill="#0F5AFF"></path>
                <path d="M15.1111111,66.6666667 L25.7777778,66.6666667 L25.7777778,48 L15.1111111,48 L15.1111111,66.6666667 Z M13.3333333,46.2222222 L27.5555556,46.2222222 L27.5555556,68.4444444 L15.1111111,68.4444444 C14.1292716,68.4444444 13.3333333,67.6485062 13.3333333,66.6666667 L13.3333333,46.2222222 Z" id="Rectangle" fill="#0F5AFF"></path>
                <path d="M40,55.1111111 C42.9455187,55.1111111 45.3333333,57.4989258 45.3333333,60.4444444 L45.3333333,70.4444444 L34.6666667,70.4444444 L34.6666667,60.4444444 C34.6666667,57.4989258 37.0544813,55.1111111 40,55.1111111 Z" id="Path" fill="#FFFFFF"></path>
                <path d="M36.4444444,68.6666667 L43.5555556,68.6666667 L43.5555556,60.4444444 C43.5555556,58.4807653 41.9636791,56.8888889 40,56.8888889 C38.0363209,56.8888889 36.4444444,58.4807653 36.4444444,60.4444444 L36.4444444,68.6666667 Z M40,55.1111111 C42.9455187,55.1111111 45.3333333,57.4989258 45.3333333,60.4444444 L45.3333333,70.4444444 L34.6666667,70.4444444 L34.6666667,60.4444444 C34.6666667,57.4989258 37.0544813,55.1111111 40,55.1111111 Z" id="Rectangle" fill="#0F5AFF"></path>
                <path d="M54.2222222,46.2222222 L69.3333333,46.2222222 L69.3333333,40.8888889 L54.2222222,40.8888889 L54.2222222,46.2222222 Z M52.4444444,39.1111111 L69.3333333,39.1111111 C70.3151729,39.1111111 71.1111111,39.9070493 71.1111111,40.8888889 L71.1111111,46.2222222 C71.1111111,47.2040618 70.3151729,48 69.3333333,48 L52.4444444,48 L52.4444444,39.1111111 Z" id="Rectangle-Copy-49" fill="#0F5AFF"></path>
                <path d="M54.2222222,66.6666667 L64.8888889,66.6666667 L64.8888889,48 L54.2222222,48 L54.2222222,66.6666667 Z M52.4444444,46.2222222 L66.6666667,46.2222222 L66.6666667,66.6666667 C66.6666667,67.6485062 65.8707284,68.4444444 64.8888889,68.4444444 L52.4444444,68.4444444 L52.4444444,46.2222222 Z" id="Rectangle-Copy-48" fill="#0F5AFF"></path>
                <path d="M18.6666667,51.5555556 L22.2222222,51.5555556 L22.2222222,55.1111111 L18.6666667,55.1111111 L18.6666667,51.5555556 Z M18.6666667,59.5555556 L22.2222222,59.5555556 L22.2222222,63.1111111 L18.6666667,63.1111111 L18.6666667,59.5555556 Z M57.7777778,51.5555556 L61.3333333,51.5555556 L61.3333333,55.1111111 L57.7777778,55.1111111 L57.7777778,51.5555556 Z M57.7777778,59.5555556 L61.3333333,59.5555556 L61.3333333,63.1111111 L57.7777778,63.1111111 L57.7777778,59.5555556 Z" id="Combined-Shape" fill="#0F5AFF"></path>
                <polygon id="Rectangle" fill="#0F5AFF" points="39.1111111 10.6666667 40.8888889 10.6666667 40.8888889 24.8888889 39.1111111 24.8888889"></polygon>
                <path d="M40.3501505,9.41990576 L49.6491807,13.4052044 C50.1004072,13.5985872 50.3094308,14.1211462 50.116048,14.5723727 C50.0261376,14.7821637 49.8589717,14.9493296 49.6491807,15.03924 L40.3501505,19.0245387 C39.898924,19.2179215 39.376365,19.0088978 39.1829822,18.5576714 C39.1355624,18.4470253 39.1111111,18.3279002 39.1111111,18.2075209 L39.1111111,10.2369236 C39.1111111,9.74600379 39.5090802,9.34803468 40,9.34803468 C40.1203794,9.34803468 40.2395044,9.37248601 40.3501505,9.41990576 Z" id="Path" fill="#0F5AFF" opacity="0.1"></path>
                <path d="M40.8888889,11.5849582 L40.8888889,16.8594862 L47.0425048,14.2222222 L40.8888889,11.5849582 Z M40.3501505,9.41990576 L49.6491807,13.4052044 C50.1004072,13.5985872 50.3094308,14.1211462 50.116048,14.5723727 C50.0261376,14.7821637 49.8589717,14.9493296 49.6491807,15.03924 L40.3501505,19.0245387 C39.898924,19.2179215 39.376365,19.0088978 39.1829822,18.5576714 C39.1355624,18.4470253 39.1111111,18.3279002 39.1111111,18.2075209 L39.1111111,10.2369236 C39.1111111,9.74600379 39.5090802,9.34803468 40,9.34803468 C40.1203794,9.34803468 40.2395044,9.37248601 40.3501505,9.41990576 Z" id="Rectangle" fill="#0F5AFF"></path>
                <rect id="Rectangle" fill="#2D6EFF" opacity="0" x="0" y="0" width="80" height="80"></rect>
            </g>
        </g>
    </g>
</svg>