<?xml version="1.0" encoding="UTF-8"?>
<svg width="98px" height="60px" viewBox="0 0 98 60" version="1.1" xmlns="http://www.w3.org/2000/svg" xmlns:xlink="http://www.w3.org/1999/xlink">
    <!-- Generator: Sketch 52.6 (67491) - http://www.bohemiancoding.com/sketch -->
    <title>雇主品牌 建设 黑色</title>
    <desc>Created with Sketch.</desc>
    <g id="页面" stroke="none" stroke-width="1" fill="none" fill-rule="evenodd">
        <g id="1-首页" transform="translate(-1121.000000, -3134.000000)">
            <g id="雇主品牌-建设-黑色" transform="translate(1121.000000, 3134.000000)">
                <path d="M6.1,12.96 C5.72,13.44 5.34,13.88 4.96,14.28 L4.14,13.28 C3.74,15.4 3.06,17.32 2.14,19.04 L0.78,17.84 C2.12,15.36 2.8,12.16 2.82,8.26 L2.82,2.04 L9.74,2.04 C9.54,1.56 9.32,1.12 9.08,0.72 L11.04,0.4 C11.22,0.88 11.4,1.44 11.6,2.04 L18.08,2.04 L18.08,7.2 L4.62,7.2 L4.62,8.26 C4.62,9.82 4.5,11.28 4.26,12.66 C5.38,11.34 6.34,9.6 7.16,7.46 L8.92,7.84 L8.44,8.98 L11.88,8.98 C11.66,8.5 11.44,8.08 11.2,7.68 L13.06,7.36 C13.28,7.84 13.48,8.38 13.68,8.98 L18.3,8.98 L18.3,10.52 L13.76,10.52 L13.76,11.62 L17.6,11.62 L17.6,13.08 L13.76,13.08 L13.76,14.2 L17.6,14.2 L17.6,15.68 L13.76,15.68 L13.76,16.82 L18.7,16.82 L18.7,18.36 L7.86,18.36 L7.86,19 L6.1,19 L6.1,12.96 Z M7.86,16.82 L11.96,16.82 L11.96,15.68 L7.86,15.68 L7.86,16.82 Z M11.96,14.2 L11.96,13.08 L7.86,13.08 L7.86,14.2 L11.96,14.2 Z M11.96,11.62 L11.96,10.52 L7.86,10.52 L7.86,11.62 L11.96,11.62 Z M16.28,3.74 L4.62,3.74 L4.62,5.52 L16.28,5.52 L16.28,3.74 Z M35.04,5.7 L27.78,5.7 L27.78,3.84 L35.04,3.84 C34.72,2.86 34.34,1.92 33.9,1.02 L35.74,0.52 C36.24,1.72 36.62,2.82 36.9,3.82 L36.84,3.84 L44.24,3.84 L44.24,5.7 L36.96,5.7 L36.96,9.86 L43.28,9.86 L43.28,11.64 L36.96,11.64 L36.96,16.52 L44.94,16.52 L44.94,18.38 L27.08,18.38 L27.08,16.52 L35.04,16.52 L35.04,11.64 L28.74,11.64 L28.74,9.86 L35.04,9.86 L35.04,5.7 Z M56.32,1.28 L67.68,1.28 L67.68,8.26 L56.32,8.26 L56.32,1.28 Z M65.78,6.46 L65.78,3.08 L58.22,3.08 L58.22,6.46 L65.78,6.46 Z M61.04,9.76 L61.04,18.76 L59.2,18.76 L59.2,17.8 L55.5,17.8 L55.5,18.76 L53.64,18.76 L53.64,9.76 L61.04,9.76 Z M55.5,16.02 L59.2,16.02 L59.2,11.56 L55.5,11.56 L55.5,16.02 Z M70.36,9.76 L70.36,18.76 L68.46,18.76 L68.46,17.8 L64.6,17.8 L64.6,18.76 L62.74,18.76 L62.74,9.76 L70.36,9.76 Z M64.6,16.02 L68.46,16.02 L68.46,11.56 L64.6,11.56 L64.6,16.02 Z M83.32,0.82 L85.16,0.82 L85.16,6 L86.16,6 L86.16,7.78 L81.74,7.78 L81.74,8.56 C81.74,9.14 81.72,9.7 81.7,10.22 L85.38,10.22 L85.38,18.78 L83.54,18.78 L83.54,12 L81.62,12 C81.38,15.16 80.82,17.56 79.96,19.24 L78.56,18.02 C79.44,16.06 79.88,12.9 79.9,8.56 L79.9,1.22 L81.74,1.22 L81.74,6 L83.32,6 L83.32,0.82 Z M86.86,2.28 L89.98,2.28 C90.24,1.7 90.44,1.1 90.56,0.48 L92.44,0.72 C92.3,1.26 92.12,1.78 91.9,2.28 L96.26,2.28 L96.26,11.06 L91.58,11.06 C91.5,11.2 91.44,11.32 91.38,11.44 C90.84,12.32 90.06,13.02 89.02,13.56 L92.02,13.56 L92.02,11.68 L93.86,11.68 L93.86,13.56 L97.16,13.56 L97.16,15.38 L93.86,15.38 L93.86,19 L92.02,19 L92.02,15.38 L86.06,15.38 L86.06,13.56 L88.08,13.56 L87.46,12.6 C88.4,12.16 89.12,11.66 89.6,11.06 L86.86,11.06 L86.86,2.28 Z M94.54,9.42 L94.54,7.44 L92.4,7.44 C92.34,8.16 92.24,8.82 92.12,9.42 L94.54,9.42 Z M90.38,9.42 C90.54,8.82 90.64,8.16 90.68,7.44 L88.56,7.44 L88.56,9.42 L90.38,9.42 Z M88.56,5.86 L90.72,5.86 L90.72,3.94 L88.56,3.94 L88.56,5.86 Z M92.44,3.94 L92.44,5.86 L94.54,5.86 L94.54,3.94 L92.44,3.94 Z" id="雇主品牌" fill="#111111"></path>
                <path d="M43.66,49.02 L39.42,49.02 L39.42,50.24 L43.94,50.24 L43.94,51.8 L39.42,51.8 L39.42,53.04 L44.52,53.04 L44.52,54.62 L39.42,54.62 L39.42,56.24 L37.58,56.24 L37.58,54.62 L33.2,54.62 L33.2,53.04 L37.58,53.04 L37.58,51.8 L33.82,51.8 L33.82,50.24 L37.58,50.24 L37.58,49.02 L34.24,49.02 L34.24,47.44 L37.58,47.44 L37.58,46.2 L33.26,46.2 L33.26,44.66 L37.58,44.66 L37.58,43.46 L34.24,43.46 L34.24,41.9 L37.58,41.9 L37.58,40.56 L39.42,40.56 L39.42,41.9 L43.66,41.9 L43.66,44.66 L44.86,44.66 L44.86,46.2 L43.66,46.2 L43.66,49.02 Z M39.42,43.46 L39.42,44.66 L41.84,44.66 L41.84,43.46 L39.42,43.46 Z M39.42,46.2 L39.42,47.44 L41.84,47.44 L41.84,46.2 L39.42,46.2 Z M38.08,56.92 C40.34,56.92 42.68,56.86 45.08,56.78 L44.76,58.6 L38.9,58.6 C35.22,58.6 32.6,58.06 31.02,57.02 C30.82,56.88 30.66,56.74 30.54,56.62 C29.9,57.5 29.16,58.26 28.32,58.92 L27.08,57.3 C27.96,56.7 28.68,55.98 29.26,55.14 C28.52,54.02 27.92,52.64 27.44,51 L29.04,50.42 C29.38,51.62 29.76,52.64 30.2,53.46 C30.74,52.2 31.06,50.76 31.18,49.16 L27.58,49.16 L27.58,47.72 C28.66,46.32 29.64,44.84 30.56,43.28 L27.58,43.28 L27.58,41.48 L32.68,41.48 L32.68,43.04 C31.78,44.72 30.9,46.18 30.02,47.44 L32.92,47.44 L32.92,48.58 C32.84,51.14 32.34,53.34 31.42,55.18 C31.66,55.42 31.92,55.62 32.2,55.78 C33.5,56.5 35.46,56.88 38.08,56.92 Z M55.38,40.9 C56.66,41.86 57.72,42.84 58.6,43.8 L57.3,45.12 C56.54,44.18 55.46,43.18 54.08,42.14 L55.38,40.9 Z M52.82,46.6 L57.3,46.6 L57.3,55.06 C57.92,54.54 58.58,53.94 59.3,53.26 L59.82,55.26 C58.52,56.46 57.14,57.54 55.68,58.48 L54.96,56.76 C55.28,56.48 55.46,56.12 55.46,55.7 L55.46,48.42 L52.82,48.42 L52.82,46.6 Z M59.96,48.98 L69.66,48.98 L69.66,50.72 C69.08,52.5 68.12,54.02 66.78,55.3 C68.06,56.14 69.62,56.9 71.42,57.54 L70.4,59.18 C68.4,58.38 66.74,57.46 65.38,56.46 C63.82,57.58 61.88,58.48 59.6,59.16 L58.54,57.56 C60.66,56.94 62.44,56.16 63.88,55.2 C62.52,53.88 61.58,52.42 61.1,50.82 L59.96,50.82 L59.96,48.98 Z M62.88,50.82 C63.34,52.04 64.12,53.14 65.24,54.14 C66.32,53.16 67.16,52.06 67.74,50.82 L62.88,50.82 Z M61.36,41.26 L68.44,41.26 L68.44,45.46 C68.44,45.9 68.68,46.14 69.18,46.14 L70.94,46.14 L70.94,47.88 L68.68,47.88 C67.26,47.88 66.56,47.2 66.56,45.88 L66.56,43.04 L63.24,43.04 L63.24,43.64 C63.24,45.72 62.18,47.34 60.08,48.48 L58.82,47.02 C60.5,46.26 61.36,45.2 61.36,43.84 L61.36,41.26 Z" id="建设" fill="#111111"></path>
                <rect id="矩形" fill="#FFFFFF" fill-rule="nonzero" opacity="0" x="0" y="0" width="98" height="60"></rect>
            </g>
        </g>
    </g>
</svg>