<?xml version="1.0" encoding="UTF-8"?>
<svg width="80px" height="80px" viewBox="0 0 80 80" version="1.1" xmlns="http://www.w3.org/2000/svg" xmlns:xlink="http://www.w3.org/1999/xlink">
    <!-- Generator: Sketch 52.6 (67491) - http://www.bohemiancoding.com/sketch -->
    <title>系统平台icon 蓝色</title>
    <desc>Created with Sketch.</desc>
    <g id="组件" stroke="none" stroke-width="1" fill="none" fill-rule="evenodd">
        <g id="系统平台icon11" fill-rule="nonzero">
            <g id="系统平台icon">
                <path d="M11.7777778,17.7777778 L68.2222222,17.7777778 C68.713142,17.7777778 69.1111111,18.1757469 69.1111111,18.6666667 L69.1111111,56 C69.1111111,56.4909198 68.713142,56.8888889 68.2222222,56.8888889 L11.7777778,56.8888889 C11.286858,56.8888889 10.8888889,56.4909198 10.8888889,56 L10.8888889,18.6666667 C10.8888889,18.1757469 11.286858,17.7777778 11.7777778,17.7777778 Z" id="Rectangle" fill="#0F5AFF" opacity="0.1"></path>
                <path d="M12.6666667,19.5555556 L12.6666667,55.1111111 L67.3333333,55.1111111 L67.3333333,19.5555556 L12.6666667,19.5555556 Z M11.7777778,17.7777778 L68.2222222,17.7777778 C68.713142,17.7777778 69.1111111,18.1757469 69.1111111,18.6666667 L69.1111111,56 C69.1111111,56.4909198 68.713142,56.8888889 68.2222222,56.8888889 L11.7777778,56.8888889 C11.286858,56.8888889 10.8888889,56.4909198 10.8888889,56 L10.8888889,18.6666667 C10.8888889,18.1757469 11.286858,17.7777778 11.7777778,17.7777778 Z" id="Rectangle-Copy" fill="#0F5AFF"></path>
                <path d="M21.3333333,40 L23.1111111,40 C23.6020309,40 24,40.3979691 24,40.8888889 L24,46.2222222 C24,46.713142 23.6020309,47.1111111 23.1111111,47.1111111 L21.3333333,47.1111111 C20.8424136,47.1111111 20.4444444,46.713142 20.4444444,46.2222222 L20.4444444,40.8888889 C20.4444444,40.3979691 20.8424136,40 21.3333333,40 Z M30.2222222,27.5555556 L32,27.5555556 C32.4909198,27.5555556 32.8888889,27.9535247 32.8888889,28.4444444 L32.8888889,46.2222222 C32.8888889,46.713142 32.4909198,47.1111111 32,47.1111111 L30.2222222,47.1111111 C29.7313024,47.1111111 29.3333333,46.713142 29.3333333,46.2222222 L29.3333333,28.4444444 C29.3333333,27.9535247 29.7313024,27.5555556 30.2222222,27.5555556 Z M39.1111111,31.1111111 L40.8888889,31.1111111 C41.3798087,31.1111111 41.7777778,31.5090802 41.7777778,32 L41.7777778,46.2222222 C41.7777778,46.713142 41.3798087,47.1111111 40.8888889,47.1111111 L39.1111111,47.1111111 C38.6201913,47.1111111 38.2222222,46.713142 38.2222222,46.2222222 L38.2222222,32 C38.2222222,31.5090802 38.6201913,31.1111111 39.1111111,31.1111111 Z M48,36.4444444 L49.7777778,36.4444444 C50.2686976,36.4444444 50.6666667,36.8424136 50.6666667,37.3333333 L50.6666667,46.2222222 C50.6666667,46.713142 50.2686976,47.1111111 49.7777778,47.1111111 L48,47.1111111 C47.5090802,47.1111111 47.1111111,46.713142 47.1111111,46.2222222 L47.1111111,37.3333333 C47.1111111,36.8424136 47.5090802,36.4444444 48,36.4444444 Z M56.8888889,36.4444444 L58.6666667,36.4444444 C59.1575864,36.4444444 59.5555556,36.8424136 59.5555556,37.3333333 L59.5555556,46.2222222 C59.5555556,46.713142 59.1575864,47.1111111 58.6666667,47.1111111 L56.8888889,47.1111111 C56.3979691,47.1111111 56,46.713142 56,46.2222222 L56,37.3333333 C56,36.8424136 56.3979691,36.4444444 56.8888889,36.4444444 Z" id="Shape" fill="#0F5AFF"></path>
                <rect id="Rectangle" fill="#0F5AFF" opacity="0.5" x="34.6666667" y="56.8888889" width="10.6666667" height="7.11111111"></rect>
                <path d="M14.2222222,64 L65.7777778,64 C66.2686976,64 66.6666667,64.3979691 66.6666667,64.8888889 L66.6666667,66.6666667 C66.6666667,67.1575864 66.2686976,67.5555556 65.7777778,67.5555556 L14.2222222,67.5555556 C13.7313024,67.5555556 13.3333333,67.1575864 13.3333333,66.6666667 L13.3333333,64.8888889 C13.3333333,64.3979691 13.7313024,64 14.2222222,64 Z" id="Rectangle" fill="#0F5AFF" opacity="0.800000012"></path>
                <rect id="Rectangle" fill="#FFFFFF" opacity="0" x="0" y="0" width="80" height="80"></rect>
            </g>
        </g>
    </g>
</svg>