<?xml version="1.0" encoding="UTF-8"?>
<svg width="370px" height="24px" viewBox="0 0 370 24" version="1.1" xmlns="http://www.w3.org/2000/svg" xmlns:xlink="http://www.w3.org/1999/xlink">
    <!-- Generator: Sketch 52.6 (67491) - http://www.bohemiancoding.com/sketch -->
    <title>两大专业团队，全方位提供支持</title>
    <desc>Created with Sketch.</desc>
    <g id="页面" stroke="none" stroke-width="1" fill="none" fill-rule="evenodd">
        <g id="1-首页" transform="translate(-100.000000, -2986.000000)">
            <g id="分组-20" transform="translate(98.000000, 2934.000000)">
                <g id="两大专业团队，全方位提供支持" transform="translate(2.000000, 52.000000)">
                    <path d="M1.464,1.44 L22.536,1.44 L22.536,2.712 L15.912,2.712 L15.912,6.864 L21.288,6.864 L21.288,19.728 C21.288,21.144 20.64,21.864 19.368,21.864 L16.92,21.864 L16.56,20.616 L18.912,20.664 C19.632,20.664 19.992,20.256 19.992,19.464 L19.992,8.088 L15.864,8.088 C15.816,8.88 15.744,9.624 15.672,10.32 C16.824,12.072 18.024,14.064 19.224,16.32 L18.432,17.496 C17.28,15.048 16.296,13.128 15.48,11.712 C14.904,14.688 13.848,16.992 12.264,18.672 L11.28,17.832 C13.296,15.72 14.424,12.456 14.64,8.088 L9.192,8.088 C9.144,9 9.048,9.864 8.928,10.68 C9.888,11.976 10.848,13.416 11.856,15.048 L11.136,16.104 C10.176,14.304 9.36,12.912 8.688,11.928 C8.112,14.52 7.128,16.584 5.736,18.12 L4.752,17.256 C6.648,15.24 7.728,12.192 7.968,8.088 L4.008,8.088 L4.008,22.008 L2.712,22.008 L2.712,6.864 L8.016,6.864 C8.016,6.624 8.04,6.432 8.04,6.24 L8.04,2.712 L1.464,2.712 L1.464,1.44 Z M9.24,6.864 L14.688,6.864 L14.688,2.712 L9.264,2.712 L9.264,6.24 C9.264,6.432 9.24,6.648 9.24,6.864 Z M28.1359999,6.648 L37.5919999,6.648 C37.8079999,5.184 37.9279999,3.648 37.9519999,2.064 L37.9519999,0.24 L39.2479999,0.24 L39.2479999,1.776 C39.2479999,3.504 39.1279999,5.136 38.8879999,6.648 L49.0639999,6.648 L49.0639999,7.944 L39.4399999,7.944 C41.1199999,13.584 44.4559999,17.904 49.4959999,20.928 L48.7039999,21.984 C43.6639999,18.912 40.2559999,14.472 38.5039999,8.712 C37.1359999,14.904 33.7999999,19.368 28.4719999,22.128 L27.6559999,21.048 C32.9119999,18.456 36.1519999,14.088 37.3759999,7.944 L28.1359999,7.944 L28.1359999,6.648 Z M54.4719998,7.704 L61.4079998,7.704 C61.7199998,6.576 62.0079998,5.448 62.2959998,4.32 L56.1279998,4.32 L56.1279998,3.096 L62.5839998,3.096 C62.7999998,2.088 63.0159998,1.08 63.2079998,0.072 L64.5039998,0.192 C64.3119998,1.224 64.1199998,2.184 63.9279998,3.096 L74.4879998,3.096 L74.4879998,4.32 L63.6399998,4.32 C63.3519998,5.52 63.0879998,6.648 62.7999998,7.704 L75.9279998,7.704 L75.9279998,8.952 L62.4399998,8.952 C62.0559998,10.248 61.6479998,11.424 61.2399998,12.504 L72.9519998,12.504 L72.9519998,13.656 C71.7519998,15.576 69.8799998,17.472 67.2879998,19.344 C68.8479998,19.944 70.3359998,20.592 71.7519998,21.288 L71.0319998,22.392 C67.3599998,20.568 63.5919998,19.128 59.7519998,18.072 L60.4479998,17.04 C62.3439998,17.568 64.1679998,18.168 65.9199998,18.816 C68.2719998,17.208 70.1199998,15.504 71.4399998,13.728 L59.4159998,13.728 C59.9919998,12.192 60.5439998,10.608 61.0479998,8.952 L54.4719998,8.952 L54.4719998,7.704 Z M88.5599997,0.48 L89.8319997,0.48 L89.8319997,19.704 L93.7199997,19.704 L93.7199997,0.48 L94.9919997,0.48 L94.9919997,19.704 L102.36,19.704 L102.36,20.976 L81.2399997,20.976 L81.2399997,19.704 L88.5599997,19.704 L88.5599997,0.48 Z M100.464,4.776 L101.616,5.088 C100.656,9.312 99.4319997,12.984 97.9199997,16.152 L96.7439997,15.72 C98.1599997,12.84 99.4079997,9.192 100.464,4.776 Z M83.0159997,4.704 C84.2879997,7.992 85.4159997,11.76 86.4239997,16.008 L85.2239997,16.296 C84.3599997,12.432 83.2319997,8.688 81.8879997,5.088 L83.0159997,4.704 Z M112.256,7.128 L120.464,7.128 L120.464,4.032 L121.688,4.032 L121.688,7.128 L124.832,7.128 L124.832,8.304 L121.688,8.304 L121.688,15.888 C121.688,17.184 121.064,17.856 119.84,17.856 L117.128,17.856 L116.864,16.656 C117.728,16.704 118.592,16.752 119.408,16.752 C120.104,16.752 120.464,16.344 120.464,15.576 L120.464,8.304 L120.44,8.304 C118.544,11.664 115.904,14.304 112.544,16.224 L111.848,15.096 C115.04,13.416 117.536,11.16 119.336,8.304 L112.256,8.304 L112.256,7.128 Z M127.928,1.392 L127.928,22.104 L126.68,22.104 L126.68,20.904 L110.12,20.904 L110.12,22.104 L108.872,22.104 L108.872,1.392 L127.928,1.392 Z M110.12,19.704 L126.68,19.704 L126.68,2.592 L110.12,2.592 L110.12,19.704 Z M135.256,1.344 L142.24,1.344 L142.24,2.4 C141.472,4.632 140.56,6.96 139.504,9.36 C141.136,11.4 142,13.296 142.12,15.072 C142.096,16.032 141.856,16.752 141.376,17.184 C140.704,17.688 139.576,17.952 137.944,17.976 L137.512,16.656 C137.8,16.704 138.04,16.728 138.232,16.728 C139.264,16.68 139.96,16.536 140.32,16.296 C140.656,16.056 140.848,15.648 140.848,15.072 C140.848,13.416 139.96,11.568 138.208,9.552 C139.384,6.984 140.296,4.656 140.944,2.592 L136.552,2.592 L136.552,22.104 L135.256,22.104 L135.256,1.344 Z M147.76,0.36 L149.032,0.36 C149.032,2.712 148.936,4.848 148.744,6.792 C150.136,12.696 152.56,17.376 156.064,20.784 L155.128,21.864 C152.056,18.672 149.8,14.664 148.336,9.84 C148.216,10.536 148.096,11.208 147.952,11.832 C146.992,15.984 144.832,19.368 141.496,21.984 L140.656,20.928 C143.632,18.6 145.6,15.624 146.608,11.976 C147.376,8.904 147.76,5.04 147.76,0.36 Z M163.967999,17.352 C164.447999,17.352 164.807999,17.544 165.095999,17.928 C165.335999,18.288 165.479999,18.792 165.479999,19.416 C165.479999,20.376 165.191999,21.192 164.639999,21.888 C164.087999,22.56 163.367999,23.016 162.455999,23.256 L162.455999,22.296 C163.079999,22.104 163.559999,21.768 163.895999,21.288 C164.231999,20.856 164.375999,20.352 164.375999,19.776 C164.279999,19.8 164.135999,19.824 163.895999,19.824 C163.559999,19.824 163.271999,19.704 163.031999,19.464 C162.791999,19.224 162.671999,18.936 162.671999,18.6 C162.671999,18.216 162.767999,17.904 163.007999,17.688 C163.247999,17.448 163.559999,17.352 163.967999,17.352 Z M197.743999,0.336 L198.655999,0.336 C201.703999,3.552 205.207999,6.096 209.167999,7.944 L208.519999,9.072 C204.487999,7.128 201.055999,4.608 198.199999,1.536 C195.559999,4.512 192.103999,7.08 187.783999,9.24 L187.159999,8.088 C191.383999,6.024 194.911999,3.432 197.743999,0.336 Z M191.527999,7.992 L204.919999,7.992 L204.919999,9.264 L198.847999,9.264 L198.847999,13.848 L205.975999,13.848 L205.975999,15.12 L198.847999,15.12 L198.847999,20.064 L208.159999,20.064 L208.159999,21.336 L188.263999,21.336 L188.263999,20.064 L197.551999,20.064 L197.551999,15.12 L190.399999,15.12 L190.399999,13.848 L197.551999,13.848 L197.551999,9.264 L191.527999,9.264 L191.527999,7.992 Z M214.503999,3.864 L224.991999,3.864 C224.487999,2.712 223.863999,1.608 223.143999,0.6 L224.391999,0.144 C225.087999,1.176 225.735999,2.424 226.311999,3.864 L235.335999,3.864 L235.335999,5.136 L222.591999,5.136 C222.543999,6.12 222.471999,7.608 222.351999,9.6 C222.351999,9.672 222.327999,9.744 222.327999,9.84 L232.335999,9.84 C232.287999,14.28 232.143999,17.184 231.879999,18.576 C231.471999,20.736 230.319999,21.84 228.423999,21.912 C227.655999,21.912 226.719999,21.888 225.639999,21.84 L225.255999,20.64 C226.455999,20.688 227.463999,20.736 228.279999,20.736 C229.671999,20.664 230.511999,19.68 230.799999,17.808 C230.943999,16.656 231.015999,14.424 231.015999,11.088 L222.183999,11.088 C221.895999,13.08 221.319999,14.904 220.455999,16.56 C219.255999,18.576 217.599999,20.424 215.535999,22.128 L214.575999,21.216 C217.119999,19.056 218.847999,17.04 219.735999,15.168 C220.551999,13.296 221.007999,11.208 221.151999,8.904 C221.223999,7.2 221.271999,5.952 221.295999,5.136 L214.503999,5.136 L214.503999,3.864 Z M246.071999,0.072 L247.271999,0.648 C246.647999,2.52 245.855999,4.296 244.919999,5.952 L244.919999,22.152 L243.623999,22.152 L243.623999,8.016 C242.759999,9.24 241.823999,10.392 240.767999,11.496 L240.335999,10.128 C242.999999,7.152 244.919999,3.816 246.071999,0.072 Z M247.391999,4.224 L254.087999,4.224 C253.703999,2.832 253.295999,1.584 252.839999,0.456 L254.207999,0.24 C254.615999,1.392 254.999999,2.736 255.359999,4.224 L261.743999,4.224 L261.743999,5.448 L247.391999,5.448 L247.391999,4.224 Z M247.007999,19.56 L255.311999,19.56 C256.559999,16.296 257.663999,12.192 258.599999,7.248 L259.847999,7.56 C258.983999,12.096 257.927999,16.104 256.631999,19.56 L262.367999,19.56 L262.367999,20.832 L247.007999,20.832 L247.007999,19.56 Z M250.079999,7.512 C251.039999,10.68 251.879999,14.28 252.623999,18.36 L251.423999,18.672 C250.751999,14.928 249.911999,11.352 248.879999,7.896 L250.079999,7.512 Z M269.959999,21.864 L267.799999,21.864 L267.511999,20.616 C268.207999,20.664 268.879999,20.712 269.503999,20.712 C270.151999,20.712 270.487999,20.376 270.487999,19.728 L270.487999,13.272 C269.503999,13.68 268.495999,14.04 267.463999,14.352 L267.127999,13.056 C268.279999,12.768 269.407999,12.408 270.487999,12 L270.487999,6.216 L267.415999,6.216 L267.415999,4.944 L270.487999,4.944 L270.487999,0.288 L271.783999,0.288 L271.783999,4.944 L274.375999,4.944 L274.375999,6.216 L271.783999,6.216 L271.783999,11.448 C272.551999,11.088 273.319999,10.704 274.063999,10.296 L274.063999,11.616 C273.295999,12 272.551999,12.384 271.783999,12.72 L271.783999,20.04 C271.783999,21.24 271.159999,21.864 269.959999,21.864 Z M276.415999,1.104 L286.687999,1.104 L286.687999,9.192 L276.415999,9.192 L276.415999,1.104 Z M285.391999,8.088 L285.391999,5.712 L277.687999,5.712 L277.687999,8.088 L285.391999,8.088 Z M277.687999,4.656 L285.391999,4.656 L285.391999,2.208 L277.687999,2.208 L277.687999,4.656 Z M274.663999,11.16 L288.319999,11.16 L288.319999,12.36 L282.175999,12.36 L282.175999,15.456 L287.383999,15.456 L287.383999,16.632 L282.175999,16.632 L282.175999,20.184 C283.183999,20.328 284.383999,20.424 285.823999,20.424 C287.047999,20.424 288.079999,20.376 288.919999,20.328 L288.559999,21.624 C287.599999,21.624 286.711999,21.6 285.919999,21.576 C282.751999,21.576 280.591999,21.264 279.463999,20.664 C278.503999,20.136 277.639999,19.08 276.871999,17.544 C276.295999,19.176 275.431999,20.688 274.279999,22.056 L273.319999,21.192 C275.239999,18.936 276.271999,16.392 276.439999,13.56 L277.615999,13.704 C277.567999,14.568 277.447999,15.384 277.255999,16.176 C278.071999,17.976 279.031999,19.128 280.087999,19.632 C280.327999,19.728 280.591999,19.824 280.903999,19.92 L280.903999,12.36 L274.663999,12.36 L274.663999,11.16 Z M300.855999,5.448 L304.143999,5.448 L304.143999,0.312 L305.439999,0.312 L305.439999,5.448 L310.215999,5.448 L310.215999,0.312 L311.511999,0.312 L311.511999,5.448 L314.871999,5.448 L314.871999,6.744 L311.511999,6.744 L311.511999,12.744 L315.543999,12.744 L315.543999,14.016 L300.207999,14.016 L300.207999,12.744 L304.143999,12.744 L304.143999,6.744 L300.855999,6.744 L300.855999,5.448 Z M305.439999,12.744 L310.215999,12.744 L310.215999,6.744 L305.439999,6.744 L305.439999,12.744 Z M310.503999,15.216 C312.567999,17.496 314.127999,19.488 315.207999,21.192 L314.055999,22.008 C312.951999,20.16 311.415999,18.12 309.447999,15.888 L310.503999,15.216 Z M304.815999,15.36 L305.991999,15.936 C304.743999,18.264 303.255999,20.28 301.527999,21.984 L300.399999,21.192 C302.103999,19.56 303.567999,17.616 304.815999,15.36 Z M296.775999,8.016 C295.887999,9.288 294.903999,10.488 293.799999,11.616 L293.391999,10.224 C296.127999,7.224 298.095999,3.816 299.295999,-4.61852778e-14 L300.495999,0.576 C299.847999,2.496 299.031999,4.32 298.071999,6 L298.071999,22.104 L296.775999,22.104 L296.775999,8.016 Z M330.455999,0.192 L331.799999,0.192 L331.799999,3.48 L341.423999,3.48 L341.423999,4.776 L331.799999,4.776 L331.799999,8.832 L338.303999,8.832 L338.303999,9.984 C336.935999,12.768 334.919999,15.12 332.231999,17.088 C333.503999,17.88 334.919999,18.6 336.503999,19.224 C338.231999,19.896 340.055999,20.472 341.999999,20.952 L341.279999,22.104 C339.215999,21.576 337.247999,20.904 335.423999,20.136 C333.839999,19.44 332.399999,18.672 331.127999,17.856 C328.391999,19.632 325.079999,21.048 321.191999,22.104 L320.447999,20.976 C324.239999,20.016 327.455999,18.744 330.071999,17.112 C328.823999,16.176 327.695999,15.096 326.735999,13.872 C325.823999,12.72 325.199999,11.448 324.815999,10.056 L322.823999,10.056 L322.823999,8.832 L330.455999,8.832 L330.455999,4.776 L320.975999,4.776 L320.975999,3.48 L330.455999,3.48 L330.455999,0.192 Z M331.151999,16.392 C333.647999,14.616 335.543999,12.504 336.839999,10.056 L326.087999,10.056 C326.495999,11.424 327.191999,12.648 328.175999,13.752 C329.039999,14.736 330.047999,15.624 331.151999,16.392 Z M361.087999,0.216 L362.383999,0.216 L362.383999,2.88 L367.447999,2.88 L367.447999,4.104 L362.383999,4.104 L362.383999,7.272 L368.383999,7.272 L368.383999,8.52 L355.375999,8.52 L355.375999,7.272 L361.087999,7.272 L361.087999,4.104 L356.239999,4.104 L356.239999,2.88 L361.087999,2.88 L361.087999,0.216 Z M355.015999,11.976 L364.063999,11.976 L364.063999,9.984 L365.383999,9.984 L365.383999,11.976 L368.407999,11.976 L368.407999,13.2 L365.383999,13.2 L365.383999,20.016 C365.383999,21.264 364.735999,21.912 363.439999,21.912 L360.223999,21.912 L359.959999,20.664 C361.015999,20.712 362.023999,20.76 362.983999,20.76 C363.703999,20.76 364.063999,20.4 364.063999,19.68 L364.063999,13.2 L355.015999,13.2 L355.015999,11.976 Z M349.855999,21.864 L347.743999,21.864 L347.455999,20.64 C348.127999,20.688 348.775999,20.712 349.399999,20.712 C350.071999,20.712 350.431999,20.328 350.431999,19.584 L350.431999,13.392 C349.471999,13.752 348.463999,14.088 347.455999,14.4 L347.119999,13.08 C348.247999,12.792 349.351999,12.456 350.431999,12.072 L350.431999,6.192 L347.311999,6.192 L347.311999,4.968 L350.431999,4.968 L350.431999,0.504 L351.703999,0.504 L351.703999,4.968 L354.367999,4.968 L354.367999,6.192 L351.703999,6.192 L351.703999,11.568 C352.615999,11.16 353.503999,10.728 354.391999,10.248 L354.391999,11.592 C353.527999,12.048 352.615999,12.48 351.703999,12.864 L351.703999,19.92 C351.703999,21.216 351.079999,21.864 349.855999,21.864 Z M357.151999,14.568 C358.495999,16.104 359.527999,17.424 360.247999,18.552 L359.215999,19.296 C358.447999,18.048 357.415999,16.704 356.119999,15.24 L357.151999,14.568 Z" fill="#111111"></path>
                    <rect id="矩形" fill="#FFFFFF" fill-rule="nonzero" opacity="0" x="0" y="0" width="370" height="24"></rect>
                </g>
            </g>
        </g>
    </g>
</svg>