<?xml version="1.0" encoding="utf-8"?>
<!-- Generator: Adobe Illustrator 22.1.0, SVG Export Plug-In . SVG Version: 6.00 Build 0)  -->
<svg version="1.1" id="图层_1" xmlns="http://www.w3.org/2000/svg" xmlns:xlink="http://www.w3.org/1999/xlink" x="0px" y="0px"
	 viewBox="0 0 31 30" style="enable-background:new 0 0 31 30;" xml:space="preserve">
<style type="text/css">
	.st0{fill:#FFFFFF;}
	.st1{fill:#FFFFFF;stroke:#FFFFFF;stroke-width:3;stroke-linecap:round;}
</style>
<path id="Path-7" class="st0" d="M10,0.5c0.8,0,1.5,0.7,1.5,1.5S10.8,3.5,10,3.5H5C4.2,3.5,3.5,4.2,3.5,5v20c0,0.8,0.7,1.5,1.5,1.5
	h20c0.8,0,1.5-0.7,1.5-1.5v-4c0-0.8,0.7-1.5,1.5-1.5s1.5,0.7,1.5,1.5v4c0,2.5-2,4.5-4.5,4.5H5c-2.5,0-4.5-2-4.5-4.5V5
	c0-2.5,2-4.5,4.5-4.5H10z"/>
<path id="Path-8" class="st1" d="M23,2h5.5C28.8,2,29,2.2,29,2.5V8L23,2z"/>
<path id="Path-9" class="st0" d="M24.9,3.9c0.6-0.6,1.5-0.6,2.1,0c0.6,0.6,0.6,1.5,0,2.1l-11,11c-0.6,0.6-1.5,0.6-2.1,0
	c-0.6-0.6-0.6-1.5,0-2.1L24.9,3.9z"/>
</svg>
