<?xml version="1.0" encoding="UTF-8"?>
<svg width="100px" height="100px" viewBox="0 0 100 100" version="1.1" xmlns="http://www.w3.org/2000/svg" xmlns:xlink="http://www.w3.org/1999/xlink">
    <!-- Generator: Sketch 52.6 (67491) - http://www.bohemiancoding.com/sketch -->
    <title>智慧校招icon</title>
    <desc>Created with Sketch.</desc>
    <g id="页面" stroke="none" stroke-width="1" fill="none" fill-rule="evenodd">
        <g id="深色" transform="translate(-599.000000, -2410.000000)">
            <g id="分组-17" transform="translate(160.000000, 1998.000000)">
                <g id="分组-13" transform="translate(336.000000, 376.000000)">
                    <g id="智慧校招icon" transform="translate(103.000000, 36.000000)">
                        <path d="M28.7777778,41.1111111 L50,50.8309326 L71.2222222,41.1111111 L72.2222222,64.7777778 C64.8148148,70.7037037 57.4074074,73.6666667 50,73.6666667 C42.5925926,73.6666667 35.1851852,70.7037037 27.7777778,64.7777778 L28.7777778,41.1111111 Z" id="Rectangle" fill="#FFFFFF" fill-rule="nonzero"></path>
                        <path d="M31,42.1111111 L30,63.6967238 C36.7501144,68.8863031 43.4061493,71.4444444 50,71.4444444 C56.5938507,71.4444444 63.2498856,68.8863031 70,63.6967235 L69,42.1111111 L71.2222222,41.1111111 L72.2222222,64.7777778 C64.8148148,70.7037037 57.4074074,73.6666667 50,73.6666667 C42.5925926,73.6666667 35.1851852,70.7037037 27.7777778,64.7777778 L28.7777778,41.1111111 L31,42.1111111 Z" id="Path" fill="#0F5AFF" fill-rule="nonzero"></path>
                        <path d="M69,42.5284424 L70,63.6666667 C63.2815548,68.8518519 56.5631096,71.4444444 49.8446643,71.4444444 C49.8446643,69.3235603 49.8446643,67.2026762 49.8446643,65.0817921 L49.8446643,65.0817921 C49.8446643,62.3035379 48.6888646,59.6505107 46.6543014,57.7586204 L31.0058594,43.2075195 L31.0058594,41 L49.8446643,50.4420166 L69,42.5284424 Z" id="Rectangle" fill="#0F5AFF" fill-rule="nonzero" opacity="0.1"></path>
                        <path d="M49.2121614,21.3376451 L17.1446717,35.080855 C16.637042,35.2984106 16.4018904,35.8862895 16.619446,36.3939193 C16.7205952,36.6299342 16.9086569,36.8179958 17.1446717,36.919145 L49.2121614,50.6623549 C49.715259,50.8779681 50.284741,50.8779681 50.7878386,50.6623549 L82.8553283,36.919145 C83.362958,36.7015894 83.5981096,36.1137105 83.380554,35.6060807 C83.2794048,35.3700658 83.0913431,35.1820042 82.8553283,35.080855 L50.7878386,21.3376451 C50.284741,21.1220319 49.715259,21.1220319 49.2121614,21.3376451 Z" id="Path" stroke="#2D6EFF" stroke-width="2" fill="#FFFFFF" fill-rule="nonzero"></path>
                        <polygon id="Path-2" fill="#0F5AFF" fill-rule="nonzero" points="46.6666667 35.6755261 54.8230329 32.7777778 73.3333333 39.8235902 73.3333333 72.3838861 65.6712923 76.7777778 65.6712923 43.1190089"></polygon>
                        <path d="M53.2304778,35.6970026 L55.5315516,33.6809384 C55.2694302,32.5511458 52.8929416,31.6666667 50,31.6666667 C46.9317514,31.6666667 44.4444444,32.6615894 44.4444444,33.8888889 C44.4444444,35.1161883 46.9317514,36.1111111 50,36.1111111 C51.2048966,36.1111111 52.320205,35.957682 53.2304778,35.6970026 Z M57.1194973,32.2896748 L57.2872754,32.1426776 C57.1089504,31.1527286 57.2419582,31.7068603 57.6862988,33.8050726 C58.1987935,35.9673935 56.5579182,37.4768138 52.7636726,38.3333333 L52.0320148,37.9882306 C51.3821986,38.0702413 50.7000416,38.1111111 50,38.1111111 C45.9181983,38.1111111 42.4444444,36.7216096 42.4444444,33.8888889 C42.4444444,31.0561682 45.9181983,29.6666667 50,29.6666667 C53.221545,29.6666667 56.0643315,30.5321997 57.1194973,32.2896748 Z" id="Combined-Shape" fill="#FFFFFF" fill-rule="nonzero"></path>
                        <ellipse id="Combined-Shape" fill="#0F5AFF" fill-rule="nonzero" cx="50" cy="33.8888889" rx="5.55555556" ry="2.22222222"></ellipse>
                        <rect id="Rectangle-6-Copy-10" fill="#FFFFFF" opacity="0" x="0" y="0" width="100" height="100"></rect>
                    </g>
                </g>
            </g>
        </g>
    </g>
</svg>