<?xml version="1.0" encoding="UTF-8"?>
<svg width="320px" height="36px" viewBox="0 0 320 36" version="1.1" xmlns="http://www.w3.org/2000/svg" xmlns:xlink="http://www.w3.org/1999/xlink">
    <!-- Generator: Sketch 52.6 (67491) - http://www.bohemiancoding.com/sketch -->
    <title>赋能五大招聘渠道</title>
    <desc>Created with Sketch.</desc>
    <g id="组件" stroke="none" stroke-width="1" fill="none" fill-rule="evenodd">
        <g id="赋能四大招聘渠道">
            <g>
                <path d="M14.06,3.1 L14.06,25.492 L11.756,25.492 L11.756,5.476 L5.348,5.476 L5.348,25.636 L3.044,25.636 L3.044,3.1 L14.06,3.1 Z M7.508,8.14 L9.632,8.14 L9.632,19.876 C9.56,23.872 9.02,27.076 8.048,29.452 C7.112,31.648 5.528,33.376 3.332,34.6 L2,32.512 C4.016,31.36 5.456,29.776 6.284,27.832 C7.04,25.78 7.436,23.116 7.508,19.876 L7.508,8.14 Z M11,27.076 C12.116,28.372 13.124,29.668 14.024,30.964 C14.816,30.82 15.536,30.712 16.256,30.604 L16.256,17.176 L18.344,17.176 L18.344,30.208 C19.172,30.028 19.964,29.848 20.684,29.704 L20.684,13.972 L22.916,13.972 L22.916,19.696 L25.58,19.696 L25.58,21.856 L22.916,21.856 L22.916,29.128 C24.212,28.768 25.4,28.408 26.552,28.048 L26.552,30.316 C23.024,31.54 19.064,32.548 14.636,33.34 L13.52,34.42 C12.512,32.62 11.144,30.676 9.416,28.588 L11,27.076 Z M16.616,4 L23.996,4 L23.996,6.34 L16.616,6.34 L16.616,4 Z M15.464,9.976 L26.552,9.976 C26.48,7.456 26.48,4.756 26.48,1.84 L28.784,1.84 C28.784,4.828 28.784,7.528 28.856,9.976 L34.472,9.976 L34.472,12.388 L28.892,12.388 C29.036,19.66 29.36,24.556 29.864,27.004 C30.404,29.74 31.016,31.216 31.7,31.36 C32.132,31.324 32.492,29.668 32.78,26.428 L34.76,27.796 C34.256,32.152 33.284,34.348 31.844,34.348 C30.98,34.348 30.152,33.736 29.432,32.512 C28.496,30.856 27.812,28.624 27.38,25.888 C26.948,23.368 26.696,18.868 26.588,12.388 L15.464,12.388 L15.464,9.976 Z M31.376,2.56 C32.384,4.216 33.284,5.98 34.04,7.852 L32.132,8.716 C31.304,6.628 30.404,4.792 29.396,3.208 L31.376,2.56 Z M46.896,22.252 L46.896,25.6 L55.212,25.6 L55.212,22.252 L46.896,22.252 Z M55.212,20.092 L55.212,16.6 L46.896,16.6 L46.896,20.092 L55.212,20.092 Z M46.896,27.796 L46.896,34.672 L44.412,34.672 L44.412,14.332 L57.696,14.332 L57.696,31.252 C57.696,33.34 56.688,34.42 54.672,34.42 L51.792,34.42 L51.144,31.972 L53.844,32.08 C54.744,32.08 55.212,31.612 55.212,30.712 L55.212,27.796 L46.896,27.796 Z M70.332,17.32 L64.392,17.32 C62.196,17.32 61.116,16.132 61.116,13.792 L61.116,1.696 L63.672,1.696 L63.672,6.376 C67.632,5.764 70.836,5.116 73.32,4.468 L74.148,6.736 C71.124,7.492 67.632,8.176 63.672,8.752 L63.672,13.252 C63.672,14.404 64.14,14.98 65.112,14.98 L69.828,14.98 C70.548,14.98 71.052,14.764 71.34,14.404 C71.7,13.9 71.916,12.568 72.06,10.336 L74.472,11.092 C74.22,14.044 73.752,15.844 73.104,16.492 C72.528,17.032 71.592,17.32 70.332,17.32 Z M63.672,25.456 L63.672,30.604 C63.672,31.324 64.104,31.72 65.04,31.72 L69.936,31.72 C70.656,31.72 71.196,31.54 71.484,31.216 C71.88,30.712 72.132,29.38 72.276,27.184 L74.616,27.904 C74.4,30.82 73.932,32.584 73.248,33.232 C72.672,33.772 71.736,34.06 70.44,34.06 L64.32,34.06 C62.16,34.06 61.116,33.088 61.116,31.18 L61.116,18.688 L63.672,18.688 L63.672,23.116 C67.272,22.756 70.476,22.144 73.32,21.28 L74.148,23.584 C70.908,24.52 67.416,25.132 63.672,25.456 Z M55.104,4.144 C57.264,7.06 58.956,9.58 60.144,11.74 L58.02,13.252 C57.624,12.46 57.192,11.668 56.724,10.876 C52.872,11.488 48.264,11.92 42.936,12.208 L42.216,10.048 C42.684,9.904 43.08,9.652 43.404,9.364 C45.636,7.06 47.508,4.468 48.948,1.588 L51.396,2.344 C49.74,5.548 47.94,8.068 45.924,9.904 C48.948,9.724 52.152,9.436 55.536,9.004 C54.78,7.852 53.952,6.628 53.088,5.404 L55.104,4.144 Z M85.672,15.052 L93.844,15.052 L95.716,6.196 L83.836,6.196 L83.836,3.676 L113.104,3.676 L113.104,6.196 L98.308,6.196 L96.436,15.052 L108.568,15.052 L108.568,30.496 L114.472,30.496 L114.472,33.052 L82.468,33.052 L82.468,30.496 L90.604,30.496 L93.304,17.572 L85.672,17.572 L85.672,15.052 Z M93.196,30.496 L105.94,30.496 L105.94,17.572 L95.896,17.572 L93.196,30.496 Z M122.648,11.056 L136.652,11.056 C136.94,8.968 137.084,6.808 137.12,4.54 L137.12,1.624 L139.784,1.624 L139.784,3.964 C139.784,6.484 139.604,8.824 139.316,11.056 L154.256,11.056 L154.256,13.576 L140.072,13.576 C142.592,21.712 147.56,27.976 154.94,32.368 L153.32,34.456 C146.084,29.992 141.116,23.728 138.416,15.592 C136.184,24.34 131.216,30.712 123.548,34.708 L121.928,32.548 C129.596,28.768 134.348,22.432 136.22,13.576 L122.648,13.576 L122.648,11.056 Z M192.924,19.588 L192.924,34.528 L190.368,34.528 L190.368,33.052 L178.776,33.052 L178.776,34.528 L176.22,34.528 L176.22,19.588 L192.924,19.588 Z M178.776,30.568 L190.368,30.568 L190.368,22.108 L178.776,22.108 L178.776,30.568 Z M166.428,34.204 L163.116,34.204 L162.576,31.684 C163.584,31.756 164.592,31.828 165.528,31.828 C166.464,31.828 166.968,31.324 166.968,30.388 L166.968,21.532 C165.456,22.144 163.908,22.72 162.36,23.224 L161.676,20.524 C163.476,20.092 165.24,19.516 166.968,18.868 L166.968,10.696 L162.36,10.696 L162.36,8.212 L166.968,8.212 L166.968,1.624 L169.56,1.624 L169.56,8.212 L173.808,8.212 L173.808,10.696 L169.56,10.696 L169.56,17.788 C170.892,17.176 172.188,16.528 173.448,15.808 L173.448,18.436 C172.152,19.156 170.856,19.804 169.56,20.416 L169.56,31.036 C169.56,33.124 168.516,34.204 166.428,34.204 Z M181.584,5.548 L175.464,5.548 L175.464,3.1 L193.428,3.1 C193.392,9.904 192.996,13.972 192.24,15.34 C191.448,16.672 190.152,17.356 188.28,17.356 C187.488,17.356 186.552,17.284 185.472,17.212 L184.86,14.908 C186.012,14.98 186.948,15.052 187.74,15.088 C189.072,15.016 189.9,14.476 190.26,13.468 C190.62,12.46 190.836,9.832 190.908,5.548 L184.104,5.548 C183.528,8.608 182.7,11.02 181.692,12.82 C180.432,14.836 178.56,16.672 176.076,18.328 L174.528,16.276 C176.688,14.908 178.344,13.396 179.424,11.74 C180.36,10.156 181.08,8.068 181.584,5.548 Z M217.264,4.576 L224.176,4.576 L224.176,1.696 L226.516,1.696 L226.516,4.576 L233.428,4.576 L233.428,16.924 L217.264,16.924 L217.264,4.576 Z M231.052,14.8 L231.052,11.812 L226.516,11.812 L226.516,14.8 L231.052,14.8 Z M224.176,14.8 L224.176,11.812 L219.604,11.812 L219.604,14.8 L224.176,14.8 Z M219.604,9.796 L224.176,9.796 L224.176,6.7 L219.604,6.7 L219.604,9.796 Z M226.516,6.7 L226.516,9.796 L231.052,9.796 L231.052,6.7 L226.516,6.7 Z M215.5,19.3 L234.832,19.3 L234.832,21.568 L223.096,21.568 L221.728,24.664 L232.78,24.664 C232.564,29.344 232.06,32.116 231.268,33.016 C230.476,33.88 228.964,34.312 226.732,34.312 C225.22,34.312 223.852,34.24 222.628,34.132 L221.836,31.864 C223.492,32.008 224.932,32.08 226.228,32.08 C227.92,32.08 228.964,31.792 229.36,31.216 C229.72,30.64 230.008,29.164 230.224,26.86 L218.524,26.86 L220.576,21.568 L215.5,21.568 L215.5,19.3 Z M202.504,3.1 L216.04,3.1 L216.04,5.476 L214.168,5.476 L214.168,24.808 L215.896,24.16 L215.896,26.68 L214.168,27.256 L214.168,34.708 L211.756,34.708 L211.756,28.048 C208.804,28.912 205.78,29.704 202.648,30.352 L202.036,27.868 C202.756,27.724 203.512,27.616 204.268,27.472 L204.268,5.476 L202.504,5.476 L202.504,3.1 Z M206.644,26.968 C208.372,26.572 210.1,26.104 211.756,25.6 L211.756,20.488 L206.644,20.488 L206.644,26.968 Z M206.644,18.112 L211.756,18.112 L211.756,13.036 L206.644,13.036 L206.644,18.112 Z M206.644,10.66 L211.756,10.66 L211.756,5.476 L206.644,5.476 L206.644,10.66 Z M271.412,14.512 L257.048,14.512 L257.048,17.212 L273.608,17.212 L273.608,19.444 L254.528,19.444 L254.528,2.848 L273.284,2.848 L273.284,5.08 L257.048,5.08 L257.048,7.708 L271.412,7.708 L271.412,14.512 Z M257.048,9.76 L257.048,12.496 L268.964,12.496 L268.964,9.76 L257.048,9.76 Z M254.456,25.348 L242.792,25.348 L242.792,23.044 L257.264,23.044 L257.264,20.56 L259.784,20.56 L259.784,23.044 L274.22,23.044 L274.22,25.348 L262.664,25.348 C265.292,27.904 269.36,29.92 274.904,31.432 L273.716,33.916 C267.38,31.756 262.952,28.876 260.36,25.348 L259.784,25.348 L259.784,34.636 L257.264,34.636 L257.264,25.348 L256.688,25.348 C254.42,28.804 250.064,31.792 243.584,34.24 L242.108,31.828 C248.156,29.92 252.296,27.76 254.456,25.348 Z M245.852,1.912 C248.192,2.848 250.316,4 252.26,5.368 L250.964,7.348 C248.876,5.836 246.752,4.684 244.556,3.82 L245.852,1.912 Z M244.196,7.132 C246.14,7.924 247.94,8.86 249.596,9.94 L248.264,11.992 C246.5,10.768 244.7,9.796 242.9,9.076 L244.196,7.132 Z M250.82,11.884 L252.764,13.36 C250.172,16.384 247.472,18.868 244.664,20.884 L242.9,18.904 C245.852,16.924 248.48,14.584 250.82,11.884 Z M292.44,5.584 L298.416,5.584 C297.84,4.468 297.192,3.424 296.472,2.452 L298.884,1.552 C299.676,2.704 300.432,4.036 301.08,5.584 L305.328,5.584 C306.192,4.288 306.984,2.92 307.632,1.48 L310.152,2.344 C309.54,3.568 308.892,4.648 308.172,5.584 L314.292,5.584 L314.292,7.996 L304.212,7.996 C303.96,9.004 303.636,9.976 303.276,10.912 L311.844,10.912 L311.844,28.264 L294.78,28.264 L294.78,10.912 L300.54,10.912 C300.936,9.94 301.224,8.968 301.44,7.996 L292.44,7.996 L292.44,5.584 Z M309.396,25.96 L309.396,22.972 L297.228,22.972 L297.228,25.96 L309.396,25.96 Z M297.228,20.884 L309.396,20.884 L309.396,18.148 L297.228,18.148 L297.228,20.884 Z M297.228,16.06 L309.396,16.06 L309.396,13.216 L297.228,13.216 L297.228,16.06 Z M284.988,2.164 C287.472,4.036 289.56,5.908 291.252,7.78 L289.416,9.58 C287.904,7.78 285.852,5.872 283.224,3.856 L284.988,2.164 Z M305.976,33.952 C304.032,33.952 301.908,33.916 299.604,33.88 C297.3,33.844 295.428,33.628 293.988,33.232 C292.548,32.8 291.288,31.9 290.208,30.604 C289.704,29.992 289.236,29.704 288.804,29.704 C287.94,29.704 286.5,31.324 284.448,34.636 L282.504,32.908 C284.484,29.812 286.212,27.976 287.688,27.4 L287.688,16.456 L282.396,16.456 L282.396,14.08 L290.1,14.08 L290.1,27.544 C290.388,27.76 290.676,28.048 290.964,28.372 C291.828,29.416 292.764,30.172 293.736,30.64 C294.852,31.144 296.472,31.432 298.596,31.504 C300.468,31.54 302.808,31.576 305.616,31.576 C307.308,31.576 309.036,31.54 310.8,31.504 C312.528,31.468 313.896,31.432 314.832,31.36 L314.22,33.952 L305.976,33.952 Z" id="赋能五大招聘渠道" stroke="#333333" fill="#111111"></path>
                <rect id="矩形" fill="#FFFFFF" fill-rule="nonzero" opacity="0" x="0" y="0" width="320" height="36"></rect>
            </g>
        </g>
    </g>
</svg>