<?xml version="1.0" encoding="UTF-8"?>
<svg width="116px" height="56px" viewBox="0 0 116 56" version="1.1" xmlns="http://www.w3.org/2000/svg" xmlns:xlink="http://www.w3.org/1999/xlink">
    <!-- Generator: Sketch 52.6 (67491) - http://www.bohemiancoding.com/sketch -->
    <title>BOT待命</title>
    <desc>Created with Sketch.</desc>
    <defs>
        <linearGradient x1="-23.1989352%" y1="-19.1313564%" x2="100%" y2="100%" id="linearGradient-1">
            <stop stop-color="#2293FF" offset="0%"></stop>
            <stop stop-color="#0F5AFF" offset="100%"></stop>
        </linearGradient>
    </defs>
    <g id="页面" stroke="none" stroke-width="1" fill="none" fill-rule="evenodd">
        <g id="1-首页" transform="translate(-662.000000, -1226.000000)">
            <g id="BOT待命" transform="translate(662.000000, 1226.000000)">
                <path d="M23.1788306,4.24108245 L113.16841,23.368958 C114.248842,23.5986109 114.938535,24.6606446 114.708882,25.7410766 L111.798118,39.435143 C109.960895,48.078599 101.464625,53.5961409 92.8211694,51.7589176 L2.83159011,32.631042 C1.7511581,32.4013891 1.06146538,31.3393554 1.29111829,30.2589234 L4.20188196,16.564857 C6.03910526,7.92140096 14.5353746,2.40385915 23.1788306,4.24108245 Z" id="矩形-copy-12" fill="#0F5AFF" fill-rule="nonzero" opacity="0.100000001"></path>
                <path d="M20.8861015,8.01103961 L112.382116,17.6276582 C113.480634,17.7431172 114.277562,18.7272404 114.162103,19.8257589 L112.698704,33.7490655 C111.775033,42.5372139 103.902047,48.912632 95.1138985,47.9889604 L3.61788413,38.3723418 C2.51936558,38.2568828 1.72243832,37.2727596 1.83789727,36.1742411 L3.30129575,22.2509345 C4.22496737,13.4627861 12.0979531,7.08736799 20.8861015,8.01103961 Z" id="矩形-copy-11" fill="#0F5AFF" fill-rule="nonzero" opacity="0.400000006"></path>
                <path d="M19,12 L111,12 C112.104569,12 113,12.8954305 113,14 L113,28 C113,36.836556 105.836556,44 97,44 L5,44 C3.8954305,44 3,43.1045695 3,42 L3,28 C3,19.163444 10.163444,12 19,12 Z" id="矩形-copy-10" fill="url(#linearGradient-1)" fill-rule="nonzero"></path>
                <path d="M22.576,21.148 L28.444,21.148 C29.704,21.148 30.676,21.436 31.396,22.048 C32.08,22.624 32.422,23.398 32.422,24.388 C32.422,25.108 32.242,25.72 31.882,26.224 C31.522,26.692 31.036,27.052 30.388,27.286 C31.234,27.448 31.882,27.79 32.314,28.312 C32.746,28.834 32.962,29.536 32.962,30.4 C32.962,31.696 32.512,32.632 31.63,33.244 C30.874,33.748 29.812,34 28.444,34 L22.576,34 L22.576,21.148 Z M24.538,22.768 L24.538,26.602 L27.922,26.602 C28.822,26.602 29.47,26.44 29.866,26.134 C30.262,25.81 30.46,25.306 30.46,24.622 C30.46,23.974 30.262,23.506 29.866,23.218 C29.47,22.912 28.822,22.768 27.958,22.768 L24.538,22.768 Z M24.538,28.204 L24.538,32.38 L28.174,32.38 C29.002,32.38 29.65,32.236 30.118,31.984 C30.694,31.642 31,31.102 31,30.364 C31,29.608 30.766,29.05 30.316,28.708 C29.866,28.366 29.164,28.204 28.228,28.204 L24.538,28.204 Z M40.63,20.896 C42.574,20.896 44.122,21.526 45.256,22.804 C46.336,24.01 46.876,25.612 46.876,27.592 C46.876,29.554 46.336,31.138 45.256,32.362 C44.122,33.622 42.574,34.252 40.63,34.252 C38.668,34.252 37.12,33.604 36.004,32.344 C34.924,31.12 34.402,29.536 34.402,27.592 C34.402,25.63 34.924,24.046 36.004,22.822 C37.12,21.526 38.668,20.896 40.63,20.896 Z M40.63,22.624 C39.262,22.624 38.2,23.074 37.444,24.01 C36.724,24.892 36.364,26.08 36.364,27.592 C36.364,29.086 36.724,30.274 37.444,31.156 C38.2,32.056 39.262,32.524 40.63,32.524 C41.998,32.524 43.06,32.074 43.798,31.192 C44.518,30.328 44.896,29.122 44.896,27.592 C44.896,26.044 44.518,24.838 43.798,23.956 C43.06,23.056 41.998,22.624 40.63,22.624 Z M47.866,21.148 L58.396,21.148 L58.396,22.822 L54.112,22.822 L54.112,34 L52.168,34 L52.168,22.822 L47.866,22.822 L47.866,21.148 Z M62.932,19.114 L64.408,19.798 C63.508,21.778 61.96,23.578 59.8,25.162 L59.314,23.524 C60.934,22.264 62.14,20.788 62.932,19.114 Z M63.58,23.272 L65.038,23.956 C64.624,24.892 64.102,25.774 63.49,26.602 L63.49,35.746 L61.852,35.746 L61.852,28.474 C61.258,29.05 60.628,29.59 59.962,30.112 L59.476,28.492 C61.312,26.998 62.68,25.252 63.58,23.272 Z M69.664,19.204 L71.302,19.204 L71.302,21.022 L75.208,21.022 L75.208,22.588 L71.302,22.588 L71.302,24.442 L75.946,24.442 L75.946,26.026 L65.146,26.026 L65.146,24.442 L69.664,24.442 L69.664,22.588 L65.794,22.588 L65.794,21.022 L69.664,21.022 L69.664,19.204 Z M65.2,27.826 L72.04,27.826 L72.04,26.638 L73.732,26.638 L73.732,27.826 L75.694,27.826 L75.694,29.428 L73.732,29.428 L73.732,33.676 C73.732,35.008 73.084,35.674 71.806,35.674 L69.25,35.674 L68.854,34.036 C69.682,34.108 70.456,34.144 71.194,34.144 C71.752,34.144 72.04,33.838 72.04,33.262 L72.04,29.428 L65.2,29.428 L65.2,27.826 Z M67.54,29.878 C68.53,30.886 69.286,31.75 69.826,32.488 L68.494,33.424 C67.918,32.614 67.162,31.714 66.208,30.724 L67.54,29.878 Z M84.928,26.8 L84.928,33.874 L83.29,33.874 L83.29,33.01 L80.806,33.01 L80.806,34.198 L79.15,34.198 L79.15,26.8 L84.928,26.8 Z M80.806,31.444 L83.29,31.444 L83.29,28.348 L80.806,28.348 L80.806,31.444 Z M85.072,19.168 L86.332,19.168 C88.204,21.274 90.76,23.02 93.982,24.388 L93.01,25.828 C91.696,25.252 90.526,24.622 89.482,23.938 L89.482,25.216 L81.886,25.216 L81.886,23.902 C80.806,24.586 79.636,25.234 78.34,25.828 L77.386,24.388 C80.734,22.894 83.29,21.148 85.072,19.168 Z M82.246,23.668 L89.068,23.668 C87.736,22.768 86.602,21.778 85.702,20.698 C84.73,21.778 83.578,22.768 82.246,23.668 Z M90.472,33.946 L89.014,33.946 L88.582,32.362 L89.932,32.434 C90.418,32.434 90.67,32.2 90.67,31.75 L90.67,28.348 L87.934,28.348 L87.934,35.998 L86.26,35.998 L86.26,26.8 L92.29,26.8 L92.29,32.128 C92.29,33.334 91.678,33.946 90.472,33.946 Z" fill="#FFFFFF"></path>
                <rect id="矩形" fill="#FFFFFF" fill-rule="nonzero" opacity="0" x="0" y="0" width="116" height="56"></rect>
            </g>
        </g>
    </g>
</svg>