<?xml version="1.0" encoding="utf-8"?>
<!-- Generator: Adobe Illustrator 22.1.0, SVG Export Plug-In . SVG Version: 6.00 Build 0)  -->
<svg version="1.1" id="图层_1" xmlns="http://www.w3.org/2000/svg" xmlns:xlink="http://www.w3.org/1999/xlink" x="0px" y="0px"
	 viewBox="0 0 80 80" style="enable-background:new 0 0 80 80;" xml:space="preserve">
<style type="text/css">
	.st0{fill:#EEEEEE;}
	.st1{fill:#FFFFFF;}
</style>
<path id="Oval" class="st0" d="M40,78c21,0,38-17,38-38S61,2,40,2S2,19,2,40S19,78,40,78z M40,80C17.9,80,0,62.1,0,40S17.9,0,40,0
	s40,17.9,40,40S62.1,80,40,80z"/>
<path id="Combined-Shape" class="st1" d="M40,37.2l9.6-9.6c0.8-0.8,2-0.8,2.8,0c0.8,0.8,0.8,2,0,2.8L42.8,40l9.6,9.6
	c0.8,0.8,0.8,2,0,2.8c-0.8,0.8-2,0.8-2.8,0L40,42.8l-9.6,9.6c-0.8,0.8-2,0.8-2.8,0c-0.8-0.8-0.8-2,0-2.8l9.6-9.6l-9.6-9.6
	c-0.8-0.8-0.8-2,0-2.8c0.8-0.8,2-0.8,2.8,0L40,37.2z"/>
</svg>
