<?xml version="1.0" encoding="UTF-8"?>
<svg width="96px" height="56px" viewBox="0 0 96 56" version="1.1" xmlns="http://www.w3.org/2000/svg" xmlns:xlink="http://www.w3.org/1999/xlink">
    <!-- Generator: Sketch 52.6 (67491) - http://www.bohemiancoding.com/sketch -->
    <title>AI为钥</title>
    <desc>Created with Sketch.</desc>
    <defs>
        <linearGradient x1="-23.1989352%" y1="-19.1313564%" x2="100%" y2="100%" id="linearGradient-1">
            <stop stop-color="#2293FF" offset="0%"></stop>
            <stop stop-color="#0F5AFF" offset="100%"></stop>
        </linearGradient>
    </defs>
    <g id="页面" stroke="none" stroke-width="1" fill="none" fill-rule="evenodd">
        <g id="1-首页" transform="translate(-673.000000, -665.000000)">
            <g id="AI为钥" transform="translate(673.000000, 665.000000)">
                <path d="M22.9603066,6.32019935 L93.3869339,21.2898411 C94.4673659,21.519494 95.1570586,22.5815277 94.9274057,23.6619597 L92.016642,37.3560261 C90.1794187,45.9994821 81.6831494,51.5170239 73.0396934,49.6798006 L2.61306612,34.7101589 C1.53263411,34.480506 0.842941383,33.4184723 1.0725943,32.3380403 L3.98335797,18.6439739 C5.82058127,10.0005179 14.3168506,4.48297606 22.9603066,6.32019935 Z" id="矩形" fill="#0F5AFF" fill-rule="nonzero" opacity="0.100000001"></path>
                <path d="M20.8313204,9.05632424 L92.4368969,16.5823736 C93.5354155,16.6978325 94.3323427,17.6819558 94.2168838,18.7804743 L92.7534853,32.7037808 C91.8298137,41.4919293 83.956828,47.8673474 75.1686796,46.9436758 L3.56310309,39.4176264 C2.46458453,39.3021675 1.66765727,38.3180442 1.78311622,37.2195257 L3.24651471,23.2962192 C4.17018633,14.5080707 12.043172,8.13265262 20.8313204,9.05632424 Z" id="矩形" fill="#0F5AFF" fill-rule="nonzero" opacity="0.400000006"></path>
                <path d="M19,12 L91,12 C92.1045695,12 93,12.8954305 93,14 L93,28 C93,36.836556 85.836556,44 77,44 L5,44 C3.8954305,44 3,43.1045695 3,42 L3,28 C3,19.163444 10.163444,12 19,12 Z" id="矩形" fill="url(#linearGradient-1)" fill-rule="nonzero"></path>
                <path d="M26.616,21.148 L28.848,21.148 L33.798,34 L31.692,34 L30.486,30.688 L24.96,30.688 L23.754,34 L21.666,34 L26.616,21.148 Z M25.554,29.068 L29.892,29.068 L27.768,23.254 L27.696,23.254 L25.554,29.068 Z M35.094,21.148 L37.038,21.148 L37.038,34 L35.094,34 L35.094,21.148 Z M41.826,19.654 C42.87,20.698 43.662,21.634 44.238,22.462 L42.906,23.38 C42.294,22.534 41.502,21.598 40.53,20.59 L41.826,19.654 Z M48.288,27.214 C49.53,28.582 50.484,29.788 51.168,30.814 L49.656,31.858 C48.972,30.724 48.072,29.464 46.92,28.078 L48.288,27.214 Z M45.534,19.24 L47.208,19.24 L47.208,21.778 C47.19,22.39 47.154,22.984 47.118,23.56 L54.48,23.56 C54.48,28.816 54.246,32.146 53.796,33.586 C53.31,35.026 52.464,35.746 51.24,35.746 C50.304,35.746 49.53,35.71 48.9,35.656 L48.45,34 C49.422,34.09 50.322,34.144 51.132,34.144 C51.96,34.072 52.428,33.118 52.554,31.282 C52.662,29.428 52.734,27.412 52.734,25.234 L46.956,25.234 C46.668,27.484 46.146,29.374 45.408,30.904 C44.346,33.01 42.6,34.63 40.152,35.782 L39.198,34.27 C41.61,33.046 43.248,31.498 44.112,29.608 C44.634,28.366 45.012,26.908 45.264,25.234 L39.81,25.234 L39.81,23.56 L45.444,23.56 C45.48,22.984 45.516,22.39 45.534,21.778 L45.534,19.24 Z M59.394,19.276 L61.05,19.618 C60.906,20.14 60.762,20.644 60.6,21.148 L64.272,21.148 L64.272,22.75 L60.024,22.75 C59.718,23.47 59.394,24.154 59.034,24.784 L64.056,24.784 L64.056,26.314 L61.896,26.314 L61.896,28.15 L64.524,28.15 L64.524,29.734 L61.896,29.734 L61.896,33.478 C62.58,33.208 63.282,32.866 63.966,32.434 L64.218,33.802 C65.046,32.11 65.46,30.094 65.496,27.772 L65.496,19.852 L73.02,19.852 L73.02,33.982 C73.02,35.08 72.462,35.638 71.364,35.638 L69.33,35.638 L68.862,33.964 C69.564,34.018 70.212,34.054 70.824,34.054 C71.148,34.054 71.328,33.82 71.328,33.37 L71.328,30.202 L66.99,30.202 C66.702,32.47 66.054,34.396 65.028,35.98 L63.696,34.738 C63.858,34.486 64.002,34.234 64.128,33.982 C63.012,34.576 61.716,35.062 60.24,35.458 L59.538,33.982 C60.006,33.838 60.24,33.604 60.24,33.298 L60.24,29.734 L57.558,29.734 L57.558,28.15 L60.24,28.15 L60.24,26.314 L58.98,26.314 L58.98,24.874 C58.746,25.27 58.512,25.648 58.296,26.008 L56.892,25.126 C58.062,23.326 58.89,21.364 59.394,19.276 Z M67.152,25.792 L67.152,27.646 C67.152,27.97 67.134,28.276 67.116,28.582 L71.328,28.582 L71.328,25.792 L67.152,25.792 Z M71.328,24.172 L71.328,21.508 L67.152,21.508 L67.152,24.172 L71.328,24.172 Z" fill="#FFFFFF"></path>
                <rect id="矩形" fill="#FFFFFF" fill-rule="nonzero" opacity="0" x="0" y="0" width="96" height="56"></rect>
            </g>
        </g>
    </g>
</svg>