<?xml version="1.0" encoding="UTF-8"?>
<svg width="436px" height="36px" viewBox="0 0 436 36" version="1.1" xmlns="http://www.w3.org/2000/svg" xmlns:xlink="http://www.w3.org/1999/xlink">
    <!-- Generator: Sketch 52.6 (67491) - http://www.bohemiancoding.com/sketch -->
    <title>AI为钥slogan</title>
    <desc>Created with Sketch.</desc>
    <g id="页面" stroke="none" stroke-width="1" fill="none" fill-rule="evenodd">
        <g id="1-首页" transform="translate(-502.000000, -733.000000)">
            <g id="AI为钥slogan" transform="translate(502.000000, 733.000000)">
                <path d="M23.688,9.58 L23.22,11.452 C24.12,15.664 25.272,19.3 26.712,22.324 C28.116,18.688 28.872,14.44 29.016,9.58 L23.688,9.58 Z M25.524,24.916 C24.12,22.144 22.932,18.976 21.96,15.376 C21.312,17.032 20.592,18.508 19.836,19.804 L18.216,17.824 C20.34,13.792 21.78,8.356 22.5,1.516 L25.02,1.948 C24.804,3.784 24.516,5.512 24.228,7.096 L33.732,7.096 L33.732,9.58 L31.392,9.58 C31.212,15.592 30.096,20.74 28.08,24.988 C29.952,28.228 32.148,30.712 34.74,32.476 L33.336,34.6 C30.816,32.8 28.656,30.352 26.856,27.328 C25.128,30.208 22.896,32.62 20.196,34.564 L18.864,32.404 C21.672,30.46 23.868,27.976 25.524,24.916 Z M8.46,18.328 L10.872,18.616 C10.62,19.3 10.368,19.948 10.152,20.596 L17.676,20.596 L17.676,22.72 C16.884,25.096 15.552,27.148 13.68,28.876 C15.408,29.668 17.064,30.46 18.648,31.324 L17.244,33.34 C15.66,32.404 13.824,31.432 11.7,30.496 C9.324,32.152 6.336,33.484 2.736,34.492 L1.512,32.332 C4.464,31.54 7.02,30.568 9.108,29.38 C7.524,28.696 5.868,28.012 4.104,27.364 C5.04,25.78 5.868,24.304 6.588,22.864 L2.34,22.864 L2.34,20.596 L7.596,20.596 C7.92,19.804 8.208,19.048 8.46,18.328 Z M11.304,27.868 C13.104,26.428 14.472,24.736 15.336,22.864 L9.144,22.864 C8.568,24.088 7.92,25.24 7.2,26.32 C8.64,26.824 10.008,27.328 11.304,27.868 Z M5.184,2.272 C6.048,3.676 6.768,5.188 7.416,6.772 L5.544,7.636 C4.788,5.872 3.996,4.324 3.132,2.956 L5.184,2.272 Z M16.128,2.164 L18,3.028 C17.28,4.612 16.38,6.16 15.228,7.672 L13.392,6.736 C14.544,5.188 15.48,3.676 16.128,2.164 Z M2.412,8.5 L9.432,8.5 L9.432,1.624 L11.844,1.624 L11.844,8.5 L18.396,8.5 L18.396,10.768 L11.844,10.768 L11.844,11.164 C13.788,12.136 15.804,13.252 17.82,14.476 L16.488,16.492 C14.688,15.052 13.14,13.9 11.844,13.036 L11.844,17.716 L9.432,17.716 L9.432,10.876 C8.244,13.72 6.084,16.168 2.988,18.256 L1.728,16.168 C4.5,14.548 6.444,12.748 7.524,10.768 L2.412,10.768 L2.412,8.5 Z M73.264,5.296 L73.264,13.324 L70.672,13.324 L70.672,7.78 L45.328,7.78 L45.328,13.324 L42.736,13.324 L42.736,5.296 L56.884,5.296 C56.38,4 55.84,2.848 55.264,1.804 L58.216,1.3 C58.72,2.488 59.224,3.82 59.692,5.296 L73.264,5.296 Z M48.28,11.668 L67.612,11.668 L67.612,14.08 C65.272,15.736 62.644,17.32 59.764,18.904 L59.764,21.316 L73.948,21.316 L73.948,23.836 L59.764,23.836 L59.764,31.468 C59.764,33.448 58.72,34.456 56.632,34.456 L52.204,34.456 L51.592,32.08 C52.852,32.116 54.22,32.152 55.732,32.152 C56.668,32.152 57.136,31.612 57.136,30.568 L57.136,23.836 L42.088,23.836 L42.088,21.316 L57.136,21.316 L57.136,17.788 C60.052,16.276 62.248,15.016 63.724,14.08 L48.28,14.08 L48.28,11.668 Z M92.492,1.336 L94.904,2.452 C93.644,5.476 92.024,8.284 90.08,10.948 L90.08,34.672 L87.488,34.672 L87.488,14.116 C85.868,15.88 84.104,17.572 82.196,19.156 L81.368,16.456 C86.48,12.064 90.188,7.024 92.492,1.336 Z M109.088,34.024 L102.212,34.024 C99.692,34.024 98.432,32.728 98.432,30.208 L98.432,19.228 C96.92,20.092 95.372,20.884 93.788,21.64 L92.636,19.192 C94.652,18.256 96.596,17.284 98.432,16.204 L98.432,1.768 L101.024,1.768 L101.024,14.62 C104.804,12.1 108.116,9.22 110.96,6.016 L112.76,8.068 C109.412,11.668 105.488,14.872 101.024,17.68 L101.024,29.848 C101.024,30.964 101.6,31.54 102.824,31.54 L108.656,31.54 C109.592,31.54 110.312,31.216 110.744,30.64 C111.14,30.064 111.392,27.976 111.536,24.412 L113.948,25.204 C113.696,29.344 113.264,31.864 112.652,32.728 C112.004,33.592 110.816,34.024 109.088,34.024 Z M152.472,19.588 L152.472,34.528 L149.916,34.528 L149.916,33.052 L138.324,33.052 L138.324,34.528 L135.768,34.528 L135.768,19.588 L152.472,19.588 Z M138.324,30.568 L149.916,30.568 L149.916,22.108 L138.324,22.108 L138.324,30.568 Z M125.976,34.204 L122.664,34.204 L122.124,31.684 C123.132,31.756 124.14,31.828 125.076,31.828 C126.012,31.828 126.516,31.324 126.516,30.388 L126.516,21.532 C125.004,22.144 123.456,22.72 121.908,23.224 L121.224,20.524 C123.024,20.092 124.788,19.516 126.516,18.868 L126.516,10.696 L121.908,10.696 L121.908,8.212 L126.516,8.212 L126.516,1.624 L129.108,1.624 L129.108,8.212 L133.356,8.212 L133.356,10.696 L129.108,10.696 L129.108,17.788 C130.44,17.176 131.736,16.528 132.996,15.808 L132.996,18.436 C131.7,19.156 130.404,19.804 129.108,20.416 L129.108,31.036 C129.108,33.124 128.064,34.204 125.976,34.204 Z M141.132,5.548 L135.012,5.548 L135.012,3.1 L152.976,3.1 C152.94,9.904 152.544,13.972 151.788,15.34 C150.996,16.672 149.7,17.356 147.828,17.356 C147.036,17.356 146.1,17.284 145.02,17.212 L144.408,14.908 C145.56,14.98 146.496,15.052 147.288,15.088 C148.62,15.016 149.448,14.476 149.808,13.468 C150.168,12.46 150.384,9.832 150.456,5.548 L143.652,5.548 C143.076,8.608 142.248,11.02 141.24,12.82 C139.98,14.836 138.108,16.672 135.624,18.328 L134.076,16.276 C136.236,14.908 137.892,13.396 138.972,11.74 C139.908,10.156 140.628,8.068 141.132,5.548 Z M176.812,4.576 L183.724,4.576 L183.724,1.696 L186.064,1.696 L186.064,4.576 L192.976,4.576 L192.976,16.924 L176.812,16.924 L176.812,4.576 Z M190.6,14.8 L190.6,11.812 L186.064,11.812 L186.064,14.8 L190.6,14.8 Z M183.724,14.8 L183.724,11.812 L179.152,11.812 L179.152,14.8 L183.724,14.8 Z M179.152,9.796 L183.724,9.796 L183.724,6.7 L179.152,6.7 L179.152,9.796 Z M186.064,6.7 L186.064,9.796 L190.6,9.796 L190.6,6.7 L186.064,6.7 Z M175.048,19.3 L194.38,19.3 L194.38,21.568 L182.644,21.568 L181.276,24.664 L192.328,24.664 C192.112,29.344 191.608,32.116 190.816,33.016 C190.024,33.88 188.512,34.312 186.28,34.312 C184.768,34.312 183.4,34.24 182.176,34.132 L181.384,31.864 C183.04,32.008 184.48,32.08 185.776,32.08 C187.468,32.08 188.512,31.792 188.908,31.216 C189.268,30.64 189.556,29.164 189.772,26.86 L178.072,26.86 L180.124,21.568 L175.048,21.568 L175.048,19.3 Z M162.052,3.1 L175.588,3.1 L175.588,5.476 L173.716,5.476 L173.716,24.808 L175.444,24.16 L175.444,26.68 L173.716,27.256 L173.716,34.708 L171.304,34.708 L171.304,28.048 C168.352,28.912 165.328,29.704 162.196,30.352 L161.584,27.868 C162.304,27.724 163.06,27.616 163.816,27.472 L163.816,5.476 L162.052,5.476 L162.052,3.1 Z M166.192,26.968 C167.92,26.572 169.648,26.104 171.304,25.6 L171.304,20.488 L166.192,20.488 L166.192,26.968 Z M166.192,18.112 L171.304,18.112 L171.304,13.036 L166.192,13.036 L166.192,18.112 Z M166.192,10.66 L171.304,10.66 L171.304,5.476 L166.192,5.476 L166.192,10.66 Z M216.056,3.748 L216.056,25.672 C216.884,25.42 217.676,25.168 218.468,24.916 L218.468,27.364 C213.788,28.876 208.352,30.28 202.16,31.576 L201.44,29.056 C202.304,28.876 203.168,28.696 204.032,28.552 L204.032,3.748 L216.056,3.748 Z M206.588,28.012 C209.036,27.472 211.34,26.932 213.536,26.356 L213.536,21.388 L206.588,21.388 L206.588,28.012 Z M206.588,19.048 L213.536,19.048 L213.536,13.612 L206.588,13.612 L206.588,19.048 Z M206.588,11.236 L213.536,11.236 L213.536,6.124 L206.588,6.124 L206.588,11.236 Z M222.608,1.768 L225.2,1.768 L225.2,8.968 L233.156,8.968 C233.156,20.2 232.976,27.112 232.616,29.776 C232.256,32.728 230.456,34.24 227.216,34.24 C226.64,34.24 225.632,34.204 224.192,34.132 L223.58,31.828 C224.84,31.9 225.92,31.972 226.856,31.972 C228.764,31.972 229.88,30.892 230.168,28.804 C230.384,26.932 230.528,21.136 230.6,11.488 L225.2,11.488 L225.2,11.992 C225.092,22.36 222.536,29.956 217.532,34.744 L215.588,33.052 C220.196,28.696 222.536,21.676 222.608,11.992 L222.608,11.488 L218.144,11.488 L218.144,8.968 L222.608,8.968 L222.608,1.768 Z M255.012,1.696 L257.676,1.696 L257.676,5.296 C257.64,6.556 257.604,7.78 257.532,8.968 L271.32,8.968 C271.176,15.16 270.96,20.2 270.6,24.052 C270.24,27.832 269.628,30.496 268.764,32.008 C267.9,33.448 266.532,34.204 264.66,34.348 L259.944,34.348 L259.224,31.828 C260.664,31.9 262.068,31.936 263.364,31.936 C265.416,31.936 266.748,30.676 267.396,28.192 C268.044,25.564 268.476,19.984 268.692,11.488 L257.316,11.488 C256.776,16.6 255.732,20.848 254.184,24.304 C252.024,28.696 248.568,32.116 243.744,34.564 L242.34,32.368 C247.056,29.848 250.368,26.464 252.24,22.288 C253.428,19.3 254.22,15.7 254.652,11.488 L244.176,11.488 L244.176,8.968 L254.868,8.968 C254.94,7.744 254.976,6.52 255.012,5.296 L255.012,1.696 Z M297.064,1.696 L298.936,1.696 C303.508,6.736 308.764,10.696 314.704,13.576 L313.3,16.06 C307.324,13 302.248,8.968 298,4 C294.112,8.68 288.964,12.712 282.556,16.096 L281.188,13.612 C287.524,10.444 292.816,6.448 297.064,1.696 Z M297.712,11.2 L300.34,11.2 L300.34,19.3 L310.168,19.3 L310.168,21.784 L300.34,21.784 L300.34,30.64 L312.76,30.64 L312.76,33.16 L282.808,33.16 L282.808,30.64 L288.244,30.64 L288.244,16.384 L290.8,16.384 L290.8,30.64 L297.712,30.64 L297.712,11.2 Z M332.78,1.948 L335.408,1.948 L335.408,30.568 L340.52,30.568 L340.52,1.948 L343.148,1.948 L343.148,30.568 L353.948,30.568 L353.948,33.088 L322.052,33.088 L322.052,30.568 L332.78,30.568 L332.78,1.948 Z M350.672,8.5 L352.976,9.148 C351.536,15.412 349.736,20.884 347.54,25.6 L345.2,24.772 C347.288,20.524 349.124,15.088 350.672,8.5 Z M325.148,8.428 C327.02,13.288 328.712,18.868 330.188,25.168 L327.812,25.78 C326.516,20.02 324.896,14.476 322.952,9.148 L325.148,8.428 Z M386.784,1.48 C388.512,2.776 389.988,4.108 391.212,5.44 L389.556,7.096 L393.948,7.096 L393.948,9.58 L382.86,9.58 C383.112,14.044 383.58,17.572 384.228,20.164 C384.444,21.064 384.696,21.892 384.948,22.684 C386.748,19.804 388.188,16.42 389.304,12.568 L391.644,13.576 C390.204,18.328 388.332,22.36 386.028,25.6 C386.532,26.752 387.072,27.76 387.648,28.588 C388.836,30.316 389.808,31.18 390.528,31.18 C391.176,31.144 391.788,29.272 392.328,25.564 L394.668,26.86 C393.804,31.648 392.58,34.06 390.96,34.06 C389.448,34.06 387.828,32.98 386.1,30.82 C385.452,29.956 384.84,28.948 384.3,27.832 C381.78,30.784 378.828,32.98 375.444,34.492 L374.004,32.332 C377.604,30.712 380.664,28.336 383.148,25.204 C382.644,23.872 382.176,22.432 381.78,20.884 C380.988,17.86 380.484,14.08 380.196,9.58 L367.848,9.58 L367.848,15.556 L376.668,15.556 C376.596,21.64 376.308,25.564 375.84,27.328 C375.372,28.876 374.256,29.668 372.456,29.74 C371.592,29.74 370.548,29.668 369.396,29.596 L368.604,27.256 C370.008,27.328 371.196,27.364 372.168,27.364 C372.96,27.328 373.464,26.788 373.68,25.78 C373.896,24.556 374.004,21.964 374.076,18.004 L367.848,18.004 L367.848,19.084 C367.704,25.528 366.264,30.712 363.6,34.6 L361.62,32.836 C363.924,29.524 365.112,24.952 365.22,19.084 L365.22,7.096 L380.088,7.096 C380.016,5.296 379.98,3.46 379.98,1.516 L382.644,1.516 C382.644,3.532 382.68,5.368 382.752,7.096 L389.484,7.096 C388.404,5.8 386.964,4.468 385.128,3.064 L386.784,1.48 Z M407.056,8.104 L401.872,8.104 L401.872,5.62 L414.868,5.62 L414.868,8.104 L409.684,8.104 L409.684,24.628 C411.592,24.088 413.464,23.476 415.3,22.756 L415.3,25.348 C411.196,26.86 406.804,28.084 402.124,29.092 L401.476,26.5 C403.348,26.176 405.22,25.78 407.056,25.348 L407.056,8.104 Z M421.492,1.696 L424.156,1.696 L424.156,8.968 L433.3,8.968 C433.3,20.2 433.12,27.148 432.76,29.812 C432.328,32.764 430.276,34.276 426.64,34.276 C425.992,34.276 424.912,34.204 423.364,34.132 L422.752,31.72 C424.084,31.792 425.236,31.828 426.244,31.828 C428.584,31.828 429.952,30.784 430.312,28.732 C430.528,26.86 430.672,21.1 430.744,11.488 L424.156,11.488 C423.976,22.072 421.096,29.812 415.552,34.744 L413.428,32.908 C418.684,28.444 421.348,21.28 421.492,11.488 L415.768,11.488 L415.768,8.968 L421.492,8.968 L421.492,1.696 Z" id="数字化招聘助力企业成功-copy" stroke="#333333" fill="#111111"></path>
                <rect id="矩形" fill="#FFFFFF" fill-rule="nonzero" opacity="0" x="0" y="0" width="436" height="36"></rect>
            </g>
        </g>
    </g>
</svg>