<?xml version="1.0" encoding="UTF-8"?>
<svg width="70px" height="70px" viewBox="0 0 70 70" version="1.1" xmlns="http://www.w3.org/2000/svg" xmlns:xlink="http://www.w3.org/1999/xlink">
    <!-- Generator: Sketch 52.6 (67491) - http://www.bohemiancoding.com/sketch -->
    <title>AiTSicon</title>
    <desc>Created with Sketch.</desc>
    <g id="组件" stroke="none" stroke-width="1" fill="none" fill-rule="evenodd">
        <g id="全流程管理icon" fill-rule="nonzero">
            <g id="AiTSicon">
                <polygon id="矩形" fill="#ECF2FF" points="15 11 55 11 55 20 15 20"></polygon>
                <polygon id="矩形" fill="#ECF2FF" points="12 45 21 45 21 54 12 54"></polygon>
                <polygon id="矩形" fill="#ECF2FF" points="32 45 41 45 41 54 32 54"></polygon>
                <polygon id="矩形" fill="#ECF2FF" points="50 45 59 45 59 54 50 54"></polygon>
                <path d="M34.1677419,36.5145161 L36.3322581,36.5145161 L36.3322581,42.7725806 L39.7258065,42.7725806 C40.4437766,42.7725806 41.0258065,43.3546105 41.0258065,44.0725806 L41.0258065,53.0241935 C41.0258065,53.7421637 40.4437766,54.3241935 39.7258065,54.3241935 L30.7741935,54.3241935 C30.0562234,54.3241935 29.4741935,53.7421637 29.4741935,53.0241935 L29.4741935,44.0725806 C29.4741935,43.3546105 30.0562234,42.7725806 30.7741935,42.7725806 L34.1677419,42.7725806 L34.1677419,36.5145161 Z M55.3241935,30.8209677 L55.3241935,42.7725806 L58.5,42.7725806 C59.2179702,42.7725806 59.8,43.3546105 59.8,44.0725806 L59.8,53.0241935 C59.8,53.7421637 59.2179702,54.3241935 58.5,54.3241935 L49.5483871,54.3241935 C48.8304169,54.3241935 48.2483871,53.7421637 48.2483871,53.0241935 L48.2483871,44.0725806 C48.2483871,43.3546105 48.8304169,42.7725806 49.5483871,42.7725806 L52.7241935,42.7725806 L52.7241935,33.4209677 L17.7758065,33.4209677 L17.7758065,42.7725806 L20.9516129,42.7725806 C21.6695831,42.7725806 22.2516129,43.3546105 22.2516129,44.0725806 L22.2516129,53.0241935 C22.2516129,53.7421637 21.6695831,54.3241935 20.9516129,54.3241935 L12,54.3241935 C11.2820298,54.3241935 10.7,53.7421637 10.7,53.0241935 L10.7,44.0725806 C10.7,43.3546105 11.2820298,42.7725806 12,42.7725806 L15.1758065,42.7725806 L15.1758065,30.8209677 L34.1677419,30.8209677 L34.1677419,22.2516129 L15.1290323,22.2516129 C14.4110621,22.2516129 13.8290323,21.6695831 13.8290323,20.9516129 L13.8290323,12 C13.8290323,11.2820298 14.4110621,10.7 15.1290323,10.7 L55.3709677,10.7 C56.0889379,10.7 56.6709677,11.2820298 56.6709677,12 L56.6709677,20.9516129 C56.6709677,21.6695831 56.0889379,22.2516129 55.3709677,22.2516129 L36.3322581,22.2516129 L36.3322581,30.8209677 L55.3241935,30.8209677 Z M16.4290323,19.6516129 L54.0709677,19.6516129 L54.0709677,13.3 L16.4290323,13.3 L16.4290323,19.6516129 Z M19.6516129,51.7241935 L19.6516129,45.3725806 L13.3,45.3725806 L13.3,51.7241935 L19.6516129,51.7241935 Z M38.4258065,51.7241935 L38.4258065,45.3725806 L32.0741935,45.3725806 L32.0741935,51.7241935 L38.4258065,51.7241935 Z M50.8483871,51.7241935 L57.2,51.7241935 L57.2,45.3725806 L50.8483871,45.3725806 L50.8483871,51.7241935 Z" id="全流程管理" fill="#0F5AFF"></path>
                <rect id="Rectangle" fill="#0F5AFF" opacity="0" x="0" y="0" width="70" height="70"></rect>
            </g>
        </g>
    </g>
</svg>