<?xml version="1.0" encoding="UTF-8"?>
<svg width="80px" height="80px" viewBox="0 0 80 80" version="1.1" xmlns="http://www.w3.org/2000/svg" xmlns:xlink="http://www.w3.org/1999/xlink">
    <!-- Generator: Sketch 52.6 (67491) - http://www.bohemiancoding.com/sketch -->
    <title>AI筛选主投icon</title>
    <desc>Created with Sketch.</desc>
    <g id="页面" stroke="none" stroke-width="1" fill="none" fill-rule="evenodd">
        <g id="深色" transform="translate(-420.000000, -831.000000)" fill="#0F5AFF" fill-rule="nonzero">
            <g id="AI筛选主投icon" transform="translate(420.000000, 831.000000)">
                <path d="M18,12.3 C17.6134007,12.3 17.3,12.6134007 17.3,13 L17.3,66 C17.3,66.3865993 17.6134007,66.7 18,66.7 L41.7056302,66.7 C42.9613423,66.7 44.1917814,66.3471147 45.2566231,65.6815886 L49.3653797,63.1136158 C50.8434436,62.1898258 52.5513664,61.7 54.2943698,61.7 L62,61.7 C62.3865993,61.7 62.7,61.3865993 62.7,61 L62.7,25.4138617 C62.7,24.200544 62.2307815,23.0342341 61.3905204,22.1589621 L53.3132132,13.7451004 C52.4269215,12.8218799 51.2024775,12.3 49.9226927,12.3 L18,12.3 Z" id="矩形" stroke="#0F5AFF" stroke-width="2.6" fill-opacity="0.08" transform="translate(40.000000, 39.500000) scale(1, -1) translate(-40.000000, -39.500000) "></path>
                <path d="M52,54 L64,66 L54,66 C52.8954305,66 52,65.1045695 52,64 L52,54 Z" id="矩形" transform="translate(58.000000, 60.000000) scale(1, -1) translate(-58.000000, -60.000000) "></path>
                <rect id="矩形" x="30" y="46" width="20" height="3" rx="1.5"></rect>
                <rect id="矩形" x="30" y="51" width="10" height="2.6" rx="1.3"></rect>
                <path d="M31.8561189,41.5 C31.6588648,41.5 31.4999543,41.3404993 31.5,41.1383769 L31.5,39.8567255 C31.500862,39.7580066 31.5401058,39.6645301 31.6076181,39.600385 C33.2239561,38.0265467 35.1760178,36.9391467 37.2777012,36.4418537 C37.3033246,36.4333599 37.3340269,36.4333599 37.3596502,36.4333599 L37.495454,36.4333599 C37.5538375,36.4319773 37.6117174,36.4456247 37.6645682,36.473235 C38.2846077,36.809275 39.1352574,37.0029544 40.0012812,37.0029544 C40.8037299,37.0151209 41.5990708,36.8344254 42.3328695,36.473235 C42.3855774,36.445155 42.4435592,36.4314836 42.5019837,36.4333599 L42.6889884,36.4333599 C42.7476172,36.4325721 42.8055821,36.4472118 42.8581483,36.4760833 C44.9078009,36.9878072 46.8095462,38.0619089 48.3898653,39.600385 C48.4582961,39.6640234 48.498485,39.7575639 48.5,39.8567255 L48.5,41.1411742 C48.5,41.3404993 48.3385728,41.5 48.141273,41.5 L31.8561189,41.5 Z M40,34.8888889 C37.3919887,34.8888889 35.2777778,32.5632569 35.2777778,29.6944444 C35.2777778,26.825632 37.3919887,24.5 40,24.5 C42.6080113,24.5 44.7222222,26.825632 44.7222222,29.6944444 C44.7222222,32.5632569 42.6080113,34.8888889 40,34.8888889 Z" id="形状"></path>
                <rect id="Rectangle" opacity="0" x="0" y="0" width="80" height="80"></rect>
            </g>
        </g>
    </g>
</svg>