<?xml version="1.0" encoding="UTF-8"?>
<svg width="80px" height="80px" viewBox="0 0 80 80" version="1.1" xmlns="http://www.w3.org/2000/svg" xmlns:xlink="http://www.w3.org/1999/xlink">
    <!-- Generator: Sketch 52.6 (67491) - http://www.bohemiancoding.com/sketch -->
    <title>智能人才推荐icon</title>
    <desc>Created with Sketch.</desc>
    <g id="页面" stroke="none" stroke-width="1" fill="none" fill-rule="evenodd">
        <g id="深色" transform="translate(-940.000000, -831.000000)" fill-rule="nonzero">
            <g id="智能人才推荐icon-2" transform="translate(940.000000, 831.000000)">
                <g id="智能人才推荐icon">
                    <path d="M37.5361279,55.783449 L19.4218152,63.9414566 C19.1597075,64.0722079 18.8355196,63.9765886 18.6977214,63.7278848 C18.6428495,63.6288497 18.6239145,63.5154128 18.6438479,63.4051356 L23.229777,47.180173 C23.8234773,45.0796686 23.2296001,42.8224474 21.6790404,41.2861 L10.1619198,29.8745438 C9.94987016,29.6784169 9.94553124,29.3563153 10.1522286,29.1551097 C10.2345365,29.0749886 10.3423847,29.0228474 10.4590769,29.0067582 L27.2756919,26.5708505 C29.1364882,26.3013119 30.7633305,25.1750815 31.6706807,23.5282878 L39.5191549,9.2837128 C39.6502088,9.03174838 39.9717151,8.92829798 40.2372592,9.05264985 C40.3430003,9.10216742 40.4285891,9.18337924 40.4807754,9.2837128 L48.3292496,23.5282878 C49.2365998,25.1750815 50.8634422,26.3013119 52.7242385,26.5708505 L69.5408535,29.0067582 C69.8338989,29.0471625 70.0369396,29.3053283 69.9943576,29.5833875 C69.9774012,29.6941122 69.9224499,29.7964451 69.8380106,29.8745438 L58.32089,41.2861 C56.7703303,42.8224474 56.1764531,45.0796686 56.7701533,47.180173 L61.3560825,63.4051356 C61.4061406,63.6820713 61.2101204,63.9450769 60.9182591,63.9925751 C60.8020384,64.0114891 60.6824878,63.9935225 60.5781151,63.9414566 L42.4638025,55.783449 C40.8970249,55.0778311 39.1029054,55.0778311 37.5361279,55.783449 Z" id="星形" stroke="#0F5AFF" stroke-width="2.6" fill="#ECF2FF"></path>
                    <path d="M40,46 L40,46 C40.8284271,46 41.5,46.6715729 41.5,47.5 L41.5,54 C41.5,54.5522847 41.0522847,55 40.5,55 L39.5,55 C38.9477153,55 38.5,54.5522847 38.5,54 L38.5,47.5 C38.5,46.6715729 39.1715729,46 40,46 Z" id="矩形" fill="#0F5AFF"></path>
                    <path d="M40.6069423,32.2514037 L44.2485963,35.8930577 C44.5838012,36.2282627 44.5838012,36.7717373 44.2485963,37.1069423 L40.6069423,40.7485963 C40.2717373,41.0838012 39.7282627,41.0838012 39.3930577,40.7485963 L35.7514037,37.1069423 C35.4161988,36.7717373 35.4161988,36.2282627 35.7514037,35.8930577 L39.3930577,32.2514037 C39.7282627,31.9161988 40.2717373,31.9161988 40.6069423,32.2514037 Z" id="Rectangle" stroke="#0F5AFF" stroke-width="0.6" fill="#0F5AFF"></path>
                    <rect id="Rectangle" fill="#0F5AFF" opacity="0" x="0" y="0" width="80" height="80"></rect>
                </g>
            </g>
        </g>
    </g>
</svg>